# Blender 3.1.0
# www.blender.org
o Base.002
v -0.500000 0.006250 -0.500000
v 0.500000 0.193750 -0.500000
v 0.500000 0.006250 -0.500000
v 0.500000 0.006250 0.500000
v -0.500000 0.193750 0.500000
v -0.500000 0.006250 0.500000
v -0.500000 0.193750 -0.500000
v 0.500000 0.193750 0.500000
vn -0.0000 -0.0000 -1.0000
vn -0.0000 -0.0000 1.0000
vn -0.0000 1.0000 -0.0000
vn -0.0000 -1.0000 -0.0000
vn 1.0000 -0.0000 -0.0000
vn -1.0000 -0.0000 -0.0000
vt 0.500000 0.000000
vt 0.750000 0.296875
vt 0.250000 0.046875
vt 0.500000 0.296875
vt 0.250000 0.000000
vt 0.500000 0.046875
vt 0.000000 0.000000
vt 1.000000 0.000000
vt 0.500000 0.296875
vt 0.750000 0.046875
vt 0.750000 0.046875
vt 0.750000 0.000000
vt 0.500000 0.046875
vt 1.000000 0.046875
vt 0.250000 0.296875
vt 0.000000 0.046875
s 0
f 1/1/1 2/3/1 3/5/1
f 4/8/2 5/10/2 6/12/2
f 7/13/3 8/15/3 2/3/3
f 6/11/4 3/4/4 4/6/4
f 3/5/5 8/16/5 4/7/5
f 6/12/6 7/13/6 1/1/6
f 1/1/1 7/13/1 2/3/1
f 4/8/2 8/14/2 5/10/2
f 7/13/3 5/9/3 8/15/3
f 6/11/4 1/2/4 3/4/4
f 3/5/5 2/3/5 8/16/5
f 6/12/6 5/10/6 7/13/6
o Cube.003
v -0.127987 0.910610 0.000000
v -0.184908 0.360866 -0.186774
v -0.278295 0.360866 0.000000
v 0.007596 0.910610 -0.135583
v 0.188640 0.360866 -0.186774
v 0.001866 0.360866 -0.280161
v 0.143179 0.910610 0.000000
v 0.188640 0.360866 0.186774
v 0.282027 0.360866 0.000000
v 0.007596 0.910610 0.135583
v -0.184908 0.360866 0.186774
v 0.001866 0.360866 0.280161
v 0.187077 0.306779 -0.185775
v 0.001302 0.306757 -0.278668
v 0.149175 0.910610 0.141579
v 0.007596 0.910610 0.212369
v 0.097985 0.910610 0.090389
v 0.001302 0.306757 0.278668
v -0.184481 0.306734 0.185783
v 0.279962 0.306788 0.000000
v 0.187077 0.306779 0.185775
v -0.133983 0.910610 0.141579
v -0.204773 0.910610 0.000000
v 0.149175 0.910610 -0.141579
v 0.219965 0.910610 0.000000
v -0.204773 0.986571 0.000000
v -0.133983 0.986571 -0.141579
v -0.133983 0.910610 -0.141579
v 0.149175 0.986571 0.141579
v 0.007596 0.986571 -0.212369
v 0.007596 0.910610 -0.212369
v -0.082793 0.910610 -0.090389
v -0.082793 0.910610 0.090389
v 0.097985 0.910610 -0.090389
v -0.116500 0.986571 0.000000
v -0.075134 0.986571 -0.082730
v 0.131692 0.986571 0.000000
v 0.090326 0.986571 0.082730
v 0.007596 0.986571 -0.124096
v 0.149175 0.986571 -0.141579
v 0.219965 0.986571 0.000000
v 0.007596 0.986571 0.212369
v -0.133983 0.986571 0.141579
v 0.090326 0.986571 -0.082730
v 0.131692 1.009359 0.000000
v 0.090326 1.009359 -0.082730
v 0.007596 0.986571 0.124096
v -0.075134 1.009359 0.082730
v -0.075134 0.986571 0.082730
v 0.007596 1.009359 0.124096
v -0.123963 1.070127 0.131559
v 0.139156 1.070127 0.131559
v 0.007596 1.070127 0.197339
v -0.116500 1.009359 0.000000
v -0.189743 1.070127 0.000000
v -0.123963 1.070127 -0.131559
v -0.075134 1.009359 -0.082730
v 0.007596 1.009359 -0.124096
v 0.090326 1.009359 0.082730
v -0.189743 1.225846 0.000000
v -0.123963 1.225846 -0.131559
v 0.204935 1.070127 0.000000
v 0.139156 1.225846 0.131559
v 0.007596 1.225846 -0.197339
v 0.007596 1.070127 -0.197339
v 0.139156 1.070127 -0.131559
v 0.149066 1.282817 0.000000
v 0.101910 1.282817 0.094314
v 0.007596 1.282817 -0.141470
v 0.139156 1.225846 -0.131559
v 0.204935 1.225846 0.000000
v 0.101910 1.282817 -0.094313
v 0.007596 1.225846 0.197339
v -0.123963 1.225846 0.131559
v 0.007596 1.282817 0.000000
v -0.086717 1.282817 0.094314
v 0.007596 1.282817 0.141470
v -0.086717 1.282817 -0.094313
v -0.133874 1.282817 0.000000
v 0.000000 0.181837 0.000000
v -0.188998 0.155523 0.189032
v -0.283514 0.155523 0.000000
v 0.189065 0.155523 -0.189032
v 0.000034 0.155523 -0.283547
v -0.188998 0.155523 -0.189032
v 0.189065 0.155523 0.189032
v 0.000034 0.155523 0.283547
v -0.184481 0.306734 -0.185783
v -0.277375 0.306725 0.000000
v -0.224128 0.245904 0.000000
v 0.000668 0.245920 -0.224792
v 0.225456 0.245936 0.000000
v 0.000668 0.245920 0.224792
v 0.150527 0.245931 -0.149859
v -0.149196 0.245909 0.149863
v -0.149196 0.245909 -0.149863
v 0.150527 0.245931 0.149859
v 0.283581 0.155523 0.000000
vn -0.8688 0.2375 -0.4344
vn 0.4365 0.2245 -0.8713
vn 0.4358 0.2247 -0.8716
vn 0.8724 0.2204 0.4362
vn -0.4349 0.2333 0.8698
vn -0.4353 0.2335 0.8695
vn -0.4351 0.2334 0.8696
vn 0.4470 -0.0293 -0.8940
vn 0.4470 -0.0294 -0.8940
vn -0.0000 -1.0000 -0.0000
vn -0.4471 -0.0200 0.8943
vn -0.4471 -0.0199 0.8943
vn -0.4465 -0.0192 0.8946
vn 0.4358 0.2247 0.8716
vn 0.4366 0.2245 0.8712
vn 0.4364 0.2245 0.8713
vn -0.4353 0.2334 -0.8695
vn -0.4349 0.2333 -0.8698
vn -0.4351 0.2334 -0.8696
vn 0.8939 -0.0341 0.4470
vn 0.8939 -0.0341 0.4469
vn 0.8724 0.2204 -0.4362
vn -0.8688 0.2375 0.4344
vn -0.8686 0.2374 0.4349
vn -0.8944 -0.0000 0.4472
vn -0.8944 -0.0000 -0.4472
vn 0.8944 -0.0000 0.4472
vn -0.4472 -0.0000 -0.8944
vn -0.0000 1.0000 -0.0000
vn 0.4472 -0.0000 0.8944
vn -0.4472 -0.0000 0.8944
vn 0.4472 -0.0000 -0.8944
vn 0.8944 -0.0000 -0.4472
vn -0.4479 -0.0000 0.8941
vn -0.3041 -0.7331 0.6083
vn 0.3041 -0.7331 0.6083
vn -0.6084 -0.7328 0.3048
vn -0.6084 -0.7329 0.3046
vn -0.6083 -0.7329 0.3046
vn -0.6083 -0.7329 -0.3046
vn -0.6084 -0.7329 -0.3046
vn -0.6084 -0.7328 -0.3047
vn -0.8940 -0.0000 -0.4480
vn -0.8940 -0.0000 0.4480
vn 0.3041 -0.7331 -0.6083
vn 0.3041 -0.7332 -0.6083
vn 0.6084 -0.7327 -0.3049
vn 0.6083 -0.7330 -0.3044
vn 0.6083 -0.7331 -0.3041
vn -0.3041 -0.7331 -0.6083
vn 0.6084 -0.7327 0.3049
vn 0.6083 -0.7330 0.3044
vn 0.6724 0.6594 0.3362
vn 0.6723 0.6598 0.3356
vn -0.3358 0.6597 -0.6724
vn 0.6724 0.6594 -0.3362
vn 0.6723 0.6599 -0.3354
vn 0.3358 0.6597 -0.6724
vn 0.3362 0.6594 -0.6724
vn 0.3356 0.6598 -0.6724
vn -0.6724 0.6597 -0.3357
vn -0.6724 0.6597 -0.3358
vn -0.6724 0.6596 -0.3359
vn -0.6723 0.6599 0.3355
vn -0.6724 0.6596 0.3359
vn 0.3356 0.6598 0.6724
vn 0.3362 0.6594 0.6724
vn 0.3358 0.6597 0.6724
vn -0.3362 0.6594 0.6724
vn -0.3356 0.6598 0.6723
vn 0.0923 -0.9947 -0.0462
vn -0.0464 -0.9947 0.0920
vn -0.0462 -0.9947 0.0923
vn 0.0923 -0.9947 0.0462
vn -0.0464 -0.9947 -0.0920
vn -0.8943 -0.0152 -0.4472
vn -0.8941 -0.0150 -0.4476
vn 0.4470 -0.0294 0.8940
vn 0.4470 -0.0293 0.8940
vn 0.8939 -0.0341 -0.4469
vn 0.8939 -0.0341 -0.4470
vn 0.8939 -0.0334 -0.4470
vn -0.4471 -0.0199 -0.8943
vn -0.4471 -0.0200 -0.8943
vn -0.7042 -0.6165 0.3521
vn -0.3513 -0.6187 -0.7027
vn 0.6980 -0.6253 -0.3490
vn 0.6982 -0.6252 -0.3487
vn 0.3499 -0.6231 0.6995
vn 0.3498 -0.6231 0.6996
vn 0.3499 -0.6231 -0.6995
vn 0.3498 -0.6231 -0.6996
vn -0.3513 -0.6187 0.7027
vn -0.7042 -0.6165 -0.3521
vn 0.6980 -0.6253 0.3490
vn 0.6983 -0.6252 0.3486
vn -0.8943 -0.0152 0.4472
vn -0.8940 -0.0149 0.4478
vn -0.8942 -0.0151 0.4475
vn 0.7754 0.4985 0.3877
vn -0.7711 0.5067 -0.3856
vn -0.3856 0.5046 0.7725
vn -0.3857 0.5046 0.7724
vn -0.3861 0.5046 0.7722
vn 0.3871 0.5005 -0.7743
vn 0.3872 0.5006 -0.7743
vn 0.3871 0.5005 0.7743
vn 0.3872 0.5006 0.7743
vn 0.7754 0.4985 -0.3877
vn -0.3856 0.5046 -0.7725
vn -0.3857 0.5046 -0.7724
vn -0.3856 0.5046 -0.7724
vn -0.7711 0.5067 0.3856
vn -0.4353 0.2334 0.8695
vn -0.4469 -0.0202 0.8944
vn 0.8723 0.2205 -0.4364
vn -0.8942 -0.0000 0.4477
vn -0.8942 -0.0000 -0.4477
vn 0.8942 -0.0000 0.4477
vn -0.4477 -0.0000 -0.8942
vn 0.4477 -0.0000 0.8942
vn 0.8942 -0.0000 -0.4477
vn 0.3041 -0.7332 0.6083
vn 0.6083 -0.7331 0.3041
vn 0.6723 0.6599 0.3355
vn -0.3362 0.6594 -0.6724
vn -0.6724 0.6597 0.3358
vn 0.3359 0.6596 0.6724
vn 0.0464 -0.9947 -0.0920
vn -0.0923 -0.9947 0.0461
vn 0.0465 -0.9947 0.0919
vn -0.0923 -0.9947 -0.0461
vn -0.4471 -0.0200 -0.8942
vn 0.6983 -0.6252 -0.3486
vn -0.3856 0.5046 0.7724
vn -0.3858 0.5046 -0.7723
vt 0.625000 0.125000
vt 0.436414 0.250000
vt 0.436414 0.125000
vt 0.625000 0.375000
vt 0.436414 0.500000
vt 0.436414 0.375000
vt 0.625000 0.625000
vt 0.436414 0.750000
vt 0.436414 0.625000
vt 0.625000 0.875000
vt 0.436414 1.000000
vt 0.436414 0.000000
vt 0.436414 0.875000
vt 0.418974 0.500000
vt 0.370461 0.500000
vt 0.242887 0.500000
vt 0.418966 0.375000
vt 0.258337 0.500000
vt 0.625000 0.750000
vt 0.625000 0.875000
vt 0.625000 0.750000
vt 0.258337 0.750000
vt 0.418966 0.875000
vt 0.242887 0.750000
vt 0.418958 1.000000
vt 0.125000 0.745157
vt 0.130761 0.750000
vt 0.418958 0.000000
vt 0.418977 0.625000
vt 0.370461 0.750000
vt 0.418974 0.750000
vt 0.625000 0.000000
vt 0.625000 1.000000
vt 0.625000 0.125000
vt 0.625000 0.500000
vt 0.625000 0.625000
vt 0.625000 0.125000
vt 0.625000 0.250000
vt 0.625000 0.250000
vt 0.625000 0.750000
vt 0.625000 0.375000
vt 0.625000 0.375000
vt 0.625000 0.250000
vt 0.625000 1.000000
vt 0.625000 0.000000
vt 0.625000 0.500000
vt 0.625000 0.125000
vt 0.625000 0.250000
vt 0.625000 0.625000
vt 0.625000 0.750000
vt 0.625000 0.375000
vt 0.625000 0.500000
vt 0.625000 0.625000
vt 0.625000 0.875000
vt 0.625000 0.000000
vt 0.625000 1.000000
vt 0.625000 0.500000
vt 0.625000 0.625000
vt 0.625000 0.500000
vt 0.625000 0.875000
vt 0.625000 1.000000
vt 0.625000 0.000000
vt 0.625000 1.000000
vt 0.625000 0.000000
vt 0.625000 0.875000
vt 0.625000 1.000000
vt 0.625000 0.000000
vt 0.625000 0.750000
vt 0.625000 0.875000
vt 0.625000 0.125000
vt 0.625000 0.125000
vt 0.625000 0.250000
vt 0.625000 0.250000
vt 0.625000 0.375000
vt 0.625000 0.750000
vt 0.625000 0.125000
vt 0.625000 0.250000
vt 0.625000 0.625000
vt 0.625000 0.750000
vt 0.625000 0.375000
vt 0.625000 0.375000
vt 0.625000 0.500000
vt 0.625000 0.625000
vt 0.625000 0.750000
vt 0.625000 0.375000
vt 0.750000 0.500000
vt 0.625000 0.500000
vt 0.625000 0.625000
vt 0.625000 0.500000
vt 0.625000 0.875000
vt 0.625000 0.000000
vt 0.625000 1.000000
vt 0.750000 0.625000
vt 0.625000 1.000000
vt 0.875000 0.750000
vt 0.625000 0.000000
vt 0.750000 0.750000
vt 0.625000 0.875000
vt 0.625000 0.250000
vt 0.875000 0.500000
vt 0.875000 0.625000
vt 0.625000 0.125000
vt 0.250000 0.625000
vt 0.193594 0.681406
vt 0.181230 0.625000
vt 0.306406 0.568594
vt 0.250000 0.556230
vt 0.193594 0.568594
vt 0.306406 0.681406
vt 0.250000 0.693770
vt 0.418958 0.250000
vt 0.130761 0.500000
vt 0.125000 0.504843
vt 0.125000 0.633029
vt 0.418955 0.125000
vt 0.125000 0.616971
vt 0.153115 0.620985
vt 0.153115 0.629015
vt 0.254169 0.528115
vt 0.246444 0.528115
vt 0.368874 0.625000
vt 0.246444 0.721885
vt 0.254169 0.721885
vt 0.338434 0.534297
vt 0.362690 0.534297
vt 0.162178 0.715703
vt 0.159297 0.713282
vt 0.159297 0.536718
vt 0.162178 0.534297
vt 0.362690 0.715703
vt 0.338434 0.715703
vt 0.318770 0.625000
s 0
f 9/17/7 10/18/7 11/19/7
f 12/20/8 13/21/9 14/22/9
f 15/23/10 16/24/10 17/25/10
f 18/26/11 19/27/12 20/29/13
f 14/22/14 21/30/15 22/33/14
f 18/26/16 23/35/16 24/36/16
f 15/23/16 23/35/16 25/37/16
f 26/39/17 19/27/18 27/41/19
f 16/24/20 18/26/21 20/29/22
f 10/18/23 12/20/24 14/22/25
f 28/45/26 16/24/27 29/47/27
f 9/17/16 30/48/16 31/50/16
f 15/23/16 32/51/16 33/52/16
f 13/21/28 15/23/28 17/25/28
f 19/28/29 9/17/29 11/19/30
f 30/48/31 34/53/31 31/50/31
f 31/50/32 35/54/32 36/55/32
f 33/52/33 37/56/33 23/35/33
f 36/55/34 38/57/34 39/58/34
f 12/20/16 36/55/16 39/58/16
f 9/17/16 36/55/16 40/59/16
f 18/26/16 30/49/16 41/60/16
f 12/20/16 32/51/16 42/62/16
f 35/54/35 43/63/35 44/64/35
f 37/56/35 45/65/35 46/66/35
f 35/54/35 47/67/35 38/57/35
f 48/68/35 45/65/35 49/69/35
f 23/35/36 50/70/36 24/36/36
f 24/36/37 51/72/37 30/49/37
f 39/58/38 48/68/38 32/51/38
f 32/51/39 49/69/39 33/52/39
f 52/73/39 53/74/39 45/65/39
f 47/67/38 54/75/38 52/73/38
f 55/76/37 56/77/40 57/79/37
f 46/66/36 58/81/36 55/76/36
f 51/71/35 43/63/35 34/53/35
f 37/56/35 55/76/35 50/70/35
f 51/72/35 55/76/35 57/79/35
f 48/68/35 47/67/35 52/73/35
f 58/81/41 59/82/41 56/77/41
f 58/81/42 60/84/42 61/85/42
f 62/86/43 59/83/44 63/87/45
f 62/86/46 64/88/47 65/89/48
f 44/64/34 66/90/34 47/67/34
f 45/65/33 67/91/33 46/66/33
f 43/63/49 65/89/49 44/64/32
f 57/80/50 62/86/50 43/63/31
f 59/83/31 68/92/31 63/87/31
f 63/87/32 69/93/32 64/88/32
f 70/94/33 71/95/33 60/84/33
f 64/88/34 72/96/34 73/97/34
f 66/90/51 74/98/51 54/75/52
f 53/74/53 74/98/54 70/94/55
f 66/90/56 64/88/56 73/97/56
f 53/74/57 60/84/58 67/91/58
f 71/95/59 75/99/59 76/100/60
f 69/93/61 77/101/61 72/96/61
f 78/103/62 75/99/62 79/104/63
f 78/103/64 77/101/65 80/105/66
f 60/84/36 81/106/36 61/85/36
f 61/85/37 82/108/37 59/82/37
f 73/97/38 78/103/38 74/98/38
f 74/98/39 79/104/39 70/94/39
f 83/109/35 84/111/35 85/113/35
f 83/109/35 76/100/35 75/99/35
f 80/105/35 83/109/35 75/99/35
f 86/116/35 83/109/35 77/102/35
f 69/93/67 87/118/68 86/115/69
f 82/107/70 87/118/71 68/92/71
f 71/95/72 85/114/73 81/106/74
f 82/108/75 85/114/75 84/110/76
f 88/119/77 89/120/77 90/121/77
f 91/122/78 88/119/79 92/123/79
f 93/124/80 88/119/80 90/121/80
f 88/119/81 94/125/81 95/126/81
f 11/19/82 96/127/82 97/131/83
f 29/47/84 20/29/85 26/39/85
f 13/21/86 28/45/87 21/30/88
f 10/18/89 22/33/90 96/127/89
f 98/134/91 27/42/91 97/130/91
f 99/136/92 96/128/92 22/32/92
f 100/137/93 21/30/93 28/45/94
f 101/139/95 29/46/96 26/38/95
f 99/135/97 21/31/98 102/140/98
f 101/138/99 27/43/99 103/142/99
f 98/133/100 96/129/100 104/144/100
f 100/137/101 29/47/101 105/146/102
f 27/44/103 11/19/104 97/131/105
f 94/125/106 100/137/106 105/146/106
f 93/124/107 98/133/107 104/144/107
f 89/120/108 101/138/109 103/142/110
f 91/122/111 99/135/112 102/140/111
f 94/125/113 101/139/114 95/126/114
f 91/122/115 100/137/115 106/148/115
f 93/124/116 99/136/117 92/123/118
f 89/120/119 98/134/119 90/121/119
f 9/17/7 40/59/7 10/18/7
f 12/20/8 42/62/9 13/21/9
f 15/23/10 25/37/10 16/24/10
f 18/26/11 41/60/120 19/27/12
f 14/22/14 13/21/15 21/30/15
f 18/26/16 25/37/16 23/35/16
f 15/23/16 33/52/16 23/35/16
f 26/39/17 20/29/121 19/27/18
f 16/24/20 25/37/20 18/26/21
f 10/18/23 40/59/23 12/20/24
f 28/45/26 17/25/26 16/24/27
f 9/17/16 41/61/16 30/48/16
f 15/23/16 42/62/16 32/51/16
f 13/21/28 42/62/122 15/23/28
f 19/28/29 41/61/29 9/17/29
f 30/48/31 51/71/123 34/53/31
f 31/50/32 34/53/124 35/54/32
f 33/52/33 49/69/125 37/56/33
f 36/55/34 35/54/126 38/57/34
f 12/20/16 40/59/16 36/55/16
f 9/17/16 31/50/16 36/55/16
f 18/26/16 24/36/16 30/49/16
f 12/20/16 39/58/16 32/51/16
f 35/54/35 34/53/35 43/63/35
f 37/56/35 49/69/35 45/65/35
f 35/54/35 44/64/35 47/67/35
f 48/68/35 52/73/35 45/65/35
f 23/35/36 37/56/127 50/70/36
f 24/36/37 50/70/37 51/72/37
f 39/58/38 38/57/38 48/68/38
f 32/51/39 48/68/128 49/69/39
f 52/73/39 54/75/39 53/74/39
f 47/67/38 66/90/38 54/75/38
f 55/76/37 58/81/37 56/77/40
f 46/66/36 67/91/36 58/81/36
f 51/71/35 57/80/35 43/63/35
f 37/56/35 46/66/35 55/76/35
f 51/72/35 50/70/35 55/76/35
f 48/68/35 38/57/35 47/67/35
f 58/81/41 61/85/41 59/82/41
f 58/81/42 67/91/129 60/84/42
f 62/86/43 56/78/44 59/83/44
f 62/86/46 63/87/46 64/88/47
f 44/64/34 65/89/34 66/90/34
f 45/65/33 53/74/33 67/91/33
f 43/63/49 62/86/32 65/89/49
f 57/80/50 56/78/31 62/86/50
f 59/83/31 82/107/31 68/92/31
f 63/87/32 68/92/32 69/93/32
f 70/94/33 79/104/33 71/95/33
f 64/88/34 69/93/34 72/96/34
f 66/90/51 73/97/51 74/98/51
f 53/74/53 54/75/54 74/98/54
f 66/90/56 65/89/56 64/88/56
f 53/74/57 70/94/130 60/84/58
f 71/95/59 79/104/131 75/99/59
f 69/93/61 86/115/132 77/101/61
f 78/103/62 80/105/62 75/99/62
f 78/103/64 72/96/64 77/101/65
f 60/84/36 71/95/36 81/106/36
f 61/85/37 81/106/37 82/108/37
f 73/97/38 72/96/38 78/103/38
f 74/98/39 78/103/39 79/104/39
f 83/109/35 87/117/35 84/111/35
f 83/109/35 85/113/35 76/100/35
f 80/105/35 77/102/35 83/109/35
f 86/116/35 87/117/35 83/109/35
f 69/93/67 68/92/69 87/118/68
f 82/107/70 84/112/133 87/118/71
f 71/95/72 76/100/134 85/114/73
f 82/108/75 81/106/75 85/114/75
f 88/119/135 95/126/135 89/120/135
f 91/122/136 106/148/136 88/119/136
f 93/124/137 92/123/137 88/119/137
f 88/119/138 106/148/138 94/125/138
f 11/19/82 10/18/82 96/127/82
f 29/47/84 16/24/84 20/29/85
f 13/21/86 17/25/87 28/45/87
f 10/18/89 14/22/139 22/33/90
f 98/134/91 103/143/91 27/42/91
f 99/136/92 104/145/92 96/128/92
f 100/137/93 102/141/140 21/30/93
f 101/139/95 105/147/96 29/46/96
f 99/135/97 22/34/97 21/31/98
f 101/138/99 26/40/99 27/43/99
f 98/133/100 97/132/100 96/129/100
f 100/137/101 28/45/102 29/47/101
f 27/44/103 19/28/103 11/19/104
f 94/125/106 106/148/106 100/137/106
f 93/124/107 90/121/107 98/133/107
f 89/120/108 95/126/141 101/138/109
f 91/122/111 92/123/112 99/135/112
f 94/125/113 105/147/113 101/139/114
f 91/122/115 102/141/115 100/137/115
f 93/124/116 104/145/142 99/136/117
f 89/120/119 103/143/119 98/134/119