# Blender 3.1.0
# www.blender.org
o Base.006
v -0.500000 0.006250 -0.500000
v 0.500000 0.193750 -0.500000
v 0.500000 0.006250 -0.500000
v 0.500000 0.006250 0.500000
v -0.500000 0.193750 0.500000
v -0.500000 0.006250 0.500000
v -0.500000 0.193750 -0.500000
v 0.500000 0.193750 0.500000
vn -0.0000 -0.0000 -1.0000
vn -0.0000 -0.0000 1.0000
vn -0.0000 1.0000 -0.0000
vn -0.0000 -1.0000 -0.0000
vn 1.0000 -0.0000 -0.0000
vn -1.0000 -0.0000 -0.0000
vt 0.500000 0.000000
vt 0.750000 0.296875
vt 0.250000 0.046875
vt 0.500000 0.296875
vt 0.250000 0.000000
vt 0.500000 0.046875
vt 0.000000 0.000000
vt 1.000000 0.000000
vt 0.500000 0.296875
vt 0.750000 0.046875
vt 0.750000 0.046875
vt 0.750000 0.000000
vt 0.500000 0.046875
vt 1.000000 0.046875
vt 0.250000 0.296875
vt 0.000000 0.046875
s 0
f 1/1/1 2/3/1 3/5/1
f 4/8/2 5/10/2 6/12/2
f 7/13/3 8/15/3 2/3/3
f 6/11/4 3/4/4 4/6/4
f 3/5/5 8/16/5 4/7/5
f 6/12/6 7/13/6 1/1/6
f 1/1/1 7/13/1 2/3/1
f 4/8/2 8/14/2 5/10/2
f 7/13/3 5/9/3 8/15/3
f 6/11/4 1/2/4 3/4/4
f 3/5/5 2/3/5 8/16/5
f 6/12/6 5/10/6 7/13/6
o Cylinder.002
v 0.107151 0.710000 -0.258686
v 0.258686 0.150000 -0.107151
v 0.107151 0.150000 -0.258686
v 0.258686 0.710000 -0.107151
v 0.258686 0.150000 0.107151
v 0.258686 0.710000 0.107151
v 0.107151 0.150000 0.258686
v 0.107151 0.710000 0.258686
v -0.107151 0.150000 0.258686
v -0.107151 0.710000 0.258686
v -0.258686 0.150000 0.107151
v -0.258686 0.710000 0.107151
v -0.258686 0.150000 -0.107151
v -0.075006 0.810000 0.181080
v -0.258686 0.710000 -0.107151
v -0.107151 0.150000 -0.258686
v -0.107151 0.710000 -0.258686
v 0.075006 0.810000 -0.181080
v 0.181080 0.910000 -0.075006
v 0.181080 0.810000 -0.075006
v -0.075006 0.810000 -0.181080
v 0.181080 0.810000 0.075006
v -0.181080 0.810000 0.075006
v 0.075006 0.810000 0.181080
v -0.181080 0.810000 -0.075006
v -0.181080 0.910000 -0.075006
v -0.105008 1.010000 -0.253513
v -0.075006 0.910000 -0.181080
v 0.075006 0.910000 -0.181080
v -0.075006 0.910000 0.181080
v 0.181080 0.910000 0.075006
v -0.181080 0.910000 0.075006
v 0.075006 0.910000 0.181080
v 0.253513 1.010000 -0.105008
v 0.253513 1.310000 0.105008
v 0.253513 1.010000 0.105008
v -0.253513 1.010000 0.105008
v 0.105008 1.010000 0.253513
v 0.105008 1.010000 -0.253513
v -0.253513 1.010000 -0.105008
v -0.105008 1.010000 0.253512
v 0.105008 1.310000 -0.253513
v -0.126010 1.410000 -0.304215
v 0.126010 1.410000 -0.304215
v -0.105008 1.310000 -0.253513
v -0.253513 1.310000 0.105008
v 0.105008 1.310000 0.253513
v 0.253513 1.310000 -0.105008
v -0.253513 1.310000 -0.105008
v -0.105008 1.310000 0.253512
v 0.304215 1.410000 0.126010
v 0.086385 1.410000 0.208553
v 0.126010 1.410000 0.304215
v -0.304215 1.410000 -0.126010
v -0.126010 1.410000 0.304215
v -0.304215 1.410000 0.126010
v 0.304215 1.410000 -0.126010
v -0.086385 1.410000 -0.208553
v -0.208553 1.269573 -0.086385
v -0.086385 1.269573 -0.208553
v 0.208553 1.410000 -0.086385
v -0.126010 1.582878 0.304215
v 0.126010 1.582878 0.304215
v 0.208553 1.410000 0.086385
v 0.208553 1.582878 -0.086385
v 0.208553 1.582878 0.086385
v -0.208553 1.410000 0.086385
v -0.126010 1.582878 -0.304215
v 0.086385 1.582878 -0.208553
v 0.126010 1.582878 -0.304215
v -0.304215 1.582878 0.126010
v -0.208553 1.582878 -0.086385
v -0.304215 1.582878 -0.126010
v 0.086385 1.582878 0.208553
v -0.086385 1.582878 0.208553
v 0.304215 1.582878 -0.126010
v 0.304215 1.582878 0.126010
v 0.086385 1.410000 -0.208553
v -0.086385 1.410000 0.208553
v -0.208553 1.410000 -0.086385
v -0.208553 1.582878 0.086385
v -0.086385 1.582878 -0.208553
v -0.086385 1.269573 0.208553
v 0.208553 1.269573 0.086385
v -0.208553 1.269573 0.086385
v 0.086385 1.269573 0.208553
v 0.086385 1.269573 -0.208553
v 0.208553 1.269573 -0.086385
vn 0.7071 -0.0000 -0.7071
vn 1.0000 -0.0000 -0.0000
vn 0.7071 -0.0000 0.7071
vn -0.0000 -0.0000 1.0000
vn -0.7071 -0.0000 0.7071
vn -1.0000 -0.0000 -0.0000
vn -0.0000 0.6131 0.7900
vn -0.7071 -0.0000 -0.7071
vn -0.0000 -0.0000 -1.0000
vn -0.0000 -1.0000 -0.0000
vn -0.5582 0.6134 -0.5587
vn -0.5586 0.6131 -0.5586
vn 0.7900 0.6131 -0.0000
vn -0.5586 0.6131 0.5586
vn -0.5584 0.6135 0.5584
vn -0.0000 0.6131 -0.7900
vn 0.5586 0.6131 -0.5586
vn 0.5584 0.6135 -0.5584
vn 0.5582 0.6134 0.5587
vn 0.5586 0.6131 0.5586
vn -0.7900 0.6131 -0.0000
vn -0.5726 -0.5872 -0.5721
vn -0.5727 -0.5866 -0.5727
vn -0.5727 -0.5866 0.5727
vn -0.5724 -0.5872 0.5724
vn -0.5725 -0.5870 0.5725
vn 0.5726 -0.5873 0.5720
vn 0.5727 -0.5866 0.5727
vn 0.5727 -0.5866 -0.5727
vn 0.5725 -0.5870 -0.5725
vn -0.0000 -0.5866 -0.8099
vn -0.8099 -0.5866 -0.0000
vn -0.0000 -0.5866 0.8099
vn 0.8099 -0.5866 -0.0000
vn -0.0000 -0.4522 -0.8919
vn -0.0000 1.0000 -0.0000
vn -0.8919 -0.4522 -0.0000
vn -0.0000 -0.4522 0.8919
vn 0.8919 -0.4522 -0.0000
vn -0.6307 -0.4522 -0.6307
vn -0.6307 -0.4522 0.6307
vn 0.6307 -0.4522 0.6307
vn 0.6307 -0.4522 -0.6307
vn 0.9239 -0.0000 -0.3827
vn -0.3827 -0.0000 0.9239
vn 0.9239 -0.0000 0.3827
vn -0.3827 -0.0000 -0.9239
vn -0.9239 -0.0000 0.3827
vn 0.3827 -0.0000 0.9239
vn 0.3827 -0.0000 -0.9239
vn -0.9239 -0.0000 -0.3827
vn -0.5584 0.6135 -0.5584
vn -0.5585 0.6134 0.5585
vn 0.5585 0.6134 -0.5585
vn 0.5584 0.6135 0.5584
vn -0.5721 -0.5873 -0.5726
vn -0.5721 -0.5870 0.5728
vn 0.5720 -0.5873 0.5726
vn 0.5723 -0.5869 -0.5727
vn -0.3835 -0.0000 -0.9235
vn 0.3835 -0.0000 0.9235
vt 0.000000 1.000000
vt 1.000000 1.000000
vt 0.875000 0.500000
vt 0.919706 0.419706
vt 1.000000 0.500000
vt 0.000000 0.500000
vt 0.750000 0.490000
vt 0.875000 1.000000
vt 0.750000 0.500000
vt 0.990000 0.250000
vt 0.750000 1.000000
vt 0.625000 0.500000
vt 0.919706 0.080294
vt 0.625000 1.000000
vt 0.500000 0.500000
vt 0.750000 0.010000
vt 0.500000 1.000000
vt 0.375000 0.500000
vt 0.580294 0.080294
vt 0.375000 1.000000
vt 0.250000 0.500000
vt 0.510000 0.250000
vt 0.500000 1.000000
vt 0.250000 1.000000
vt 0.125000 0.500000
vt 0.580294 0.419706
vt 0.125000 1.000000
vt 0.000000 1.000000
vt 1.000000 1.000000
vt 0.875000 1.000000
vt 0.875000 1.000000
vt 0.125000 1.000000
vt 0.750000 1.000000
vt 0.375000 1.000000
vt 0.625000 1.000000
vt 0.250000 1.000000
vt 0.250000 1.000000
vt 0.125000 1.000000
vt 0.125000 1.000000
vt 0.000000 1.000000
vt 1.000000 1.000000
vt 0.500000 1.000000
vt 0.750000 1.000000
vt 0.375000 1.000000
vt 0.625000 1.000000
vt 0.875000 1.000000
vt 0.750000 1.000000
vt 0.750000 1.000000
vt 0.375000 1.000000
vt 0.625000 1.000000
vt 0.000000 1.000000
vt 1.000000 1.000000
vt 0.250000 1.000000
vt 0.500000 1.000000
vt 0.000000 1.000000
vt 1.000000 1.000000
vt 0.125000 1.000000
vt 0.000000 1.000000
vt 1.000000 1.000000
vt 0.125000 1.000000
vt 0.375000 1.000000
vt 0.625000 1.000000
vt 0.875000 1.000000
vt 0.250000 1.000000
vt 0.500000 1.000000
vt 0.750000 1.000000
vt 0.625000 1.000000
vt 0.419706 0.080294
vt 0.625000 1.000000
vt 0.250000 1.000000
vt 0.500000 1.000000
vt 0.375000 1.000000
vt 0.875000 1.000000
vt 0.125000 1.000000
vt 0.080294 0.419706
vt 0.250000 1.000000
vt 0.010000 0.250000
vt 0.125000 1.000000
vt 0.080294 0.419706
vt 0.875000 1.000000
vt 0.419706 0.419706
vt 0.500000 1.000000
vt 0.625000 1.000000
vt 0.750000 1.000000
vt 0.490000 0.250000
vt 0.419706 0.419706
vt 0.875000 1.000000
vt 0.490000 0.250000
vt 0.750000 1.000000
vt 0.375000 1.000000
vt 0.080294 0.080294
vt 0.125000 1.000000
vt 0.000000 1.000000
vt 1.000000 1.000000
vt 0.250000 0.490000
vt 1.000000 1.000000
vt 0.000000 1.000000
vt 0.375000 1.000000
vt 0.010000 0.250000
vt 0.250000 1.000000
vt 0.250000 1.000000
vt 0.625000 1.000000
vt 0.419706 0.080294
vt 0.250000 0.010000
vt 0.500000 1.000000
vt 0.875000 1.000000
vt 0.750000 1.000000
vt 0.250000 0.490000
vt 1.000000 1.000000
vt 0.250000 0.010000
vt 0.500000 1.000000
vt 0.250000 1.000000
vt 0.010000 0.250000
vt 0.080294 0.080294
vt 0.375000 1.000000
vt 0.125000 1.000000
vt 0.080294 0.419706
vt 0.500000 1.000000
vt 0.250000 0.010000
vt 0.490000 0.250000
vt 0.750000 1.000000
vt 0.375000 1.000000
vt 0.080294 0.080294
vt 0.625000 1.000000
vt 0.419706 0.080294
vt 1.000000 1.000000
vt 0.250000 0.490000
vt 0.875000 1.000000
vt 0.419706 0.419706
s 0
f 9/18/7 10/19/7 11/21/7
f 12/24/8 13/25/8 10/19/8
f 14/27/9 15/28/9 13/25/9
f 16/30/10 17/31/10 15/28/10
f 18/33/11 19/34/11 17/31/11
f 20/36/12 21/37/12 19/34/12
f 16/30/13 22/39/13 18/33/13
f 23/40/14 24/41/14 21/37/14
f 25/43/15 11/22/15 24/41/15
f 15/29/16 19/35/16 24/42/16
f 26/45/7 27/46/7 28/47/7
f 23/40/17 29/48/18 25/43/18
f 12/24/19 30/49/19 14/27/19
f 18/33/20 31/50/20 20/36/21
f 25/43/22 26/44/22 9/17/22
f 9/18/23 28/47/23 12/24/24
f 14/27/25 32/51/26 16/30/26
f 23/40/27 31/50/27 33/52/27
f 34/53/28 35/54/29 36/55/29
f 29/48/15 37/56/15 26/44/15
f 31/50/12 34/53/12 33/52/12
f 32/51/10 38/58/10 22/39/10
f 30/49/8 27/46/8 39/59/8
f 33/52/14 36/55/14 29/48/14
f 22/39/11 40/60/11 31/50/11
f 30/49/9 41/61/9 32/51/9
f 42/62/8 43/63/8 44/64/8
f 38/58/30 45/65/31 40/60/32
f 39/59/33 46/66/34 41/61/34
f 37/57/35 42/62/36 27/46/36
f 36/55/37 47/67/37 37/56/37
f 40/60/38 48/69/38 34/53/38
f 41/61/39 49/70/39 38/58/39
f 27/46/40 44/64/40 39/59/40
f 50/71/41 51/73/41 52/74/41
f 48/69/14 53/76/14 35/54/14
f 49/70/11 54/77/11 45/65/11
f 44/64/9 55/78/9 46/66/9
f 47/68/7 56/79/7 42/62/7
f 35/54/15 50/71/15 47/67/15
f 45/65/12 57/80/12 48/69/12
f 46/66/10 58/81/10 49/70/10
f 59/82/42 60/83/42 61/85/42
f 54/77/43 62/86/43 57/80/43
f 55/78/44 63/87/44 58/81/44
f 56/79/45 59/82/45 43/63/45
f 57/80/46 51/73/46 53/76/46
f 58/81/47 64/88/47 54/77/47
f 43/63/48 61/85/48 55/78/48
f 56/79/49 52/75/49 65/89/49
f 66/90/9 67/92/9 68/94/9
f 52/75/42 69/96/42 65/89/42
f 61/85/10 70/98/10 63/87/10
f 60/83/50 71/99/50 61/85/50
f 72/101/12 73/102/12 69/97/12
f 59/82/51 74/105/51 72/100/51
f 62/86/42 66/90/42 51/73/42
f 63/87/42 75/106/42 64/88/42
f 76/108/42 77/109/42 78/113/42
f 79/114/42 80/116/42 81/117/42
f 70/98/42 82/118/42 83/121/42
f 84/122/42 74/105/42 85/123/42
f 52/75/52 77/110/52 86/125/52
f 87/126/15 82/119/15 60/84/15
f 69/96/53 84/122/53 65/89/53
f 64/88/12 81/117/12 62/86/12
f 66/90/54 76/108/54 51/73/54
f 88/129/8 89/130/8 75/107/8
f 75/106/55 79/114/55 64/88/55
f 51/73/15 78/113/15 52/74/15
f 62/86/56 80/116/56 88/128/56
f 86/124/10 90/133/10 66/91/10
f 65/89/8 85/123/8 59/82/8
f 63/87/57 83/121/57 87/127/57
f 67/93/42 91/135/42 92/136/42
f 87/127/7 93/138/7 75/106/7
f 72/100/14 94/140/14 60/83/14
f 69/96/11 95/142/11 96/144/11
f 66/91/10 95/143/10 86/124/10
f 75/107/8 67/93/8 88/129/8
f 60/84/15 91/135/15 87/126/15
f 72/101/12 96/145/12 92/136/12
f 9/18/7 12/24/7 10/19/7
f 12/24/8 14/27/8 13/25/8
f 14/27/9 16/30/9 15/28/9
f 16/30/10 18/33/10 17/31/10
f 18/33/11 20/36/11 19/34/11
f 20/36/12 23/40/12 21/37/12
f 16/30/13 32/51/13 22/39/13
f 23/40/14 25/43/14 24/41/14
f 25/43/15 9/17/15 11/22/15
f 24/42/16 11/23/16 10/20/16
f 10/20/16 13/26/16 15/29/16
f 15/29/16 17/32/16 19/35/16
f 19/35/16 21/38/16 24/42/16
f 24/42/16 10/20/16 15/29/16
f 26/45/7 37/57/7 27/46/7
f 23/40/58 33/52/18 29/48/18
f 12/24/19 28/47/19 30/49/19
f 18/33/20 22/39/59 31/50/20
f 25/43/22 29/48/22 26/44/22
f 9/18/23 26/45/60 28/47/23
f 14/27/61 30/49/26 32/51/26
f 23/40/27 20/36/27 31/50/27
f 34/53/62 48/69/29 35/54/29
f 29/48/15 36/55/15 37/56/15
f 31/50/12 40/60/12 34/53/12
f 32/51/10 41/61/10 38/58/10
f 30/49/8 28/47/8 27/46/8
f 33/52/14 34/53/14 36/55/14
f 22/39/11 38/58/11 40/60/11
f 30/49/9 39/59/9 41/61/9
f 42/62/8 56/79/8 43/63/8
f 38/58/30 49/70/30 45/65/63
f 39/59/64 44/64/34 46/66/34
f 37/57/35 47/68/35 42/62/65
f 36/55/37 35/54/37 47/67/37
f 40/60/38 45/65/38 48/69/38
f 41/61/39 46/66/39 49/70/39
f 27/46/40 42/62/40 44/64/40
f 50/71/41 53/76/41 51/73/41
f 48/69/14 57/80/14 53/76/14
f 49/70/11 58/81/11 54/77/11
f 44/64/9 43/63/9 55/78/9
f 47/68/7 50/72/7 56/79/7
f 35/54/15 53/76/15 50/71/15
f 45/65/12 54/77/12 57/80/12
f 46/66/10 55/78/10 58/81/10
f 59/82/42 72/100/42 60/83/42
f 54/77/43 64/88/43 62/86/43
f 55/78/44 61/85/44 63/87/44
f 56/79/45 65/89/45 59/82/45
f 57/80/46 62/86/46 51/73/46
f 58/81/47 63/87/47 64/88/47
f 43/63/48 59/82/48 61/85/48
f 56/79/49 50/72/49 52/75/49
f 66/90/9 88/128/9 67/92/9
f 52/75/42 86/125/42 69/96/42
f 61/85/10 71/99/10 70/98/10
f 60/83/50 82/118/50 71/99/50
f 72/101/12 74/104/12 73/102/12
f 59/82/51 85/123/51 74/105/51
f 62/86/42 88/128/42 66/90/42
f 63/87/42 87/127/42 75/106/42
f 76/108/42 90/132/42 77/109/42
f 79/114/42 89/131/42 80/116/42
f 70/98/42 71/99/42 82/118/42
f 84/122/42 73/103/42 74/105/42
f 52/75/52 78/112/52 77/110/52
f 87/126/15 83/120/15 82/119/15
f 69/96/53 73/103/66 84/122/53
f 64/88/12 79/114/12 81/117/12
f 66/90/54 90/132/54 76/108/54
f 88/129/8 80/115/8 89/130/8
f 75/106/55 89/131/67 79/114/55
f 51/73/15 76/108/15 78/113/15
f 62/86/56 81/117/56 80/116/56
f 86/124/10 77/111/10 90/133/10
f 65/89/8 84/122/8 85/123/8
f 63/87/57 70/98/57 83/121/57
f 92/136/42 96/145/42 95/143/42
f 95/143/42 68/95/42 67/93/42
f 67/93/42 93/139/42 91/135/42
f 91/135/42 94/141/42 92/136/42
f 92/136/42 95/143/42 67/93/42
f 87/127/7 91/134/7 93/138/7
f 72/100/14 92/137/14 94/140/14
f 69/96/11 86/125/11 95/142/11
f 66/91/10 68/95/10 95/143/10
f 75/107/8 93/139/8 67/93/8
f 60/84/15 94/141/15 91/135/15
f 72/101/12 69/97/12 96/145/12