# Blender 3.6.1
# www.blender.org
o Knight
v 0.190394 0.607788 0.190394
v 0.000000 0.607788 0.269257
v 0.000000 0.292050 0.378411
v 0.267577 0.292050 0.267577
v 0.000000 0.607788 -0.214737
v 0.000000 0.689246 -0.214737
v 0.151842 0.689246 -0.151842
v 0.151842 0.607788 -0.151842
v 0.000000 0.192926 -0.361032
v 0.000000 0.292050 -0.378411
v 0.267577 0.292050 -0.267577
v 0.255288 0.192926 -0.255288
v 0.000000 0.607788 -0.269257
v 0.190394 0.607788 -0.190394
v 0.269257 0.607788 -0.000000
v 0.378411 0.292050 -0.000000
v 0.151842 0.607788 0.151842
v 0.151842 0.689246 0.151842
v 0.000000 0.689246 0.214737
v 0.000000 0.607788 0.214737
v 0.214737 0.607788 -0.000000
v 0.214737 0.689246 -0.000000
v 0.361032 0.192926 -0.000000
v 0.255288 0.192926 0.255288
v 0.000000 0.192926 0.361032
v 0.088642 0.830410 0.217540
v 0.000000 0.897178 0.309708
v 0.000000 0.873265 -0.297524
v 0.200284 0.800611 -0.168122
v 0.254568 0.769595 0.027317
v 0.000000 1.060239 -0.142472
v 0.098496 1.031415 -0.049283
v 0.161036 1.019266 0.083936
v 0.058736 1.050674 0.233634
v 0.000000 1.095638 0.290261
v 0.053653 1.281960 0.121289
v 0.135577 1.213288 0.051056
v 0.147265 1.266866 -0.042419
v 0.117962 1.415215 -0.065905
v 0.081318 1.113113 -0.050123
v 0.000000 1.088920 -0.146370
v 0.000000 1.117600 -0.173471
v 0.130684 1.142334 -0.102900
v 0.000000 1.462699 -0.049377
v 0.103156 1.397772 -0.218744
v 0.000000 1.425949 -0.258052
v 0.160660 1.271343 -0.128650
v 0.141412 1.123729 -0.167338
v 0.072890 1.103484 -0.291761
v 0.103796 1.208121 -0.318574
v 0.090396 1.298578 -0.344810
v 0.000000 1.335058 -0.355715
v 0.068395 1.080521 -0.467760
v 0.070450 1.152447 -0.469051
v 0.000000 1.083568 -0.286997
v 0.000000 1.027393 -0.417483
v 0.043294 1.045441 -0.412630
v 0.000000 1.142698 -0.497282
v 0.000000 1.062180 -0.487572
v 0.000000 1.319904 0.163827
v 0.000000 1.114522 -0.183737
v 0.113602 1.554389 -0.125258
v 0.042354 1.417908 -0.142789
v 0.093956 1.424376 -0.062811
v 0.117928 1.415220 -0.065926
v 0.124049 1.365258 -0.141904
v -0.027189 0.870343 0.243837
v -0.027189 0.853015 0.358179
v -0.018724 0.746609 0.281134
v -0.018724 0.751509 0.177644
v -0.041586 1.424219 -0.062249
v -0.041586 1.553643 -0.019603
v -0.041586 1.428649 0.215002
v -0.041586 1.287294 0.127263
v -0.018940 1.408224 -0.171891
v -0.018940 1.518641 -0.152808
v -0.031090 1.151273 0.350578
v -0.031090 1.058174 0.243030
v 0.026151 0.870343 0.243837
v 0.017685 0.751509 0.177644
v 0.017685 0.746609 0.281134
v 0.026151 0.853015 0.358179
v 0.040548 1.424219 -0.062249
v 0.040548 1.287294 0.127263
v 0.040548 1.428649 0.215002
v 0.040548 1.553643 -0.019603
v 0.017901 1.408224 -0.171891
v 0.017901 1.518641 -0.152808
v 0.030052 1.058174 0.243030
v 0.030052 1.151273 0.350578
v -0.190394 0.607788 0.190394
v -0.267577 0.292050 0.267577
v -0.151842 0.607788 -0.151842
v -0.151842 0.689246 -0.151842
v -0.255288 0.192926 -0.255288
v -0.267577 0.292050 -0.267577
v -0.190394 0.607788 -0.190394
v -0.269257 0.607788 -0.000000
v -0.378411 0.292050 -0.000000
v -0.151842 0.607788 0.151842
v -0.151842 0.689246 0.151842
v -0.214737 0.607788 -0.000000
v -0.214737 0.689246 -0.000000
v -0.361032 0.192926 -0.000000
v -0.255288 0.192926 0.255288
v -0.088642 0.830410 0.217540
v -0.200284 0.800611 -0.168122
v -0.254568 0.769595 0.027317
v -0.098496 1.031415 -0.049283
v -0.161036 1.019266 0.083936
v -0.058736 1.050674 0.233634
v -0.053653 1.281960 0.121289
v -0.117962 1.415215 -0.065905
v -0.147265 1.266866 -0.042419
v -0.135577 1.213288 0.051056
v -0.081318 1.113113 -0.050123
v -0.130684 1.142334 -0.102900
v -0.103156 1.397772 -0.218744
v -0.160660 1.271343 -0.128650
v -0.103796 1.208121 -0.318574
v -0.072890 1.103484 -0.291761
v -0.141412 1.123729 -0.167338
v -0.090396 1.298578 -0.344810
v -0.070450 1.152447 -0.469051
v -0.068395 1.080521 -0.467760
v -0.043294 1.045441 -0.412630
v -0.113602 1.554389 -0.125258
v -0.042354 1.417908 -0.142789
v -0.093956 1.424376 -0.062811
v -0.117928 1.415220 -0.065926
v -0.124049 1.365258 -0.141904
vn 0.3645 0.3043 0.8801
vn 0.3827 -0.0000 -0.9239
vn 0.3778 -0.1599 -0.9120
vn 0.3645 0.3043 -0.8801
vn 0.8801 0.3043 0.3645
vn 0.3827 -0.0000 0.9239
vn 0.9239 -0.0000 0.3827
vn 0.9120 -0.1599 0.3778
vn 0.8801 0.3043 -0.3645
vn 0.9120 -0.1599 -0.3778
vn 0.3778 -0.1599 0.9120
vn 0.9239 -0.0000 -0.3827
vn -0.0000 1.0000 -0.0000
vn 0.5348 -0.3511 0.7686
vn 0.3664 -0.2887 -0.8845
vn 0.8911 -0.3393 -0.3014
vn 0.7589 0.0372 0.6501
vn 0.5833 0.5601 -0.5883
vn 0.8439 0.3978 -0.3599
vn 0.7189 0.0678 0.6918
vn 0.8305 0.0724 0.5523
vn 0.8303 0.0726 0.5526
vn 0.8131 0.2898 0.5049
vn 0.8657 0.1651 0.4726
vn 0.8713 0.1773 0.4576
vn 0.3753 -0.9130 -0.1597
vn 0.3544 -0.9232 -0.1486
vn 0.8848 -0.3580 -0.2981
vn 0.9887 -0.1440 0.0424
vn 0.9868 -0.1574 0.0381
vn 0.9872 -0.1558 0.0331
vn 0.3177 0.9338 -0.1645
vn 0.9340 0.3332 -0.1285
vn 0.9630 -0.0422 -0.2662
vn 0.9656 -0.0612 -0.2527
vn 0.9631 -0.0417 -0.2659
vn 0.8815 0.2945 -0.3692
vn 0.9502 0.2588 -0.1737
vn 0.7861 0.4179 -0.4554
vn 0.3222 0.7011 -0.6361
vn 0.3853 0.6863 -0.6169
vn 0.3856 0.6749 -0.6291
vn 0.9699 0.0549 -0.2373
vn 0.9713 0.0794 -0.2240
vn 0.9708 0.0567 -0.2330
vn 0.3781 -0.8254 0.4193
vn 0.4018 -0.8396 0.3656
vn 0.3958 -0.8164 0.4205
vn 0.9694 -0.2403 -0.0493
vn 0.9628 -0.2635 -0.0602
vn 0.9664 -0.2495 -0.0615
vn 0.2738 0.6284 -0.7281
vn 0.2095 0.5834 -0.7847
vn 0.2102 0.6366 -0.7420
vn 0.8641 -0.2092 -0.4577
vn 0.8587 0.1473 -0.4908
vn 0.8430 -0.0775 -0.5323
vn 0.8363 -0.5032 -0.2178
vn 0.7059 -0.3169 -0.6334
vn 0.7285 -0.5674 -0.3838
vn 0.5109 -0.5706 -0.6430
vn 0.6810 0.1965 -0.7054
vn 0.6890 0.1916 -0.6989
vn 0.7202 0.3407 0.6044
vn 0.8682 0.0300 -0.4953
vn 0.8004 0.5155 0.3060
vn 0.6545 0.6537 0.3799
vn 0.7868 0.5073 0.3515
vn 0.7534 0.3006 0.5848
vn 0.1609 -0.9250 0.3441
vn 0.3257 -0.8671 0.3769
vn 0.2303 -0.9001 0.3698
vn 0.9708 -0.2102 0.1152
vn -0.5100 -0.8141 0.2778
vn 0.9588 -0.1961 0.2055
vn 0.4282 -0.8607 0.2754
vn 0.7536 -0.6552 0.0526
vn -0.0222 -0.9809 0.1932
vn -0.8420 0.3197 0.4345
vn 0.1943 0.3519 0.9156
vn 0.9987 0.0139 0.0495
vn 0.9987 0.0139 0.0494
vn 0.0420 0.0540 -0.9977
vn -0.9974 -0.0715 -0.0108
vn -1.0000 -0.0000 -0.0000
vn -0.9777 0.0358 -0.2072
vn -0.9992 -0.0212 0.0341
vn -0.9999 -0.0128 0.0111
vn 0.9976 -0.0692 -0.0033
vn 1.0000 -0.0000 -0.0000
vn 0.9777 0.0358 -0.2072
vn 0.9991 -0.0318 0.0276
vn 0.9998 -0.0208 -0.0031
vn -0.0000 0.8826 0.4702
vn -0.0000 0.1703 -0.9854
vn -0.0000 0.0255 0.9997
vn -0.0000 -0.9989 -0.0473
vn -0.0000 0.4391 0.8984
vn -0.0000 0.9672 -0.2541
vn -0.0000 -0.5865 0.8100
vn -0.3645 0.3043 0.8801
vn -0.3827 -0.0000 -0.9239
vn -0.3778 -0.1599 -0.9120
vn -0.3645 0.3043 -0.8801
vn -0.8801 0.3043 0.3645
vn -0.3827 -0.0000 0.9239
vn -0.9239 -0.0000 0.3827
vn -0.9120 -0.1599 0.3778
vn -0.8801 0.3043 -0.3645
vn -0.9120 -0.1599 -0.3778
vn -0.3778 -0.1599 0.9120
vn -0.9239 -0.0000 -0.3827
vn -0.3705 -0.2504 0.8944
vn -0.3664 -0.2887 -0.8845
vn -0.8400 -0.4163 -0.3480
vn -0.7964 -0.5069 0.3299
vn -0.5833 0.5601 -0.5883
vn -0.8676 0.4684 -0.1666
vn -0.7380 0.0510 0.6728
vn -0.7682 0.1464 0.6233
vn -0.7678 0.1461 0.6238
vn -0.7681 0.1469 0.6232
vn -0.7242 0.5744 0.3816
vn -0.8117 0.4744 0.3409
vn -0.7221 0.5574 0.4096
vn -0.3544 -0.9232 -0.1486
vn -0.3753 -0.9130 -0.1597
vn -0.8848 -0.3580 -0.2981
vn -0.6995 -0.6563 0.2827
vn -0.6927 -0.6660 0.2767
vn -0.6975 -0.6566 0.2872
vn -0.3528 0.9252 -0.1398
vn -0.9631 0.2157 0.1608
vn -0.9656 -0.0612 -0.2527
vn -0.9630 -0.0422 -0.2664
vn -0.9631 -0.0417 -0.2659
vn -0.9502 0.2588 -0.1737
vn -0.8815 0.2945 -0.3692
vn -0.7861 0.4179 -0.4554
vn -0.3844 0.6952 -0.6074
vn -0.4470 0.6759 -0.5860
vn -0.3848 0.7003 -0.6013
vn -0.9713 0.0797 -0.2241
vn -0.9699 0.0549 -0.2373
vn -0.9708 0.0567 -0.2330
vn -0.4018 -0.8396 0.3656
vn -0.3781 -0.8254 0.4193
vn -0.3958 -0.8164 0.4205
vn -0.9628 -0.2635 -0.0602
vn -0.9694 -0.2403 -0.0493
vn -0.9664 -0.2495 -0.0615
vn -0.3053 0.6533 -0.6929
vn -0.3213 0.6066 -0.7272
vn -0.3113 0.6586 -0.6851
vn -0.8587 0.1473 -0.4908
vn -0.8641 -0.2092 -0.4577
vn -0.8430 -0.0775 -0.5323
vn -0.7059 -0.3169 -0.6334
vn -0.8363 -0.5032 -0.2178
vn -0.7285 -0.5674 -0.3838
vn -0.6810 0.1965 -0.7054
vn -0.5109 -0.5706 -0.6430
vn -0.6890 0.1916 -0.6989
vn -0.7702 0.2923 0.5668
vn -0.8961 0.1843 -0.4039
vn -0.6545 0.6537 0.3799
vn -0.8004 0.5155 0.3060
vn -0.7868 0.5073 0.3515
vn -0.8282 0.1976 0.5245
vn -0.0503 -0.9643 0.2600
vn 0.0022 -0.9685 0.2489
vn 0.0637 -0.9537 0.2939
vn -0.9586 -0.2746 0.0750
vn 0.2912 -0.5508 -0.7821
vn -0.8432 -0.3517 0.4066
vn -0.0266 -0.9921 -0.1223
vn -0.5735 -0.4780 0.6653
vn 0.1305 -0.8396 -0.5272
vn 0.8420 0.3197 0.4345
vn -0.1943 0.3519 0.9156
vn -0.9987 0.0139 0.0495
vn -0.9987 0.0139 0.0494
vn -0.0420 0.0540 -0.9977
vn 0.3775 -0.1601 0.9121
vn 0.3705 -0.2504 0.8944
vn 0.4030 -0.3755 -0.8346
vn 0.8400 -0.4163 -0.3480
vn 0.7964 -0.5069 0.3299
vn 0.6751 0.4709 -0.5679
vn 0.8676 0.4684 -0.1666
vn 0.7380 0.0510 0.6728
vn 0.7682 0.1464 0.6233
vn 0.7677 0.1461 0.6239
vn 0.7242 0.5744 0.3816
vn 0.7221 0.5574 0.4096
vn 0.8117 0.4744 0.3409
vn 0.4217 -0.6433 -0.6390
vn 0.4023 -0.6416 -0.6530
vn 0.4094 -0.6068 -0.6813
vn 0.6995 -0.6563 0.2827
vn 0.6975 -0.6566 0.2872
vn 0.6927 -0.6660 0.2767
vn 0.3528 0.9252 -0.1398
vn 0.9631 0.2157 0.1608
vn 0.8399 -0.3467 -0.4176
vn 0.8417 -0.3686 -0.3945
vn 0.8388 -0.3699 -0.3994
vn 0.9063 0.0455 -0.4203
vn 0.9663 -0.1704 -0.1931
vn 0.9750 -0.0120 -0.2217
vn 0.3844 0.6952 -0.6074
vn 0.3848 0.7003 -0.6013
vn 0.4470 0.6759 -0.5860
vn 0.9810 -0.0420 -0.1893
vn 0.9787 -0.0497 -0.1994
vn 0.9775 -0.0506 -0.2050
vn 0.4282 -0.8579 0.2841
vn 0.4673 -0.7998 0.3767
vn 0.4010 -0.7900 0.4638
vn 0.8348 -0.5501 -0.0228
vn 0.8749 -0.4841 -0.0128
vn 0.8768 -0.4808 0.0019
vn 0.3053 0.6533 -0.6929
vn 0.3113 0.6586 -0.6851
vn 0.3213 0.6066 -0.7272
vn 0.7523 0.2926 -0.5903
vn 0.7413 0.0647 -0.6680
vn 0.7352 -0.4232 -0.5295
vn 0.6238 -0.3233 -0.7116
vn 0.5439 -0.4613 -0.7010
vn 0.8945 -0.4162 -0.1630
vn 0.7880 -0.6063 -0.1072
vn 0.6166 -0.5585 -0.5548
vn 0.7835 -0.0274 -0.6208
vn 0.7702 0.2923 0.5668
vn 0.8961 0.1843 -0.4039
vn 0.4602 0.6049 0.6498
vn 0.2882 0.7235 0.6273
vn 0.2737 0.7159 0.6423
vn 0.8282 0.1976 0.5245
vn 0.0503 -0.9643 0.2600
vn -0.0637 -0.9537 0.2939
vn -0.0022 -0.9685 0.2489
vn 0.9586 -0.2746 0.0750
vn 0.8432 -0.3517 0.4066
vn -0.2912 -0.5508 -0.7821
vn 0.0266 -0.9921 -0.1223
vn -0.1305 -0.8396 -0.5272
vn 0.5735 -0.4780 0.6653
vn -0.9976 -0.0692 -0.0033
vn -0.9813 0.0602 -0.1826
vn -0.9991 -0.0318 0.0276
vn -0.9998 -0.0208 -0.0031
vn 0.9974 -0.0715 -0.0108
vn 0.9813 0.0602 -0.1827
vn 0.9992 -0.0212 0.0341
vn 0.9999 -0.0128 0.0111
vn -0.3775 -0.1601 0.9121
vn -0.9240 -0.0004 -0.3823
vn -0.5348 -0.3511 0.7686
vn -0.4030 -0.3755 -0.8346
vn -0.8911 -0.3393 -0.3014
vn -0.7589 0.0372 0.6501
vn -0.6751 0.4709 -0.5679
vn -0.8439 0.3978 -0.3599
vn -0.7189 0.0678 0.6918
vn -0.8305 0.0724 0.5523
vn -0.8303 0.0726 0.5526
vn -0.8131 0.2898 0.5049
vn -0.8713 0.1773 0.4576
vn -0.8657 0.1651 0.4726
vn -0.4094 -0.6068 -0.6813
vn -0.4023 -0.6416 -0.6530
vn -0.4217 -0.6433 -0.6390
vn -0.9887 -0.1440 0.0424
vn -0.9872 -0.1558 0.0331
vn -0.9868 -0.1574 0.0381
vn -0.3177 0.9338 -0.1645
vn -0.9340 0.3332 -0.1285
vn -0.8388 -0.3699 -0.3994
vn -0.8417 -0.3686 -0.3945
vn -0.8398 -0.3469 -0.4177
vn -0.9750 -0.0120 -0.2217
vn -0.9663 -0.1704 -0.1931
vn -0.9063 0.0455 -0.4203
vn -0.3222 0.7011 -0.6361
vn -0.3856 0.6749 -0.6291
vn -0.3853 0.6863 -0.6169
vn -0.9775 -0.0506 -0.2047
vn -0.9787 -0.0497 -0.1994
vn -0.9810 -0.0420 -0.1893
vn -0.4010 -0.7900 0.4638
vn -0.4673 -0.7998 0.3767
vn -0.4282 -0.8579 0.2841
vn -0.8768 -0.4808 0.0019
vn -0.8749 -0.4841 -0.0128
vn -0.8348 -0.5501 -0.0228
vn -0.2738 0.6284 -0.7281
vn -0.2102 0.6366 -0.7420
vn -0.2095 0.5834 -0.7847
vn -0.7352 -0.4232 -0.5295
vn -0.7413 0.0647 -0.6680
vn -0.7523 0.2926 -0.5903
vn -0.8945 -0.4162 -0.1630
vn -0.5439 -0.4613 -0.7010
vn -0.6238 -0.3233 -0.7116
vn -0.7835 -0.0274 -0.6208
vn -0.6166 -0.5585 -0.5548
vn -0.7880 -0.6063 -0.1072
vn -0.7202 0.3407 0.6044
vn -0.8682 0.0300 -0.4953
vn -0.2737 0.7159 0.6423
vn -0.2882 0.7235 0.6273
vn -0.4602 0.6049 0.6498
vn -0.7534 0.3006 0.5848
vn -0.1609 -0.9250 0.3441
vn -0.2303 -0.9001 0.3698
vn -0.3257 -0.8671 0.3769
vn -0.9708 -0.2102 0.1152
vn -0.9588 -0.1961 0.2055
vn 0.5100 -0.8141 0.2778
vn -0.4282 -0.8607 0.2754
vn 0.0222 -0.9809 0.1932
vn -0.7536 -0.6552 0.0526
vt 0.500000 1.000000
vt 0.625000 0.750000
vt 0.625000 1.000000
vt 1.000000 1.000000
vt 0.875000 1.000000
vt 1.000000 0.750000
vt 0.875000 0.500000
vt 1.000000 0.500000
vt 0.750000 1.000000
vt 0.750000 0.750000
vt 0.625000 0.500000
vt 0.750000 0.500000
vt 0.875000 0.750000
vt 0.500000 0.750000
vt 0.000000 1.000000
vt 0.562500 1.000000
vt 0.000000 0.000000
vt 0.500000 0.500000
s 0
f 2/1/1 4/2/1 1/3/1
f 6/4/2 8/5/2 5/4/2
f 10/6/3 12/7/3 9/8/3
f 14/5/4 10/6/4 13/4/4
f 15/9/5 4/2/5 16/10/5
f 18/3/6 20/1/6 17/3/6
f 22/9/7 17/3/7 21/9/7
f 16/10/8 24/11/8 23/12/8
f 14/5/9 16/10/9 11/13/9
f 16/10/10 12/7/10 11/13/10
f 3/14/11 24/11/11 4/2/11
f 7/5/12 21/9/12 8/5/12
f 15/9/13 8/5/13 21/9/13
f 17/3/13 15/9/13 21/9/13
f 17/3/13 2/1/13 1/3/13
f 19/1/14 26/3/14 27/1/14
f 6/4/15 29/5/15 7/5/15
f 22/9/16 29/5/16 30/9/16
f 18/3/17 30/9/17 26/3/17
f 28/4/18 32/5/18 29/5/18
f 30/9/19 32/5/19 33/9/19
f 27/1/20 34/3/20 35/1/20
f 26/3/21 33/9/22 34/3/21
f 36/3/23 38/9/24 39/3/25
f 41/4/26 43/5/27 40/5/28
f 37/9/29 43/5/30 38/9/31
f 44/1/32 45/3/32 46/1/32
f 39/3/33 47/9/33 45/3/33
f 48/5/34 50/9/35 47/9/36
f 47/9/37 51/3/38 45/3/39
f 46/1/40 51/3/41 52/1/42
f 50/9/43 54/3/44 51/3/45
f 55/4/46 57/5/47 49/5/48
f 49/5/49 53/9/50 50/9/51
f 52/1/52 54/3/53 58/1/54
f 53/9/55 58/3/56 54/3/57
f 57/5/58 59/9/59 53/9/60
f 8/5/13 13/15/13 5/4/13
f 31/4/61 40/5/62 32/5/63
f 35/1/64 36/3/64 60/1/64
f 33/9/65 40/5/65 37/9/65
f 36/3/66 44/1/67 60/1/68
f 34/3/69 37/9/69 36/3/69
f 49/5/70 61/4/71 55/4/72
f 47/9/73 43/5/74 48/5/75
f 42/4/76 48/5/77 43/5/78
f 63/16/79 64/16/79 62/16/79
f 64/16/80 65/3/80 62/16/80
f 65/3/81 66/3/82 62/3/81
f 66/3/83 63/16/83 62/3/83
f 67/17/84 69/17/84 68/17/84
f 71/17/85 73/17/85 72/17/85
f 71/17/86 76/17/86 75/17/86
f 74/17/87 77/17/87 73/17/87
f 78/17/88 68/17/88 77/17/88
f 79/17/89 81/17/89 80/17/89
f 83/17/90 85/17/90 84/17/90
f 88/17/91 83/17/91 87/17/91
f 84/17/92 90/17/92 89/17/92
f 89/17/93 82/17/93 79/17/93
f 85/17/94 72/17/94 73/17/94
f 88/17/95 75/17/95 76/17/95
f 82/17/96 77/17/96 68/17/96
f 80/17/97 69/17/97 70/17/97
f 90/17/98 73/17/98 77/17/98
f 72/17/99 88/17/99 76/17/99
f 81/17/100 68/17/100 69/17/100
f 91/3/101 3/14/101 2/1/101
f 93/5/102 6/4/102 5/4/102
f 95/7/103 10/6/103 9/8/103
f 10/6/104 97/5/104 13/4/104
f 99/10/105 91/3/105 98/9/105
f 20/1/106 101/3/106 100/3/106
f 100/3/107 103/9/107 102/9/107
f 105/11/108 99/10/108 104/12/108
f 96/13/109 98/9/109 97/5/109
f 95/7/110 99/10/110 96/13/110
f 105/11/111 3/14/111 92/2/111
f 102/9/112 94/5/112 93/5/112
f 93/5/13 98/9/13 102/9/13
f 98/9/13 100/3/13 102/9/13
f 100/3/13 2/1/13 20/1/13
f 19/1/113 106/3/113 101/3/113
f 107/5/114 6/4/114 94/5/114
f 103/9/115 107/5/115 94/5/115
f 101/3/116 108/9/116 103/9/116
f 109/5/117 28/4/117 107/5/117
f 108/9/118 109/5/118 107/5/118
f 27/1/119 111/3/119 106/3/119
f 106/3/120 110/9/121 108/9/122
f 112/3/123 114/9/124 115/9/125
f 117/5/126 41/4/127 116/5/128
f 115/9/129 117/5/130 116/5/131
f 44/1/132 118/3/132 113/3/132
f 113/3/133 119/9/133 114/9/133
f 120/9/134 122/5/135 119/9/136
f 123/3/137 119/9/138 118/3/139
f 46/1/140 123/3/141 118/3/142
f 124/3/143 120/9/144 123/3/145
f 126/5/146 55/4/147 121/5/148
f 125/9/149 121/5/150 120/9/151
f 52/1/152 124/3/153 123/3/154
f 58/3/155 125/9/156 124/3/157
f 59/9/158 126/5/159 125/9/160
f 93/5/13 13/15/13 97/5/13
f 116/5/161 31/4/162 109/5/163
f 35/1/164 112/3/164 111/3/164
f 110/9/165 116/5/165 109/5/165
f 44/1/166 112/3/167 60/1/168
f 111/3/169 115/9/169 110/9/169
f 121/5/170 61/4/171 122/5/172
f 119/9/173 117/5/174 114/9/175
f 42/4/176 122/5/177 61/4/178
f 128/16/179 127/16/179 129/16/179
f 129/16/180 127/3/180 130/3/180
f 130/3/181 127/3/181 131/3/182
f 131/3/183 127/16/183 128/16/183
f 2/1/1 3/14/1 4/2/1
f 6/4/2 7/5/2 8/5/2
f 10/6/3 11/13/3 12/7/3
f 14/5/4 11/13/4 10/6/4
f 15/9/5 1/3/5 4/2/5
f 18/3/6 19/1/6 20/1/6
f 22/9/7 18/3/7 17/3/7
f 16/10/8 4/2/8 24/11/8
f 14/5/9 15/9/9 16/10/9
f 16/10/10 23/12/10 12/7/10
f 3/14/11 25/18/184 24/11/11
f 7/5/12 22/9/12 21/9/12
f 15/9/13 14/5/13 8/5/13
f 17/3/13 1/3/13 15/9/13
f 17/3/13 20/1/13 2/1/13
f 19/1/185 18/3/185 26/3/185
f 6/4/186 28/4/186 29/5/186
f 22/9/187 7/5/187 29/5/187
f 18/3/188 22/9/188 30/9/188
f 28/4/189 31/4/189 32/5/189
f 30/9/190 29/5/190 32/5/190
f 27/1/191 26/3/191 34/3/191
f 26/3/192 30/9/192 33/9/193
f 36/3/194 37/9/195 38/9/196
f 41/4/197 42/4/198 43/5/199
f 37/9/200 40/5/201 43/5/202
f 44/1/203 39/3/203 45/3/203
f 39/3/204 38/9/204 47/9/204
f 48/5/205 49/5/206 50/9/207
f 47/9/208 50/9/209 51/3/210
f 46/1/211 45/3/212 51/3/213
f 50/9/214 53/9/215 54/3/216
f 55/4/217 56/4/218 57/5/219
f 49/5/220 57/5/221 53/9/222
f 52/1/223 51/3/224 54/3/225
f 53/9/226 59/9/227 58/3/228
f 57/5/229 56/5/230 59/9/231
f 8/5/13 14/5/13 13/15/13
f 31/4/232 41/4/233 40/5/234
f 35/1/235 34/3/235 36/3/235
f 33/9/236 32/5/236 40/5/236
f 36/3/237 39/3/238 44/1/239
f 34/3/240 33/9/240 37/9/240
f 49/5/241 48/5/242 61/4/243
f 47/9/244 38/9/245 43/5/246
f 42/4/247 61/4/248 48/5/249
f 67/17/250 70/17/250 69/17/250
f 71/17/85 74/17/85 73/17/85
f 71/17/251 72/17/251 76/17/251
f 74/17/252 78/17/252 77/17/252
f 78/17/253 67/17/253 68/17/253
f 79/17/254 82/17/254 81/17/254
f 83/17/90 86/17/90 85/17/90
f 88/17/255 86/17/255 83/17/255
f 84/17/256 85/17/256 90/17/256
f 89/17/257 90/17/257 82/17/257
f 85/17/94 86/17/94 72/17/94
f 88/17/95 87/17/95 75/17/95
f 82/17/96 90/17/96 77/17/96
f 80/17/97 81/17/97 69/17/97
f 90/17/98 85/17/98 73/17/98
f 72/17/99 86/17/99 88/17/99
f 81/17/100 82/17/100 68/17/100
f 91/3/101 92/2/101 3/14/101
f 93/5/102 94/5/102 6/4/102
f 95/7/103 96/13/103 10/6/103
f 10/6/104 96/13/104 97/5/104
f 99/10/105 92/2/105 91/3/105
f 20/1/106 19/1/106 101/3/106
f 100/3/107 101/3/107 103/9/107
f 105/11/108 92/2/108 99/10/108
f 96/13/109 99/10/109 98/9/109
f 95/7/110 104/12/110 99/10/110
f 105/11/111 25/18/258 3/14/111
f 102/9/112 103/9/259 94/5/112
f 93/5/13 97/5/13 98/9/13
f 98/9/13 91/3/13 100/3/13
f 100/3/13 91/3/13 2/1/13
f 19/1/260 27/1/260 106/3/260
f 107/5/261 28/4/261 6/4/261
f 103/9/262 108/9/262 107/5/262
f 101/3/263 106/3/263 108/9/263
f 109/5/264 31/4/264 28/4/264
f 108/9/265 110/9/265 109/5/265
f 27/1/266 35/1/266 111/3/266
f 106/3/267 111/3/267 110/9/268
f 112/3/269 113/3/270 114/9/271
f 117/5/272 42/4/273 41/4/274
f 115/9/275 114/9/276 117/5/277
f 44/1/278 46/1/278 118/3/278
f 113/3/279 118/3/279 119/9/279
f 120/9/280 121/5/281 122/5/282
f 123/3/283 120/9/284 119/9/285
f 46/1/286 52/1/287 123/3/288
f 124/3/289 125/9/290 120/9/291
f 126/5/292 56/4/293 55/4/294
f 125/9/295 126/5/296 121/5/297
f 52/1/298 58/1/299 124/3/300
f 58/3/301 59/9/302 125/9/303
f 59/9/304 56/5/305 126/5/306
f 93/5/13 5/4/13 13/15/13
f 116/5/307 41/4/308 31/4/309
f 35/1/310 60/1/310 112/3/310
f 110/9/311 115/9/311 116/5/311
f 44/1/312 113/3/313 112/3/314
f 111/3/315 112/3/315 115/9/315
f 121/5/316 55/4/317 61/4/318
f 119/9/319 122/5/320 117/5/321
f 42/4/322 117/5/323 122/5/324
o Base
v -0.500000 -0.000000 -0.500000
v -0.500000 0.000000 0.500000
v -0.500000 0.187500 0.500000
v -0.500000 0.187500 -0.500000
v 0.500000 0.000000 0.500000
v 0.500000 0.187500 0.500000
v 0.500000 -0.000000 -0.500000
v 0.500000 0.187500 -0.500000
vn -1.0000 -0.0000 -0.0000
vn -0.0000 -0.0000 1.0000
vn -0.0000 -0.0000 -1.0000
vn 1.0000 -0.0000 -0.0000
vn -0.0000 -1.0000 -0.0000
vn -0.0000 1.0000 -0.0000
vt 0.000000 0.851563
vt 0.125000 0.875000
vt 0.125000 0.851563
vt 0.375000 0.851563
vt 0.500000 0.875000
vt 0.500000 0.851563
vt 0.250000 0.875000
vt 0.250000 0.851563
vt 0.375000 0.875000
vt 0.375000 1.000000
vt 0.250000 1.000000
vt 0.000000 0.875000
vt 0.125000 1.000000
s 0
f 133/19/325 135/20/325 132/21/325
f 136/22/326 134/23/326 133/24/326
f 132/21/327 139/25/327 138/26/327
f 138/26/328 137/27/328 136/22/328
f 133/25/329 138/28/329 136/27/329
f 135/20/330 137/29/330 139/25/330
f 133/19/325 134/30/325 135/20/325
f 136/22/326 137/27/326 134/23/326
f 132/21/327 135/20/327 139/25/327
f 138/26/328 139/25/328 137/27/328
f 133/25/329 132/29/329 138/28/329
f 135/20/330 134/31/330 137/29/330
