# Blender 3.1.0
# www.blender.org
o Base.004
v -0.500000 0.000000 -0.500000
v 0.500000 0.187500 -0.500000
v 0.500000 0.000000 -0.500000
v 0.500000 -0.000000 0.500000
v -0.500000 0.187500 0.500000
v -0.500000 -0.000000 0.500000
v -0.500000 0.187500 -0.500000
v 0.500000 0.187500 0.500000
vn -0.0000 -0.0000 -1.0000
vn -0.0000 -0.0000 1.0000
vn -0.0000 1.0000 -0.0000
vn -0.0000 -1.0000 -0.0000
vn 1.0000 -0.0000 -0.0000
vn -1.0000 -0.0000 -0.0000
vt 0.250000 0.210938
vt 0.375000 0.359375
vt 0.125000 0.234375
vt 0.250000 0.359375
vt 0.125000 0.210938
vt 0.250000 0.234375
vt 0.000000 0.210938
vt 0.500000 0.210938
vt 0.250000 0.359375
vt 0.375000 0.234375
vt 0.375000 0.234375
vt 0.375000 0.210938
vt 0.250000 0.234375
vt 0.500000 0.234375
vt 0.125000 0.359375
vt 0.000000 0.234375
s off
f 1/1/1 2/3/1 3/5/1
f 4/8/2 5/10/2 6/12/2
f 7/13/3 8/15/3 2/3/3
f 6/11/4 3/4/4 4/6/4
f 3/5/5 8/16/5 4/7/5
f 6/12/6 7/13/6 1/1/6
f 1/1/1 7/13/1 2/3/1
f 4/8/2 8/14/2 5/10/2
f 7/13/3 5/9/3 8/15/3
f 6/11/4 1/2/4 3/4/4
f 3/5/5 2/3/5 8/16/5
f 6/12/6 5/10/6 7/13/6
o Cube.003
v -0.127987 0.910610 0.000000
v -0.184908 0.360866 -0.186774
v -0.278295 0.360866 0.000000
v 0.007596 0.910610 -0.135583
v 0.188640 0.360866 -0.186774
v 0.001866 0.360866 -0.280161
v 0.143179 0.910610 0.000000
v 0.188640 0.360866 0.186774
v 0.282027 0.360866 0.000000
v 0.007596 0.910610 0.135583
v -0.184908 0.360866 0.186774
v 0.001866 0.360866 0.280161
v 0.187077 0.306779 -0.185775
v 0.001302 0.306757 -0.278668
v 0.149175 0.910610 0.141579
v 0.007596 0.910610 0.212369
v 0.097985 0.910610 0.090389
v 0.001302 0.306757 0.278668
v -0.184481 0.306734 0.185783
v 0.279962 0.306788 0.000000
v 0.187077 0.306779 0.185775
v -0.133983 0.910610 0.141579
v -0.204773 0.910610 0.000000
v 0.149175 0.910610 -0.141579
v 0.219965 0.910610 0.000000
v -0.204773 0.986571 0.000000
v -0.133983 0.986571 -0.141579
v -0.133983 0.910610 -0.141579
v 0.149175 0.986571 0.141579
v 0.007596 0.986571 -0.212369
v 0.007596 0.910610 -0.212369
v -0.082793 0.910610 -0.090389
v -0.082793 0.910610 0.090389
v 0.097985 0.910610 -0.090389
v -0.116500 0.986571 0.000000
v -0.075134 0.986571 -0.082730
v 0.131692 0.986571 0.000000
v 0.090326 0.986571 0.082730
v 0.007596 0.986571 -0.124096
v 0.149175 0.986571 -0.141579
v 0.219965 0.986571 0.000000
v 0.007596 0.986571 0.212369
v -0.133983 0.986571 0.141579
v 0.090326 0.986571 -0.082730
v 0.131692 1.009359 0.000000
v 0.090326 1.009359 -0.082730
v 0.007596 0.986571 0.124096
v -0.075134 1.009359 0.082730
v -0.075134 0.986571 0.082730
v 0.007596 1.009359 0.124096
v -0.123963 1.070127 0.131559
v 0.139156 1.070127 0.131559
v 0.007596 1.070127 0.197339
v -0.116500 1.009359 0.000000
v -0.189743 1.070127 0.000000
v -0.123963 1.070127 -0.131559
v -0.075134 1.009359 -0.082730
v 0.007596 1.009359 -0.124096
v 0.090326 1.009359 0.082730
v -0.189743 1.225846 0.000000
v -0.123963 1.225846 -0.131559
v 0.204935 1.070127 0.000000
v 0.139156 1.225846 0.131559
v 0.007596 1.225846 -0.197339
v 0.007596 1.070127 -0.197339
v 0.139156 1.070127 -0.131559
v 0.149066 1.282817 0.000000
v 0.101910 1.282817 0.094314
v 0.007596 1.282817 -0.141470
v 0.139156 1.225846 -0.131559
v 0.204935 1.225846 0.000000
v 0.101910 1.282817 -0.094313
v 0.007596 1.225846 0.197339
v -0.123963 1.225846 0.131559
v 0.007596 1.282817 0.000000
v -0.086717 1.282817 0.094314
v 0.007596 1.282817 0.141470
v -0.086717 1.282817 -0.094313
v -0.133874 1.282817 0.000000
v 0.000000 0.181837 0.000000
v -0.188998 0.155523 0.189032
v -0.283514 0.155523 0.000000
v 0.189065 0.155523 -0.189032
v 0.000034 0.155523 -0.283547
v -0.188998 0.155523 -0.189032
v 0.189065 0.155523 0.189032
v 0.000034 0.155523 0.283547
v -0.184481 0.306734 -0.185783
v -0.277375 0.306725 0.000000
v -0.224128 0.245904 0.000000
v 0.000668 0.245920 -0.224792
v 0.225456 0.245936 0.000000
v 0.000668 0.245920 0.224792
v 0.150527 0.245931 -0.149859
v -0.149196 0.245909 0.149863
v -0.149196 0.245909 -0.149863
v 0.150527 0.245931 0.149859
v 0.283581 0.155523 0.000000
vn -0.8688 0.2375 -0.4344
vn 0.4365 0.2245 -0.8713
vn 0.4358 0.2247 -0.8716
vn 0.8724 0.2204 0.4362
vn -0.4349 0.2333 0.8698
vn -0.4351 0.2334 0.8696
vn 0.4470 -0.0293 -0.8940
vn 0.4470 -0.0294 -0.8940
vn -0.0000 -1.0000 -0.0000
vn -0.4471 -0.0200 0.8943
vn -0.4471 -0.0199 0.8943
vn -0.4464 -0.0191 0.8946
vn 0.4358 0.2247 0.8716
vn 0.4366 0.2245 0.8712
vn 0.4363 0.2245 0.8713
vn -0.4349 0.2333 -0.8698
vn 0.8939 -0.0341 0.4470
vn 0.8939 -0.0341 0.4469
vn 0.8724 0.2204 -0.4362
vn -0.8688 0.2375 0.4344
vn -0.8686 0.2374 0.4348
vn -0.8944 -0.0000 0.4472
vn -0.8944 -0.0000 -0.4472
vn 0.8944 -0.0000 0.4472
vn -0.4472 -0.0000 -0.8944
vn -0.0000 1.0000 -0.0000
vn 0.4472 -0.0000 0.8944
vn -0.4472 -0.0000 0.8944
vn 0.4472 -0.0000 -0.8944
vn 0.8944 -0.0000 -0.4472
vn -0.4478 -0.0000 0.8941
vn -0.3041 -0.7331 0.6083
vn 0.3041 -0.7331 0.6083
vn -0.6084 -0.7328 0.3048
vn -0.6084 -0.7329 0.3046
vn -0.6083 -0.7330 0.3044
vn -0.6083 -0.7329 -0.3047
vn -0.6084 -0.7329 -0.3046
vn -0.8940 -0.0000 -0.4480
vn -0.8940 -0.0000 0.4480
vn 0.3041 -0.7331 -0.6083
vn 0.3041 -0.7332 -0.6083
vn 0.6084 -0.7327 -0.3050
vn 0.6083 -0.7332 -0.3041
vn 0.6083 -0.7331 -0.3041
vn -0.3041 -0.7331 -0.6083
vn 0.6084 -0.7327 0.3050
vn 0.6083 -0.7332 0.3041
vn 0.6724 0.6594 0.3362
vn 0.6723 0.6598 0.3357
vn -0.3358 0.6597 -0.6724
vn -0.3356 0.6598 -0.6724
vn 0.6724 0.6594 -0.3362
vn 0.6723 0.6599 -0.3354
vn 0.3358 0.6597 -0.6724
vn 0.3362 0.6594 -0.6724
vn 0.3356 0.6597 -0.6724
vn -0.6724 0.6596 -0.3359
vn -0.6724 0.6597 -0.3358
vn -0.6724 0.6594 -0.3362
vn -0.6723 0.6599 0.3355
vn -0.6724 0.6594 0.3362
vn -0.6724 0.6596 0.3359
vn 0.3356 0.6597 0.6724
vn 0.3362 0.6594 0.6724
vn 0.3358 0.6597 0.6724
vn -0.3362 0.6594 0.6724
vn -0.3356 0.6598 0.6723
vn 0.0923 -0.9947 -0.0462
vn -0.0464 -0.9947 0.0920
vn -0.0462 -0.9947 0.0923
vn 0.0923 -0.9947 0.0462
vn -0.0464 -0.9947 -0.0920
vn -0.8943 -0.0152 -0.4472
vn -0.8942 -0.0151 -0.4475
vn 0.4470 -0.0294 0.8940
vn 0.4470 -0.0293 0.8940
vn 0.8939 -0.0341 -0.4469
vn 0.8939 -0.0341 -0.4470
vn 0.8939 -0.0334 -0.4470
vn -0.4471 -0.0199 -0.8943
vn -0.4471 -0.0200 -0.8943
vn -0.7042 -0.6165 0.3521
vn -0.3513 -0.6187 -0.7027
vn 0.6980 -0.6253 -0.3490
vn 0.6983 -0.6252 -0.3486
vn 0.3499 -0.6231 0.6995
vn 0.3498 -0.6231 0.6996
vn 0.3499 -0.6231 -0.6995
vn 0.3498 -0.6231 -0.6996
vn -0.3513 -0.6187 0.7027
vn -0.7042 -0.6165 -0.3521
vn 0.6980 -0.6253 0.3490
vn 0.6983 -0.6252 0.3485
vn -0.8943 -0.0152 0.4472
vn -0.8940 -0.0149 0.4477
vn -0.8942 -0.0151 0.4475
vn 0.7754 0.4985 0.3877
vn -0.7711 0.5067 -0.3856
vn -0.3858 0.5046 0.7723
vn -0.3857 0.5046 0.7724
vn -0.3861 0.5046 0.7722
vn 0.3871 0.5005 -0.7743
vn 0.3872 0.5006 -0.7743
vn 0.3871 0.5005 0.7743
vn 0.3872 0.5006 0.7743
vn 0.7754 0.4985 -0.3877
vn -0.3858 0.5046 -0.7723
vn -0.3857 0.5046 -0.7724
vn -0.3861 0.5046 -0.7722
vn -0.7711 0.5067 0.3856
vn -0.4469 -0.0202 0.8944
vn 0.8722 0.2206 -0.4365
vn -0.8942 -0.0000 0.4476
vn -0.8942 -0.0000 -0.4476
vn 0.8942 -0.0000 0.4476
vn -0.4476 -0.0000 -0.8942
vn 0.4476 -0.0000 0.8942
vn 0.8942 -0.0000 -0.4476
vn 0.3041 -0.7332 0.6083
vn -0.6084 -0.7328 0.3047
vn -0.6083 -0.7330 -0.3044
vn 0.6083 -0.7331 0.3041
vn 0.6723 0.6599 0.3355
vn -0.3362 0.6594 -0.6724
vn -0.6724 0.6597 0.3357
vn 0.0464 -0.9947 -0.0919
vn -0.0923 -0.9947 0.0461
vn 0.0466 -0.9947 0.0918
vn -0.0923 -0.9947 -0.0461
vn -0.4471 -0.0200 -0.8942
vn 0.6983 -0.6252 -0.3485
vn 0.6983 -0.6252 0.3486
vt 0.625000 0.125000
vt 0.436414 0.250000
vt 0.436414 0.125000
vt 0.625000 0.375000
vt 0.436414 0.500000
vt 0.436414 0.375000
vt 0.625000 0.625000
vt 0.436414 0.750000
vt 0.436414 0.625000
vt 0.625000 0.875000
vt 0.436414 1.000000
vt 0.436414 0.000000
vt 0.436414 0.875000
vt 0.418974 0.500000
vt 0.370461 0.500000
vt 0.242887 0.500000
vt 0.418966 0.375000
vt 0.258337 0.500000
vt 0.625000 0.750000
vt 0.625000 0.875000
vt 0.625000 0.750000
vt 0.258337 0.750000
vt 0.418966 0.875000
vt 0.242887 0.750000
vt 0.418958 1.000000
vt 0.125000 0.745157
vt 0.130761 0.750000
vt 0.418958 0.000000
vt 0.418977 0.625000
vt 0.370461 0.750000
vt 0.418974 0.750000
vt 0.625000 0.000000
vt 0.625000 1.000000
vt 0.625000 0.125000
vt 0.625000 0.500000
vt 0.625000 0.625000
vt 0.625000 0.125000
vt 0.625000 0.250000
vt 0.625000 0.250000
vt 0.625000 0.750000
vt 0.625000 0.375000
vt 0.625000 0.375000
vt 0.625000 0.250000
vt 0.625000 1.000000
vt 0.625000 0.000000
vt 0.625000 0.500000
vt 0.625000 0.125000
vt 0.625000 0.250000
vt 0.625000 0.625000
vt 0.625000 0.750000
vt 0.625000 0.375000
vt 0.625000 0.500000
vt 0.625000 0.625000
vt 0.625000 0.875000
vt 0.625000 0.000000
vt 0.625000 1.000000
vt 0.625000 0.500000
vt 0.625000 0.625000
vt 0.625000 0.500000
vt 0.625000 0.875000
vt 0.625000 1.000000
vt 0.625000 0.000000
vt 0.625000 1.000000
vt 0.625000 0.000000
vt 0.625000 0.875000
vt 0.625000 1.000000
vt 0.625000 0.000000
vt 0.625000 0.750000
vt 0.625000 0.875000
vt 0.625000 0.125000
vt 0.625000 0.125000
vt 0.625000 0.250000
vt 0.625000 0.250000
vt 0.625000 0.375000
vt 0.625000 0.750000
vt 0.625000 0.125000
vt 0.625000 0.250000
vt 0.625000 0.625000
vt 0.625000 0.750000
vt 0.625000 0.375000
vt 0.625000 0.375000
vt 0.625000 0.500000
vt 0.625000 0.625000
vt 0.625000 0.750000
vt 0.625000 0.375000
vt 0.750000 0.500000
vt 0.625000 0.500000
vt 0.625000 0.625000
vt 0.625000 0.500000
vt 0.625000 0.875000
vt 0.625000 0.000000
vt 0.625000 1.000000
vt 0.750000 0.625000
vt 0.625000 1.000000
vt 0.875000 0.750000
vt 0.625000 0.000000
vt 0.750000 0.750000
vt 0.625000 0.875000
vt 0.625000 0.250000
vt 0.875000 0.500000
vt 0.875000 0.625000
vt 0.625000 0.125000
vt 0.250000 0.625000
vt 0.193594 0.681406
vt 0.181230 0.625000
vt 0.306406 0.568594
vt 0.250000 0.556230
vt 0.193594 0.568594
vt 0.306406 0.681406
vt 0.250000 0.693770
vt 0.418958 0.250000
vt 0.130761 0.500000
vt 0.125000 0.504843
vt 0.125000 0.633029
vt 0.418955 0.125000
vt 0.125000 0.616971
vt 0.153115 0.620985
vt 0.153115 0.629015
vt 0.254169 0.528115
vt 0.246444 0.528115
vt 0.368874 0.625000
vt 0.246444 0.721885
vt 0.254169 0.721885
vt 0.338434 0.534297
vt 0.362690 0.534297
vt 0.162178 0.715703
vt 0.159297 0.713282
vt 0.159297 0.536718
vt 0.162178 0.534297
vt 0.362690 0.715703
vt 0.338434 0.715703
vt 0.318770 0.625000
s off
f 9/17/7 10/18/7 11/19/7
f 12/20/8 13/21/9 14/22/9
f 15/23/10 16/24/10 17/25/10
f 18/26/11 19/27/12 20/29/11
f 14/22/13 21/30/14 22/33/13
f 18/26/15 23/35/15 24/36/15
f 15/23/15 23/35/15 25/37/15
f 26/39/16 19/27/17 27/41/18
f 16/24/19 18/26/20 20/29/21
f 10/18/22 12/20/22 14/22/22
f 28/45/23 16/24/24 29/47/24
f 9/17/15 30/48/15 31/50/15
f 15/23/15 32/51/15 33/52/15
f 13/21/25 15/23/25 17/25/25
f 19/28/26 9/17/26 11/19/27
f 30/48/28 34/53/28 31/50/28
f 31/50/29 35/54/29 36/55/29
f 33/52/30 37/56/30 23/35/30
f 36/55/31 38/57/31 39/58/31
f 12/20/15 36/55/15 39/58/15
f 9/17/15 36/55/15 40/59/15
f 18/26/15 30/49/15 41/60/15
f 12/20/15 32/51/15 42/62/15
f 35/54/32 43/63/32 44/64/32
f 37/56/32 45/65/32 46/66/32
f 35/54/32 47/67/32 38/57/32
f 48/68/32 45/65/32 49/69/32
f 23/35/33 50/70/33 24/36/33
f 24/36/34 51/72/34 30/49/34
f 39/58/35 48/68/35 32/51/35
f 32/51/36 49/69/36 33/52/36
f 52/73/36 53/74/36 45/65/36
f 47/67/35 54/75/35 52/73/35
f 55/76/34 56/77/37 57/79/34
f 46/66/33 58/81/33 55/76/33
f 51/71/32 43/63/32 34/53/32
f 37/56/32 55/76/32 50/70/32
f 51/72/32 55/76/32 57/79/32
f 48/68/32 47/67/32 52/73/32
f 58/81/38 59/82/38 56/77/38
f 58/81/39 60/84/39 61/85/39
f 62/86/40 59/83/41 63/87/42
f 62/86/43 64/88/44 65/89/44
f 44/64/31 66/90/31 47/67/31
f 45/65/30 67/91/30 46/66/30
f 43/63/45 65/89/45 44/64/29
f 57/80/46 62/86/46 43/63/28
f 59/83/28 68/92/28 63/87/28
f 63/87/29 69/93/29 64/88/29
f 70/94/30 71/95/30 60/84/30
f 64/88/31 72/96/31 73/97/31
f 66/90/47 74/98/47 54/75/48
f 53/74/49 74/98/50 70/94/51
f 66/90/52 64/88/52 73/97/52
f 53/74/53 60/84/54 67/91/54
f 71/95/55 75/99/55 76/100/56
f 69/93/57 77/101/58 72/96/57
f 78/103/59 75/99/59 79/104/60
f 78/103/61 77/101/62 80/105/63
f 60/84/33 81/106/33 61/85/33
f 61/85/34 82/108/34 59/82/34
f 73/97/35 78/103/35 74/98/35
f 74/98/36 79/104/36 70/94/36
f 83/109/32 84/111/32 85/113/32
f 83/109/32 76/100/32 75/99/32
f 80/105/32 83/109/32 75/99/32
f 86/116/32 83/109/32 77/102/32
f 69/93/64 87/118/65 86/115/66
f 82/107/67 87/118/68 68/92/69
f 71/95/70 85/114/71 81/106/72
f 82/108/73 85/114/73 84/110/74
f 88/119/75 89/120/75 90/121/75
f 91/122/76 88/119/77 92/123/77
f 93/124/78 88/119/78 90/121/78
f 88/119/79 94/125/79 95/126/79
f 11/19/80 96/127/80 97/131/81
f 29/47/82 20/29/83 26/39/83
f 13/21/84 28/45/85 21/30/86
f 10/18/87 22/33/88 96/127/87
f 98/134/89 27/42/89 97/130/89
f 99/136/90 96/128/90 22/32/90
f 100/137/91 21/30/91 28/45/92
f 101/139/93 29/46/94 26/38/93
f 99/135/95 21/31/96 102/140/96
f 101/138/97 27/43/97 103/142/97
f 98/133/98 96/129/98 104/144/98
f 100/137/99 29/47/99 105/146/100
f 27/44/101 11/19/102 97/131/103
f 94/125/104 100/137/104 105/146/104
f 93/124/105 98/133/105 104/144/105
f 89/120/106 101/138/107 103/142/108
f 91/122/109 99/135/110 102/140/109
f 94/125/111 101/139/112 95/126/112
f 91/122/113 100/137/113 106/148/113
f 93/124/114 99/136/115 92/123/116
f 89/120/117 98/134/117 90/121/117
f 9/17/7 40/59/7 10/18/7
f 12/20/8 42/62/9 13/21/9
f 15/23/10 25/37/10 16/24/10
f 18/26/11 41/60/11 19/27/12
f 14/22/13 13/21/14 21/30/14
f 18/26/15 25/37/15 23/35/15
f 15/23/15 33/52/15 23/35/15
f 26/39/16 20/29/118 19/27/17
f 16/24/19 25/37/19 18/26/20
f 10/18/22 40/59/22 12/20/22
f 28/45/23 17/25/23 16/24/24
f 9/17/15 41/61/15 30/48/15
f 15/23/15 42/62/15 32/51/15
f 13/21/25 42/62/119 15/23/25
f 19/28/26 41/61/26 9/17/26
f 30/48/28 51/71/120 34/53/28
f 31/50/29 34/53/121 35/54/29
f 33/52/30 49/69/122 37/56/30
f 36/55/31 35/54/123 38/57/31
f 12/20/15 40/59/15 36/55/15
f 9/17/15 31/50/15 36/55/15
f 18/26/15 24/36/15 30/49/15
f 12/20/15 39/58/15 32/51/15
f 35/54/32 34/53/32 43/63/32
f 37/56/32 49/69/32 45/65/32
f 35/54/32 44/64/32 47/67/32
f 48/68/32 52/73/32 45/65/32
f 23/35/33 37/56/124 50/70/33
f 24/36/34 50/70/34 51/72/34
f 39/58/35 38/57/35 48/68/35
f 32/51/36 48/68/125 49/69/36
f 52/73/36 54/75/36 53/74/36
f 47/67/35 66/90/35 54/75/35
f 55/76/34 58/81/34 56/77/37
f 46/66/33 67/91/33 58/81/33
f 51/71/32 57/80/32 43/63/32
f 37/56/32 46/66/32 55/76/32
f 51/72/32 50/70/32 55/76/32
f 48/68/32 38/57/32 47/67/32
f 58/81/38 61/85/38 59/82/38
f 58/81/39 67/91/126 60/84/39
f 62/86/40 56/78/127 59/83/41
f 62/86/43 63/87/128 64/88/44
f 44/64/31 65/89/31 66/90/31
f 45/65/30 53/74/30 67/91/30
f 43/63/45 62/86/29 65/89/45
f 57/80/46 56/78/28 62/86/46
f 59/83/28 82/107/28 68/92/28
f 63/87/29 68/92/29 69/93/29
f 70/94/30 79/104/30 71/95/30
f 64/88/31 69/93/31 72/96/31
f 66/90/47 73/97/47 74/98/47
f 53/74/49 54/75/50 74/98/50
f 66/90/52 65/89/52 64/88/52
f 53/74/53 70/94/129 60/84/54
f 71/95/55 79/104/130 75/99/55
f 69/93/57 86/115/131 77/101/58
f 78/103/59 80/105/59 75/99/59
f 78/103/61 72/96/61 77/101/62
f 60/84/33 71/95/33 81/106/33
f 61/85/34 81/106/34 82/108/34
f 73/97/35 72/96/35 78/103/35
f 74/98/36 78/103/36 79/104/36
f 83/109/32 87/117/32 84/111/32
f 83/109/32 85/113/32 76/100/32
f 80/105/32 77/102/32 83/109/32
f 86/116/32 87/117/32 83/109/32
f 69/93/64 68/92/64 87/118/65
f 82/107/67 84/112/132 87/118/68
f 71/95/70 76/100/71 85/114/71
f 82/108/73 81/106/73 85/114/73
f 88/119/133 95/126/133 89/120/133
f 91/122/134 106/148/134 88/119/134
f 93/124/135 92/123/135 88/119/135
f 88/119/136 106/148/136 94/125/136
f 11/19/80 10/18/80 96/127/80
f 29/47/82 16/24/82 20/29/83
f 13/21/84 17/25/85 28/45/85
f 10/18/87 14/22/137 22/33/88
f 98/134/89 103/143/89 27/42/89
f 99/136/90 104/145/90 96/128/90
f 100/137/91 102/141/138 21/30/91
f 101/139/93 105/147/94 29/46/94
f 99/135/95 22/34/95 21/31/96
f 101/138/97 26/40/97 27/43/97
f 98/133/98 97/132/98 96/129/98
f 100/137/99 28/45/139 29/47/99
f 27/44/101 19/28/101 11/19/102
f 94/125/104 106/148/104 100/137/104
f 93/124/105 90/121/105 98/133/105
f 89/120/106 95/126/108 101/138/107
f 91/122/109 92/123/110 99/135/110
f 94/125/111 105/147/111 101/139/112
f 91/122/113 102/141/113 100/137/113
f 93/124/114 104/145/115 99/136/115
f 89/120/117 103/143/117 98/134/117
