# Blender 3.1.0
# www.blender.org
o Base.008
v -0.500000 0.000000 -0.500000
v 0.500000 0.187500 -0.500000
v 0.500000 0.000000 -0.500000
v 0.500000 -0.000000 0.500000
v -0.500000 0.187500 0.500000
v -0.500000 -0.000000 0.500000
v -0.500000 0.187500 -0.500000
v 0.500000 0.187500 0.500000
vn -0.0000 -0.0000 -1.0000
vn -0.0000 -0.0000 1.0000
vn -0.0000 1.0000 -0.0000
vn -0.0000 -1.0000 -0.0000
vn 1.0000 -0.0000 -0.0000
vn -1.0000 -0.0000 -0.0000
vt 0.250000 0.851563
vt 0.375000 1.000000
vt 0.125000 0.875000
vt 0.250000 1.000000
vt 0.125000 0.851563
vt 0.250000 0.875000
vt 0.000000 0.851563
vt 0.500000 0.851563
vt 0.250000 1.000000
vt 0.375000 0.875000
vt 0.375000 0.875000
vt 0.375000 0.851563
vt 0.250000 0.875000
vt 0.500000 0.875000
vt 0.125000 1.000000
vt 0.000000 0.875000
s 1
f 1/1/1 2/3/1 3/5/1
f 4/8/2 5/10/2 6/12/2
f 7/13/3 8/15/3 2/3/3
f 6/11/4 3/4/4 4/6/4
f 3/5/5 8/16/5 4/7/5
f 6/12/6 7/13/6 1/1/6
f 1/1/1 7/13/1 2/3/1
f 4/8/2 8/14/2 5/10/2
f 7/13/3 5/9/3 8/15/3
f 6/11/4 1/2/4 3/4/4
f 3/5/5 2/3/5 8/16/5
f 6/12/6 5/10/6 7/13/6
o Cylinder.004
v -0.085495 1.452159 -0.206403
v 0.057678 1.334533 -0.139246
v -0.057678 1.334533 -0.139246
v 0.085495 1.452159 -0.206403
v 0.139246 1.334533 -0.057677
v 0.206403 1.452159 -0.085495
v 0.139246 1.334533 0.057678
v 0.206403 1.452159 0.085496
v 0.057678 1.334533 0.139247
v -0.085495 1.452159 0.206403
v -0.057678 1.334533 0.139247
v -0.206403 1.452159 0.085496
v -0.139246 1.334533 0.057678
v -0.206403 1.452159 -0.085495
v -0.132034 1.563863 -0.192488
v -0.139246 1.334533 -0.057677
v 0.206403 1.005341 0.085495
v 0.144482 0.849779 -0.059847
v 0.206403 1.005341 -0.085495
v -0.144482 0.849779 0.059847
v -0.059847 0.514665 0.144482
v -0.059847 0.849779 0.144482
v -0.206403 1.005341 0.085495
v -0.085495 1.005341 0.206403
v 0.059847 0.849779 0.144482
v 0.144482 0.849779 0.059847
v -0.206403 1.005341 -0.085495
v 0.059847 0.849779 -0.144482
v 0.085495 1.005341 -0.206403
v 0.085495 1.005341 0.206403
v -0.085495 1.005341 -0.206403
v -0.144482 0.849779 -0.059847
v -0.059847 0.849779 -0.144482
v 0.059847 0.514665 -0.144482
v -0.077800 0.429813 -0.187827
v -0.059847 0.514665 -0.144482
v 0.144482 0.514665 0.059847
v -0.144482 0.514665 0.059847
v 0.059847 0.514665 0.144482
v 0.144482 0.514665 -0.059847
v -0.144482 0.514665 -0.059847
v -0.187827 0.429813 -0.077800
v -0.187827 0.318109 0.077800
v -0.187827 0.429813 0.077800
v -0.077800 0.429813 0.187827
v 0.187827 0.429813 0.077800
v 0.077800 0.429813 -0.187827
v 0.077800 0.429813 0.187827
v 0.187827 0.429813 -0.077800
v 0.187827 0.318109 -0.077800
v 0.116701 0.206404 -0.281740
v 0.077800 0.318109 -0.187827
v 0.077800 0.318109 0.187827
v 0.187827 0.318109 0.077800
v -0.077800 0.318109 -0.187827
v -0.187827 0.318109 -0.077800
v -0.077800 0.318109 0.187827
v 0.281740 0.206404 0.116701
v -0.116701 0.206404 0.281740
v -0.281740 0.206404 -0.116701
v -0.281740 0.206404 0.116701
v 0.116701 0.206404 0.281740
v 0.281740 0.206404 -0.116701
v -0.116701 0.206404 -0.281740
v 0.164630 1.452159 -0.068192
v 0.085463 1.614203 0.035401
v 0.164630 1.452159 0.068193
v 0.195960 1.563863 0.042747
v -0.171601 1.563863 0.123382
v -0.164630 1.452159 0.068193
v -0.195960 1.563863 0.042747
v 0.068192 1.452159 -0.164630
v -0.034096 1.563863 -0.175073
v -0.068192 1.452159 -0.164630
v -0.171601 1.563863 -0.123382
v -0.164630 1.452159 -0.068192
v 0.171601 1.563863 0.123382
v 0.192488 1.563863 0.132034
v 0.175073 1.563863 0.034096
v -0.085463 1.614203 0.035401
v -0.056117 1.614203 -0.023244
v -0.085463 1.614203 -0.035400
v 0.035399 1.614203 -0.085463
v -0.035400 1.614203 -0.085463
v -0.035400 1.614203 0.085463
v 0.035399 1.614203 0.085463
v 0.068192 1.452159 0.164630
v 0.085463 1.614203 -0.035400
v -0.068192 1.452159 0.164630
v 0.056116 1.614203 0.023245
v 0.023245 1.643665 0.056117
v 0.023245 1.614203 0.056117
v -0.023245 1.614203 0.056117
v 0.056116 1.614203 -0.023244
v 0.023245 1.614203 -0.056117
v -0.023245 1.614203 -0.056117
v -0.056117 1.614203 0.023245
v -0.023245 1.643665 -0.056117
v -0.081819 1.699645 -0.033890
v -0.033890 1.699645 -0.081819
v 0.056117 1.643665 -0.023244
v -0.056117 1.643665 -0.023244
v -0.023245 1.643665 0.056117
v 0.056117 1.643665 0.023245
v 0.023245 1.643665 -0.056117
v -0.056117 1.643665 0.023245
v 0.033890 1.699645 0.081819
v -0.008816 1.817494 0.021283
v -0.033890 1.699645 0.081819
v -0.081819 1.699645 0.033890
v 0.081819 1.699645 0.033890
v 0.081819 1.699645 -0.033890
v 0.033890 1.699645 -0.081819
v -0.021283 1.817494 0.008816
v 0.008816 1.817494 0.021283
v 0.021283 1.817494 -0.008815
v 0.021283 1.817494 0.008816
v 0.008816 1.817494 -0.021283
v -0.008816 1.817494 -0.021283
v -0.021283 1.817494 -0.008815
v 0.132034 1.563863 -0.192488
v 0.171601 1.563863 -0.123382
v 0.192488 1.563863 -0.132033
v -0.123382 1.563863 -0.171600
v -0.192488 1.563863 0.132034
v -0.123382 1.563863 0.171601
v 0.123382 1.563863 0.171601
v 0.132034 1.563863 0.192488
v 0.123382 1.563863 -0.171600
v 0.085495 1.452159 0.206403
v -0.132034 1.563863 0.192488
v -0.192488 1.563863 -0.132033
v 0.042747 1.563863 0.195960
v -0.034096 1.563863 0.175074
v -0.042747 1.563863 0.195960
v 0.042747 1.563863 -0.195960
v 0.034096 1.563863 -0.175073
v 0.195960 1.563863 -0.042747
v -0.175073 1.563863 -0.034095
v -0.195960 1.563863 -0.042747
v 0.175073 1.563863 -0.034095
v 0.034096 1.563863 0.175074
v -0.042747 1.563863 -0.195960
v -0.175073 1.563863 0.034096
vn 0.0003 -0.5546 -0.9697
vn -0.0000 -0.5538 -0.9701
vn 0.6859 -0.5539 -0.6859
vn 0.6856 -0.5543 -0.6860
vn 0.6858 -0.5543 -0.6858
vn 0.9701 -0.5538 -0.0000
vn 0.6855 -0.5546 0.6858
vn 0.6859 -0.5539 0.6859
vn -0.0000 -0.5538 0.9701
vn 0.0003 -0.5545 0.9697
vn -0.6859 -0.5539 0.6859
vn -0.6856 -0.5545 0.6858
vn -0.6858 -0.5543 0.6858
vn -0.7735 -0.2259 -0.7735
vn -0.9701 -0.5538 -0.0000
vn -0.6855 -0.5546 -0.6858
vn -0.6859 -0.5539 -0.6859
vn 1.0378 -0.4131 -0.0000
vn 1.0376 -0.4137 -0.0000
vn -0.7899 -0.0000 0.7899
vn -0.7339 -0.4131 0.7339
vn -0.7336 -0.4136 0.7339
vn 0.7339 -0.4131 0.7339
vn 0.7337 -0.4138 0.7336
vn 0.7335 -0.4144 0.7335
vn -1.0378 -0.4131 -0.0000
vn -1.0376 -0.4137 -0.0000
vn 0.7339 -0.4131 -0.7339
vn 0.7336 -0.4136 -0.7339
vn -0.0000 -0.4131 1.0378
vn -0.0001 -0.4136 1.0377
vn -0.0000 -0.4137 1.0376
vn -0.7339 -0.4131 -0.7339
vn -0.0000 -0.4131 -1.0378
vn 0.0001 -0.4136 -1.0377
vn -0.0000 -0.4137 -1.0376
vn -0.0000 0.5082 -0.9948
vn 0.7899 -0.0000 0.7899
vn 0.7899 -0.0000 -0.7899
vn -1.1170 -0.0000 -0.0000
vn -0.0000 -0.0000 1.1170
vn 1.1170 -0.0000 -0.0000
vn -0.0000 -0.0000 -1.1170
vn -0.7899 -0.0000 -0.7899
vn -0.7034 0.5082 -0.7034
vn -0.7031 0.5086 -0.7033
vn -0.7033 0.5085 0.7033
vn -0.7031 0.5086 0.7033
vn -0.7032 0.5086 0.7032
vn 0.7034 0.5082 0.7034
vn 0.7031 0.5086 0.7033
vn 0.7032 0.5086 -0.7032
vn 0.7034 0.5082 -0.7034
vn -0.9948 0.5082 -0.0000
vn -0.0000 0.5082 0.9948
vn 0.9948 0.5082 -0.0000
vn 0.6045 0.7192 -0.6042
vn 0.6046 0.7188 -0.6046
vn 0.6041 0.7196 -0.6041
vn -0.0000 -1.1170 -0.0000
vn -0.8550 0.7188 -0.0000
vn -0.0000 0.7188 0.8550
vn 0.8550 0.7188 -0.0000
vn -0.0000 0.7188 -0.8550
vn -0.6042 0.7194 -0.6043
vn -0.6046 0.7188 -0.6046
vn -0.6041 0.7196 -0.6041
vn -0.6043 0.7193 0.6043
vn -0.6046 0.7188 0.6046
vn -0.6041 0.7196 0.6041
vn 0.6043 0.7191 0.6045
vn 0.6045 0.7192 0.6042
vn 0.6041 0.7196 0.6041
vn 1.0037 0.4903 -0.0000
vn 1.1122 0.1040 -0.0000
vn -0.3923 0.4435 -0.9472
vn 0.4074 0.3383 0.9835
vn 0.4066 0.3389 0.9837
vn -0.0000 0.1040 1.1122
vn 0.7350 0.4090 0.7350
vn 0.3923 0.4435 -0.9472
vn -0.4074 0.3383 0.9835
vn -0.0000 1.1170 -0.0000
vn -0.0000 0.4903 -1.0037
vn -0.7097 0.4903 -0.7097
vn -0.7097 0.4903 0.7097
vn 0.7097 0.4903 0.7097
vn 0.7097 0.4903 -0.7097
vn -1.0037 0.4903 -0.0000
vn -0.0000 0.4903 1.0037
vn -0.7178 -0.4661 -0.7178
vn -0.7176 -0.4668 -0.7176
vn -0.0000 0.5104 0.9936
vn -0.7178 -0.4661 0.7178
vn 0.7178 -0.4661 0.7178
vn 0.7176 -0.4668 0.7176
vn 0.7178 -0.4661 -0.7178
vn -1.0152 -0.4661 -0.0000
vn -0.0000 -0.4661 1.0152
vn 1.0152 -0.4661 -0.0000
vn -0.0000 -0.4661 -1.0152
vn 0.9936 0.5104 -0.0000
vn -0.0000 0.5104 -0.9936
vn -0.7026 0.5104 -0.7026
vn -0.7026 0.5104 0.7026
vn 0.7026 0.5104 0.7026
vn 0.7026 0.5104 -0.7026
vn -0.9936 0.5104 -0.0000
vn -0.9472 0.4435 -0.3923
vn -0.7350 0.4090 0.7350
vn 0.3923 0.4435 0.9472
vn -0.7735 -0.2259 0.7735
vn -0.9472 0.4435 0.3923
vn -0.9474 0.4435 0.3918
vn -0.7350 0.4090 -0.7350
vn 0.7735 -0.2259 0.7735
vn 0.9472 0.4435 0.3923
vn -0.3923 0.4435 0.9472
vn 0.7735 -0.2259 -0.7735
vn 0.7350 0.4090 -0.7350
vn 0.9472 0.4435 -0.3923
vn 0.9474 0.4435 -0.3918
vn -0.0000 0.1040 -1.1122
vn 0.9835 0.3383 0.4074
vn -0.4074 0.3383 -0.9835
vn -0.4066 0.3389 -0.9837
vn -1.1122 0.1040 -0.0000
vn 0.9835 0.3383 -0.4074
vn -0.9835 0.3383 -0.4074
vn 0.4074 0.3383 -0.9835
vn -0.9835 0.3383 0.4074
vn -0.7739 0.2233 -0.7739
vn -1.0945 0.2233 -0.0000
vn -0.7739 0.2233 0.7739
vn -0.0000 0.2233 1.0945
vn 0.7739 0.2233 0.7739
vn 1.0945 0.2233 -0.0000
vn 0.7739 0.2233 -0.7739
vn -0.0000 0.2233 -1.0945
vn 1.0376 -0.4136 -0.0000
vn -0.7336 -0.4142 0.7336
vn -1.0376 -0.4136 -0.0000
vn 0.7336 -0.4142 -0.7336
vn -0.0000 -0.4135 1.0377
vn -0.0000 -0.4135 -1.0377
vn -0.7032 0.5086 -0.7032
vn -0.7034 0.5082 0.7034
vn 0.7032 0.5086 0.7032
vn 0.7033 0.5085 -0.7033
vn 0.6043 0.7193 -0.6043
vn -0.6043 0.7193 -0.6043
vn 0.6046 0.7188 0.6046
vn -0.4065 0.3389 0.9837
vn 0.7097 0.4904 -0.7097
vn -0.7176 -0.4668 0.7176
vn 0.7176 -0.4668 -0.7176
vn -0.9474 0.4435 -0.3919
vn 0.9474 0.4435 0.3919
vn 0.4065 0.3389 -0.9837
vt 0.000000 1.000000
vt 1.000000 1.000000
vt 0.875000 0.750000
vt 0.000000 0.750000
vt 1.000000 0.750000
vt 0.875000 1.000000
vt 0.750000 0.750000
vt 0.750000 1.000000
vt 0.625000 0.750000
vt 0.625000 1.000000
vt 0.500000 0.750000
vt 0.375000 1.000000
vt 0.375000 0.750000
vt 0.250000 1.000000
vt 0.250000 0.750000
vt 0.125000 1.000000
vt 0.000000 1.000000
vt 1.000000 1.000000
vt 0.125000 0.750000
vt 0.625000 0.500000
vt 0.750000 0.500000
vt 0.750000 0.500000
vt 0.250000 0.500000
vt 0.375000 0.500000
vt 0.375000 0.500000
vt 0.250000 0.500000
vt 0.375000 0.500000
vt 0.500000 0.500000
vt 0.625000 0.500000
vt 0.125000 0.500000
vt 0.875000 0.500000
vt 0.875000 0.500000
vt 0.500000 0.500000
vt 1.000000 0.500000
vt 0.000000 0.500000
vt 0.125000 0.500000
vt 1.000000 0.500000
vt 0.000000 0.500000
vt 0.875000 0.500000
vt 1.000000 0.500000
vt 0.000000 0.500000
vt 1.000000 0.500000
vt 0.000000 0.500000
vt 0.625000 0.500000
vt 0.250000 0.500000
vt 0.500000 0.500000
vt 0.750000 0.500000
vt 0.125000 0.500000
vt 0.125000 0.500000
vt 0.250000 0.500000
vt 0.250000 0.500000
vt 0.375000 0.500000
vt 0.625000 0.500000
vt 0.875000 0.500000
vt 0.500000 0.500000
vt 0.750000 0.500000
vt 0.750000 0.500000
vt 0.919706 0.419706
vt 0.875000 0.500000
vt 0.875000 0.500000
vt 0.500000 0.500000
vt 0.625000 0.500000
vt 1.000000 0.500000
vt 0.000000 0.500000
vt 0.125000 0.500000
vt 0.375000 0.500000
vt 0.919706 0.080294
vt 0.625000 0.500000
vt 0.580294 0.080294
vt 0.375000 0.500000
vt 0.580294 0.419706
vt 0.125000 0.500000
vt 0.510000 0.250000
vt 0.250000 0.500000
vt 0.750000 0.010000
vt 0.500000 0.500000
vt 0.990000 0.250000
vt 0.750000 0.500000
vt 0.750000 0.490000
vt 1.000000 0.500000
vt 0.000000 0.500000
vt 0.750000 1.000000
vt 0.625000 1.000000
vt 0.625000 1.000000
vt 0.625000 1.000000
vt 0.250000 1.000000
vt 0.250000 1.000000
vt 0.250000 1.000000
vt 0.875000 1.000000
vt 1.000000 1.000000
vt 0.000000 1.000000
vt 1.000000 1.000000
vt 0.125000 1.000000
vt 0.125000 1.000000
vt 0.625000 1.000000
vt 0.625000 1.000000
vt 0.625000 1.000000
vt 0.250000 1.000000
vt 0.125000 1.000000
vt 0.125000 1.000000
vt 0.875000 1.000000
vt 0.000000 1.000000
vt 1.000000 1.000000
vt 0.375000 1.000000
vt 0.500000 1.000000
vt 0.500000 1.000000
vt 0.750000 1.000000
vt 0.375000 1.000000
vt 0.625000 1.000000
vt 0.500000 1.000000
vt 0.500000 1.000000
vt 0.375000 1.000000
vt 0.750000 1.000000
vt 0.875000 1.000000
vt 1.000000 1.000000
vt 0.000000 1.000000
vt 0.250000 1.000000
vt 0.000000 1.000000
vt 1.000000 1.000000
vt 0.125000 1.000000
vt 0.000000 1.000000
vt 1.000000 1.000000
vt 0.750000 1.000000
vt 0.125000 1.000000
vt 0.375000 1.000000
vt 0.625000 1.000000
vt 0.875000 1.000000
vt 0.250000 1.000000
vt 0.500000 1.000000
vt 0.080294 0.080294
vt 0.375000 1.000000
vt 0.375000 1.000000
vt 0.250000 1.000000
vt 0.625000 1.000000
vt 0.750000 1.000000
vt 0.875000 1.000000
vt 0.010000 0.250000
vt 0.250000 1.000000
vt 0.500000 1.000000
vt 0.250000 0.010000
vt 0.490000 0.250000
vt 0.750000 1.000000
vt 0.419706 0.080294
vt 0.625000 1.000000
vt 0.419706 0.419706
vt 0.875000 1.000000
vt 0.250000 0.490000
vt 1.000000 1.000000
vt 0.000000 1.000000
vt 0.080294 0.419706
vt 0.125000 1.000000
vt 0.875000 1.000000
vt 0.750000 1.000000
vt 0.750000 1.000000
vt 0.000000 1.000000
vt 1.000000 1.000000
vt 0.250000 1.000000
vt 0.375000 1.000000
vt 0.500000 1.000000
vt 0.500000 1.000000
vt 0.875000 1.000000
vt 0.500000 1.000000
vt 0.375000 1.000000
vt 0.125000 1.000000
vt 0.500000 1.000000
vt 0.375000 1.000000
vt 0.375000 1.000000
vt 0.875000 1.000000
vt 0.875000 1.000000
vt 0.750000 1.000000
vt 0.125000 1.000000
vt 0.125000 1.000000
vt 0.750000 1.000000
vt 0.500000 1.000000
vt 1.000000 1.000000
vt 0.250000 1.000000
s 1
f 9/18/7 10/19/8 11/21/8
f 12/22/9 13/23/10 10/19/11
f 14/24/12 15/25/12 13/23/12
f 16/26/13 17/27/14 15/25/14
f 17/27/15 18/28/16 19/29/15
f 19/29/17 20/30/18 21/31/19
f 22/32/20 23/33/20 9/17/20
f 21/31/21 22/32/21 24/35/21
f 22/32/22 11/20/23 24/35/23
f 25/36/24 26/37/24 27/38/25
f 28/39/26 29/40/26 30/41/26
f 31/42/27 30/41/28 32/43/27
f 25/36/29 33/44/30 34/45/31
f 35/46/32 28/39/32 31/42/33
f 27/38/34 36/47/35 37/48/34
f 32/43/36 33/44/37 38/49/38
f 39/51/39 40/52/39 35/46/39
f 37/48/40 41/53/41 39/50/42
f 42/55/43 43/56/43 44/58/43
f 33/44/44 45/60/44 34/45/44
f 26/37/45 42/55/45 36/47/45
f 40/52/46 46/61/46 28/39/46
f 30/41/47 47/62/47 33/44/47
f 34/45/48 48/63/48 26/37/48
f 36/47/49 44/58/49 41/53/49
f 41/54/50 49/64/50 40/52/50
f 50/65/46 51/66/46 52/67/46
f 44/59/51 50/65/52 49/64/51
f 29/40/53 52/67/54 53/68/55
f 47/62/56 54/69/57 45/60/56
f 48/63/58 55/70/59 42/55/59
f 49/64/60 52/67/60 46/61/60
f 29/40/61 56/71/61 47/62/61
f 45/60/62 57/72/62 48/63/62
f 58/73/63 59/75/64 60/76/65
f 53/68/47 61/77/47 56/71/47
f 57/72/48 62/78/48 58/73/48
f 55/70/49 63/79/49 43/56/49
f 43/57/50 64/81/50 50/65/50
f 52/67/26 65/82/26 53/68/26
f 54/69/44 61/77/44 62/78/44
f 57/72/45 60/76/45 55/70/45
f 66/83/66 67/85/66 68/87/66
f 64/81/67 69/90/67 51/66/67
f 65/82/68 70/92/68 61/77/68
f 62/78/69 71/94/69 58/73/69
f 60/76/70 72/96/70 63/79/70
f 63/80/71 68/88/72 64/81/73
f 65/82/74 69/90/75 67/86/76
f 62/78/77 70/92/78 66/84/79
f 73/98/80 74/99/80 75/100/80
f 14/24/81 76/101/81 16/26/81
f 20/30/82 77/102/82 78/103/82
f 78/103/83 79/104/83 20/30/84
f 80/105/85 81/106/85 82/108/85
f 82/107/86 83/109/86 84/110/86
f 16/26/87 85/111/87 86/112/87
f 75/100/88 76/101/88 87/113/88
f 88/114/89 89/115/89 90/116/89
f 82/108/90 91/117/90 80/105/90
f 82/107/91 90/116/91 92/118/91
f 78/103/92 93/120/92 88/114/92
f 75/100/93 94/121/93 95/122/93
f 80/105/94 96/123/94 73/98/94
f 78/103/95 90/116/95 84/110/95
f 95/122/96 93/120/96 97/124/96
f 98/125/44 99/126/44 100/127/44
f 94/121/89 101/128/89 93/120/89
f 74/99/89 102/129/89 98/125/89
f 92/119/89 103/130/89 91/117/89
f 90/116/89 104/132/89 92/118/89
f 93/120/89 105/133/89 88/114/89
f 74/99/89 100/127/89 94/121/89
f 91/117/89 102/129/89 96/123/89
f 106/134/97 107/136/97 108/137/98
f 103/130/45 109/139/45 102/129/45
f 105/133/46 110/140/46 89/115/46
f 100/127/47 111/141/47 101/128/47
f 102/129/48 112/142/48 98/125/48
f 103/130/49 106/135/49 113/143/49
f 104/132/50 110/140/50 106/134/50
f 101/128/26 114/144/26 105/133/26
f 115/145/99 116/147/99 117/148/99
f 111/141/100 118/149/100 114/144/100
f 99/126/101 119/150/101 115/145/102
f 113/143/103 120/151/103 109/139/103
f 110/140/104 118/149/104 107/136/104
f 99/126/105 117/148/105 111/141/105
f 109/139/106 119/150/106 112/142/106
f 106/135/107 121/152/107 113/143/107
f 122/153/89 123/156/89 124/157/89
f 120/151/108 125/160/108 119/150/108
f 108/138/109 126/162/109 121/152/109
f 107/136/110 127/165/110 108/137/110
f 118/149/111 116/147/111 122/154/111
f 115/145/112 125/160/112 123/155/112
f 120/151/113 126/162/113 124/158/113
f 118/149/114 128/167/114 107/136/114
f 129/168/89 130/169/89 131/170/89
f 23/33/89 83/109/89 132/171/89
f 133/173/89 134/174/89 77/102/89
f 86/112/89 135/175/89 136/176/89
f 12/22/115 137/177/115 129/168/115
f 73/98/116 137/177/116 80/105/116
f 14/24/117 130/169/117 73/98/117
f 18/28/118 133/173/118 20/30/118
f 138/178/119 135/175/119 95/122/120
f 75/100/121 135/175/121 85/111/121
f 16/26/122 136/176/122 138/178/122
f 18/28/123 134/174/123 139/179/123
f 22/32/124 83/109/124 140/180/124
f 14/24/125 129/168/125 131/170/125
f 78/103/126 134/174/126 97/124/126
f 9/18/127 132/172/127 82/108/128
f 141/181/89 142/182/89 143/183/89
f 144/184/89 81/106/89 145/185/89
f 146/186/89 87/113/89 76/101/89
f 79/104/89 147/187/89 148/188/89
f 9/18/129 144/184/129 12/22/129
f 80/105/130 144/184/130 145/185/130
f 73/98/131 146/186/131 14/24/132
f 73/98/133 87/113/133 149/189/133
f 95/122/134 141/181/134 138/178/134
f 97/124/135 143/183/135 142/182/135
f 95/122/129 142/182/129 150/190/129
f 84/110/136 148/188/136 147/187/136
f 20/30/133 148/188/133 22/32/133
f 82/108/137 151/191/137 9/18/137
f 84/110/81 152/192/81 78/103/81
f 138/178/85 143/183/85 18/28/85
f 24/35/138 39/51/138 35/46/138
f 31/42/139 24/35/139 35/46/139
f 19/29/140 31/42/140 32/43/140
f 17/27/141 32/43/141 38/49/141
f 15/25/142 38/49/142 25/36/142
f 13/23/143 25/36/143 27/38/143
f 37/48/144 13/23/144 27/38/144
f 11/21/145 37/48/145 39/50/145
f 9/18/7 12/22/8 10/19/8
f 12/22/9 14/24/9 13/23/10
f 14/24/12 16/26/12 15/25/12
f 16/26/13 138/178/14 17/27/14
f 17/27/15 138/178/15 18/28/16
f 19/29/17 18/28/17 20/30/18
f 22/32/20 140/180/20 23/33/20
f 21/31/21 20/30/21 22/32/21
f 22/32/22 9/17/23 11/20/23
f 25/36/24 34/45/146 26/37/24
f 28/39/26 46/61/26 29/40/26
f 31/42/27 28/39/147 30/41/28
f 25/36/29 38/49/29 33/44/30
f 35/46/32 40/52/148 28/39/32
f 27/38/34 26/37/149 36/47/35
f 32/43/36 30/41/150 33/44/37
f 39/51/39 41/54/39 40/52/39
f 37/48/40 36/47/151 41/53/41
f 42/55/43 55/70/43 43/56/43
f 33/44/44 47/62/44 45/60/44
f 26/37/45 48/63/45 42/55/45
f 40/52/46 49/64/46 46/61/46
f 30/41/47 29/40/47 47/62/47
f 34/45/48 45/60/48 48/63/48
f 36/47/49 42/55/49 44/58/49
f 41/54/50 44/59/50 49/64/50
f 50/65/46 64/81/46 51/66/46
f 44/59/51 43/57/152 50/65/52
f 29/40/53 46/61/153 52/67/54
f 47/62/56 56/71/154 54/69/57
f 48/63/58 57/72/155 55/70/59
f 49/64/60 50/65/60 52/67/60
f 29/40/61 53/68/61 56/71/61
f 45/60/62 54/69/62 57/72/62
f 58/73/63 71/94/156 59/75/64
f 53/68/47 65/82/47 61/77/47
f 57/72/48 54/69/48 62/78/48
f 55/70/49 60/76/49 63/79/49
f 43/57/50 63/80/50 64/81/50
f 52/67/26 51/66/26 65/82/26
f 54/69/44 56/71/44 61/77/44
f 57/72/45 58/73/45 60/76/45
f 68/87/66 72/95/66 59/74/66
f 59/74/66 71/93/66 66/83/66
f 66/83/66 70/91/66 67/85/66
f 67/85/66 69/89/66 68/87/66
f 68/87/66 59/74/66 66/83/66
f 64/81/67 68/88/67 69/90/67
f 65/82/68 67/86/68 70/92/68
f 62/78/69 66/84/69 71/94/69
f 60/76/70 59/75/70 72/96/70
f 63/80/71 72/97/157 68/88/72
f 65/82/74 51/66/74 69/90/75
f 62/78/77 61/77/158 70/92/78
f 73/98/80 96/123/80 74/99/80
f 14/24/81 146/186/81 76/101/81
f 20/30/82 133/173/82 77/102/82
f 78/103/83 152/192/83 79/104/83
f 80/105/85 145/185/85 81/106/85
f 82/107/86 132/171/86 83/109/86
f 16/26/87 75/100/87 85/111/87
f 75/100/88 16/26/159 76/101/88
f 88/114/89 105/133/89 89/115/89
f 82/108/90 92/119/90 91/117/90
f 82/107/91 84/110/91 90/116/91
f 78/103/92 97/124/92 93/120/92
f 75/100/93 74/99/93 94/121/93
f 80/105/94 91/117/160 96/123/94
f 78/103/95 88/114/95 90/116/95
f 95/122/96 94/121/96 93/120/96
f 98/125/44 112/142/44 99/126/44
f 94/121/89 100/127/89 101/128/89
f 74/99/89 96/123/89 102/129/89
f 92/119/89 104/131/89 103/130/89
f 90/116/89 89/115/89 104/132/89
f 93/120/89 101/128/89 105/133/89
f 74/99/89 98/125/89 100/127/89
f 91/117/89 103/130/89 102/129/89
f 106/134/97 110/140/97 107/136/97
f 103/130/45 113/143/45 109/139/45
f 105/133/46 114/144/46 110/140/46
f 100/127/47 99/126/47 111/141/47
f 102/129/48 109/139/48 112/142/48
f 103/130/49 104/131/49 106/135/49
f 104/132/50 89/115/50 110/140/50
f 101/128/26 111/141/26 114/144/26
f 115/145/99 123/155/99 116/147/99
f 111/141/100 117/148/161 118/149/100
f 99/126/101 112/142/101 119/150/101
f 113/143/103 121/152/162 120/151/103
f 110/140/104 114/144/104 118/149/104
f 99/126/105 115/145/105 117/148/105
f 109/139/106 120/151/106 119/150/106
f 106/135/107 108/138/107 121/152/107
f 124/157/89 126/161/89 127/163/89
f 127/163/89 128/166/89 122/153/89
f 122/153/89 116/146/89 123/156/89
f 123/156/89 125/159/89 124/157/89
f 124/157/89 127/163/89 122/153/89
f 120/151/108 124/158/108 125/160/108
f 108/138/109 127/164/109 126/162/109
f 107/136/110 128/167/110 127/165/110
f 118/149/111 117/148/111 116/147/111
f 115/145/112 119/150/112 125/160/112
f 120/151/113 121/152/113 126/162/113
f 118/149/114 122/154/114 128/167/114
f 129/168/89 137/177/89 130/169/89
f 23/33/89 140/180/89 83/109/89
f 133/173/89 139/179/89 134/174/89
f 86/112/89 85/111/89 135/175/89
f 12/22/115 80/105/163 137/177/115
f 73/98/116 130/169/116 137/177/116
f 14/24/117 131/170/117 130/169/117
f 18/28/118 139/179/118 133/173/118
f 138/178/119 136/176/119 135/175/119
f 75/100/121 95/122/121 135/175/121
f 16/26/122 86/112/122 136/176/122
f 18/28/123 97/124/164 134/174/123
f 22/32/124 84/110/124 83/109/124
f 14/24/125 12/22/125 129/168/125
f 78/103/126 77/102/126 134/174/126
f 9/18/127 23/34/127 132/172/127
f 141/181/89 150/190/89 142/182/89
f 144/184/89 151/191/89 81/106/89
f 146/186/89 149/189/89 87/113/89
f 79/104/89 152/192/89 147/187/89
f 9/18/129 151/191/129 144/184/129
f 80/105/130 12/22/130 144/184/130
f 73/98/131 149/189/131 146/186/131
f 73/98/133 75/100/133 87/113/133
f 95/122/134 150/190/134 141/181/134
f 97/124/135 18/28/135 143/183/135
f 95/122/129 97/124/129 142/182/129
f 84/110/136 22/32/165 148/188/136
f 20/30/133 79/104/133 148/188/133
f 82/108/137 81/106/137 151/191/137
f 84/110/81 147/187/81 152/192/81
f 138/178/85 141/181/85 143/183/85
f 24/35/138 11/20/138 39/51/138
f 31/42/139 21/31/139 24/35/139
f 19/29/140 21/31/140 31/42/140
f 17/27/141 19/29/141 32/43/141
f 15/25/142 17/27/142 38/49/142
f 13/23/143 15/25/143 25/36/143
f 37/48/144 10/19/144 13/23/144
f 11/21/145 10/19/145 37/48/145