# Blender 3.1.0
# www.blender.org
o Base.002
v -0.500000 0.000000 -0.500000
v 0.500000 0.187500 -0.500000
v 0.500000 0.000000 -0.500000
v 0.500000 -0.000000 0.500000
v -0.500000 0.187500 0.500000
v -0.500000 -0.000000 0.500000
v -0.500000 0.187500 -0.500000
v 0.500000 0.187500 0.500000
vn -0.0000 -0.0000 -1.0000
vn -0.0000 -0.0000 1.0000
vn -0.0000 1.0000 -0.0000
vn -0.0000 -1.0000 -0.0000
vn 1.0000 -0.0000 -0.0000
vn -1.0000 -0.0000 -0.0000
vt 0.250000 0.851563
vt 0.375000 1.000000
vt 0.125000 0.875000
vt 0.250000 1.000000
vt 0.125000 0.851563
vt 0.250000 0.875000
vt 0.000000 0.851563
vt 0.500000 0.851563
vt 0.250000 1.000000
vt 0.375000 0.875000
vt 0.375000 0.875000
vt 0.375000 0.851563
vt 0.250000 0.875000
vt 0.500000 0.875000
vt 0.125000 1.000000
vt 0.000000 0.875000
s 0
f 1/1/1 2/3/1 3/5/1
f 4/8/2 5/10/2 6/12/2
f 7/13/3 8/15/3 2/3/3
f 6/11/4 3/4/4 4/6/4
f 3/5/5 8/16/5 4/7/5
f 6/12/6 7/13/6 1/1/6
f 1/1/1 7/13/1 2/3/1
f 4/8/2 8/14/2 5/10/2
f 7/13/3 5/9/3 8/15/3
f 6/11/4 1/2/4 3/4/4
f 3/5/5 2/3/5 8/16/5
f 6/12/6 5/10/6 7/13/6
o Cylinder
v 0.000000 0.137145 -0.434403
v -0.000000 1.250000 -0.108313
v 0.307169 0.137145 -0.307169
v 0.076589 1.250000 -0.076589
v 0.434403 0.137145 0.000000
v 0.108313 1.250000 0.000000
v 0.307169 0.137145 0.307169
v 0.076589 1.250000 0.076589
v -0.000000 0.137145 0.434403
v -0.000000 1.250000 0.108313
v -0.307169 0.137145 0.307169
v -0.076589 1.250000 0.076589
v -0.434403 0.137145 -0.000000
v -0.108313 1.250000 0.000000
v -0.307169 0.137145 -0.307169
v -0.076589 1.250000 -0.076589
v 0.119799 1.250000 -0.119799
v -0.000000 1.250000 -0.169422
v 0.169422 1.250000 0.000000
v 0.119799 1.250000 0.119799
v -0.000000 1.250000 0.169422
v -0.119799 1.250000 0.119799
v -0.169421 1.250000 0.000000
v -0.119799 1.250000 -0.119799
v 0.119799 1.303806 -0.119799
v -0.000000 1.303806 -0.169422
v 0.169422 1.303806 0.000000
v 0.119799 1.303806 0.119799
v -0.000000 1.303806 0.169422
v -0.119799 1.303806 0.119799
v -0.169421 1.303806 0.000000
v -0.119799 1.303806 -0.119799
v 0.086240 1.303806 -0.086240
v -0.000000 1.303806 -0.121961
v 0.121961 1.303806 0.000000
v 0.086240 1.303806 0.086240
v -0.000000 1.303806 0.121962
v -0.086240 1.303806 0.086240
v -0.121961 1.303806 0.000000
v -0.086240 1.303806 -0.086240
v 0.121539 1.376602 -0.121539
v -0.000000 1.376602 -0.171882
v 0.171882 1.376602 0.000000
v 0.121539 1.376602 0.121539
v -0.000000 1.376602 0.171882
v -0.121539 1.376602 0.121539
v -0.171882 1.376602 -0.000000
v -0.121539 1.376602 -0.121539
v 0.028801 1.706295 -0.028801
v 0.000000 1.706295 -0.040731
v 0.040731 1.706295 0.000000
v 0.028801 1.706295 0.028801
v 0.000000 1.706295 0.040731
v -0.028801 1.706295 0.028801
v -0.040731 1.706295 0.000000
v -0.028801 1.706295 -0.028801
v 0.049061 1.751133 -0.049061
v 0.000000 1.751133 -0.069383
v 0.069383 1.751133 0.000000
v 0.049061 1.751133 0.049061
v 0.000000 1.751133 0.069383
v -0.049061 1.751133 0.049061
v -0.069383 1.751133 0.000000
v -0.049061 1.751133 -0.049061
v 0.017650 1.814434 -0.017650
v 0.000000 1.814434 -0.024960
v 0.024960 1.814434 0.000000
v 0.017650 1.814434 0.017650
v 0.000000 1.814434 0.024960
v -0.017649 1.814434 0.017650
v -0.024960 1.814434 0.000000
v -0.017649 1.814434 -0.017650
v -0.000000 0.501993 -0.237400
v 0.167867 0.501993 -0.167867
v 0.237400 0.501993 0.000000
v 0.167867 0.501993 0.167867
v -0.000000 0.501993 0.237400
v -0.167867 0.501993 0.167867
v -0.237400 0.501993 -0.000000
v -0.167867 0.501993 -0.167867
v 0.178581 0.220243 -0.178581
v 0.252552 0.220243 0.000000
v 0.178581 0.220243 0.178581
v -0.000000 0.220243 0.252552
v -0.178581 0.220243 0.178581
v -0.252552 0.220243 -0.000000
v -0.178581 0.220243 -0.178581
v -0.000000 0.220243 -0.252552
v -0.000000 0.336205 -0.267136
v 0.188894 0.336205 -0.188894
v 0.267136 0.336205 0.000000
v 0.188894 0.336205 0.188894
v -0.000000 0.336205 0.267136
v -0.188894 0.336205 0.188894
v -0.267136 0.336205 -0.000000
v -0.188894 0.336205 -0.188894
v 0.160220 0.253048 -0.160220
v 0.161405 0.221900 -0.161405
v 0.226586 0.253048 0.000000
v 0.228261 0.221900 0.000000
v 0.160220 0.253048 0.160220
v 0.161405 0.221900 0.161405
v -0.000000 0.253048 0.226586
v -0.000000 0.221900 0.228261
v -0.160220 0.253048 0.160220
v -0.161405 0.221900 0.161405
v -0.226586 0.253048 -0.000000
v -0.228261 0.221900 -0.000000
v -0.160220 0.253048 -0.160220
v -0.161405 0.221900 -0.161405
v -0.000000 0.221900 -0.228261
v -0.000000 0.253048 -0.226586
v -0.156187 1.416057 0.000000
v -0.125231 1.493876 0.000000
v -0.089055 1.492087 -0.089055
v -0.071404 1.554837 -0.071404
v 0.155285 1.405735 0.012091
v 0.121463 1.450746 0.050519
v 0.156187 1.416057 0.000000
v 0.125231 1.493876 0.000000
v 0.000000 1.515596 -0.116591
v 0.000000 1.573686 -0.093483
v 0.089055 1.492087 -0.089055
v 0.071404 1.554837 -0.071404
v -0.121462 1.450746 0.050519
v -0.155285 1.405735 0.012091
vn 0.3779 0.1574 -0.9124
vn 0.9124 0.1574 -0.3779
vn 0.9124 0.1574 0.3779
vn 0.3779 0.1574 0.9124
vn -0.3779 0.1574 0.9124
vn -0.9124 0.1574 0.3779
vn -0.0000 -1.0000 -0.0000
vn -0.9124 0.1574 -0.3779
vn -0.3779 0.1574 -0.9124
vn -0.3827 -0.0000 -0.9239
vn -0.0000 1.0000 -0.0000
vn -0.9239 -0.0000 0.3827
vn 0.3827 -0.0000 0.9239
vn 0.9239 -0.0000 -0.3827
vn -0.9239 -0.0000 -0.3827
vn -0.3827 -0.0000 0.9239
vn 0.9239 -0.0000 0.3827
vn 0.3827 -0.0000 -0.9239
vn 0.7804 -0.5352 0.3233
vn -0.8672 0.3450 -0.3592
vn 0.3233 -0.5352 -0.7804
vn -0.3233 -0.5352 -0.7804
vn -0.7804 -0.5352 0.3233
vn 0.3233 -0.5352 0.7804
vn 0.7804 -0.5352 -0.3233
vn -0.7804 -0.5352 -0.3233
vn -0.3233 -0.5352 0.7804
vn 0.3295 -0.5084 0.7956
vn -0.3592 0.3450 0.8672
vn 0.8672 0.3450 0.3592
vn 0.3592 0.3450 -0.8672
vn -0.3592 0.3450 -0.8672
vn -0.8672 0.3450 0.3592
vn 0.3592 0.3450 0.8672
vn 0.8672 0.3450 -0.3592
vn -0.3211 0.5440 -0.7752
vn 0.7956 -0.5084 -0.3295
vn -0.7956 -0.5084 -0.3295
vn -0.3295 -0.5084 0.7956
vn 0.7956 -0.5084 0.3295
vn 0.3295 -0.5084 -0.7956
vn -0.3295 -0.5084 -0.7956
vn -0.7956 -0.5084 0.3295
vn -0.7752 0.5440 0.3211
vn 0.3211 0.5440 0.7752
vn 0.7752 0.5440 -0.3211
vn -0.7752 0.5440 -0.3211
vn -0.3211 0.5440 0.7752
vn 0.7752 0.5440 0.3211
vn 0.3211 0.5440 -0.7752
vn -0.3775 0.1635 -0.9115
vn -0.9115 0.1635 -0.3775
vn -0.9115 0.1635 0.3775
vn -0.3775 0.1635 0.9115
vn 0.3775 0.1635 0.9115
vn 0.9115 0.1635 0.3775
vn 0.9115 0.1635 -0.3775
vn 0.3775 0.1635 -0.9115
vn 0.1697 0.8964 -0.4096
vn 0.4096 0.8964 -0.1697
vn 0.4096 0.8964 0.1697
vn 0.1697 0.8964 0.4096
vn -0.1697 0.8964 0.4096
vn -0.4096 0.8964 0.1697
vn -0.4096 0.8964 -0.1697
vn -0.1697 0.8964 -0.4096
vn -0.8423 -0.4108 0.3489
vn -0.0680 0.9973 -0.0282
vn -0.3489 -0.4108 0.8423
vn -0.0680 0.9973 0.0282
vn 0.3489 -0.4108 0.8423
vn -0.0282 0.9973 0.0680
vn 0.8423 -0.4108 0.3489
vn 0.0282 0.9973 0.0680
vn 0.3822 0.0496 -0.9227
vn 0.9227 0.0496 -0.3822
vn 0.9227 0.0496 0.3822
vn 0.3822 0.0496 0.9227
vn -0.3822 0.0496 0.9227
vn -0.9227 0.0496 0.3822
vn -0.9227 0.0496 -0.3822
vn -0.3822 0.0496 -0.9227
vn -0.0282 0.9973 -0.0680
vn -0.8423 -0.4108 -0.3489
vn 0.0282 0.9973 -0.0680
vn -0.3489 -0.4108 -0.8423
vn 0.0680 0.9973 -0.0282
vn 0.3489 -0.4108 -0.8423
vn 0.0680 0.9973 0.0282
vn 0.8423 -0.4108 -0.3489
vn -0.0000 0.6493 -0.7605
vn -0.0000 0.7605 0.6493
vn -0.0000 -0.7605 -0.6493
vn 0.0001 1.0000 -0.0000
vt 1.000000 0.500000
vt 0.000000 0.500000
vt 0.750000 0.490000
vt 0.000000 1.000000
vt 1.000000 1.000000
vt 0.919706 0.419706
vt 0.875000 0.500000
vt 0.875000 1.000000
vt 0.990000 0.250000
vt 0.750000 0.500000
vt 0.750000 1.000000
vt 0.919706 0.080294
vt 0.625000 0.500000
vt 0.625000 1.000000
vt 0.500000 0.500000
vt 0.750000 0.010000
vt 0.500000 1.000000
vt 0.580294 0.080294
vt 0.375000 0.500000
vt 0.375000 1.000000
vt 0.250000 0.500000
vt 0.510000 0.250000
vt 0.250000 1.000000
vt 0.580294 0.419706
vt 0.125000 0.500000
vt 0.125000 1.000000
vt 0.875000 1.000000
vt 0.000000 1.000000
vt 1.000000 1.000000
vt 0.750000 1.000000
vt 0.625000 1.000000
vt 0.500000 1.000000
vt 0.375000 1.000000
vt 0.250000 1.000000
vt 0.125000 1.000000
vt 0.875000 1.000000
vt 0.000000 1.000000
vt 1.000000 1.000000
vt 0.750000 1.000000
vt 0.625000 1.000000
vt 0.500000 1.000000
vt 0.375000 1.000000
vt 0.250000 1.000000
vt 0.125000 1.000000
vt 0.875000 1.000000
vt 0.000000 1.000000
vt 1.000000 1.000000
vt 0.750000 1.000000
vt 0.625000 1.000000
vt 0.500000 1.000000
vt 0.375000 1.000000
vt 0.250000 1.000000
vt 0.125000 1.000000
vt 0.875000 1.000000
vt 1.000000 1.000000
vt 0.000000 1.000000
vt 0.750000 1.000000
vt 0.625000 1.000000
vt 0.500000 1.000000
vt 0.375000 1.000000
vt 0.250000 1.000000
vt 0.125000 1.000000
vt 0.875000 1.000000
vt 0.000000 1.000000
vt 1.000000 1.000000
vt 0.750000 1.000000
vt 0.625000 1.000000
vt 0.500000 1.000000
vt 0.375000 1.000000
vt 0.250000 1.000000
vt 0.125000 1.000000
vt 0.875000 1.000000
vt 0.000000 1.000000
vt 1.000000 1.000000
vt 0.750000 1.000000
vt 0.625000 1.000000
vt 0.500000 1.000000
vt 0.375000 1.000000
vt 0.250000 1.000000
vt 0.125000 1.000000
vt 0.419706 0.419706
vt 0.875000 1.000000
vt 0.000000 1.000000
vt 0.250000 0.490000
vt 1.000000 1.000000
vt 0.490000 0.250000
vt 0.750000 1.000000
vt 0.419706 0.080294
vt 0.625000 1.000000
vt 0.250000 0.010000
vt 0.500000 1.000000
vt 0.080294 0.080294
vt 0.375000 1.000000
vt 0.010000 0.250000
vt 0.250000 1.000000
vt 0.125000 1.000000
vt 0.080294 0.419706
vt 0.000000 0.585417
vt 1.000000 0.585417
vt 0.875000 0.585417
vt 0.750000 0.585417
vt 0.625000 0.585417
vt 0.500000 0.585417
vt 0.375000 0.585417
vt 0.250000 0.585417
vt 0.125000 0.585417
vt 0.875000 0.513926
vt 0.750000 0.513926
vt 0.625000 0.513926
vt 0.500000 0.513926
vt 0.375000 0.513926
vt 0.250000 0.513926
vt 0.125000 0.513926
vt 0.000000 0.513926
vt 1.000000 0.513926
vt 0.000000 0.543350
vt 1.000000 0.543350
vt 0.875000 0.543350
vt 0.750000 0.543350
vt 0.625000 0.543350
vt 0.500000 0.543350
vt 0.375000 0.543350
vt 0.250000 0.543350
vt 0.125000 0.543350
vt 0.875000 0.522671
vt 0.875000 0.513926
vt 0.750000 0.522671
vt 0.750000 0.513926
vt 0.625000 0.522671
vt 0.625000 0.513926
vt 0.500000 0.522671
vt 0.500000 0.513926
vt 0.375000 0.522671
vt 0.375000 0.513926
vt 0.250000 0.522671
vt 0.250000 0.513926
vt 0.125000 0.522671
vt 0.125000 0.513926
vt 0.000000 0.513926
vt 1.000000 0.513926
vt 1.000000 0.522671
vt 0.000000 0.522671
vt 0.250000 1.000000
vt 0.230477 0.748013
vt 0.250000 1.000000
vt 0.765654 0.741697
vt 0.125000 1.000000
vt 0.238868 0.733376
vt 0.125000 1.000000
vt 0.758926 0.729961
vt 0.735998 1.000000
vt 0.375000 0.855589
vt 0.269411 0.750000
vt 0.687285 1.000000
vt 0.625000 0.859817
vt 0.734817 0.750000
vt 0.750000 1.000000
vt 0.269523 0.748013
vt 0.750000 1.000000
vt 0.734346 0.741697
vt 0.000000 1.000000
vt 1.000000 1.000000
vt 0.250000 0.728850
vt 1.000000 1.000000
vt 0.000000 1.000000
vt 0.750000 0.726332
vt 0.875000 1.000000
vt 0.261132 0.733376
vt 0.875000 1.000000
vt 0.741075 0.729961
vt 0.625000 0.890183
vt 0.312715 1.000000
vt 0.765183 0.750000
vt 0.264002 1.000000
vt 0.375000 0.894411
vt 0.230589 0.750000
s 0
f 10/21/7 82/116/7 81/115/7
f 82/116/8 14/27/8 83/117/8
f 83/117/9 16/30/9 84/118/9
f 84/118/10 18/33/10 85/119/10
f 85/119/11 20/36/11 86/120/11
f 20/36/12 87/121/12 86/120/12
f 16/30/13 29/48/13 18/33/13
f 22/39/14 88/122/14 87/121/14
f 24/42/15 81/114/15 88/122/15
f 13/25/13 17/32/13 21/38/13
f 32/51/16 34/53/16 26/44/16
f 22/39/13 32/51/13 24/42/13
f 14/27/13 25/43/13 27/46/13
f 18/33/13 30/49/13 20/36/13
f 24/42/13 26/44/13 10/20/13
f 10/21/13 25/43/13 12/24/13
f 14/27/13 28/47/13 16/30/13
f 20/36/13 31/50/13 22/39/13
f 38/58/17 45/66/17 46/67/17
f 30/49/18 39/59/18 31/50/18
f 28/47/19 37/57/19 29/48/19
f 25/43/20 35/55/20 27/46/20
f 31/50/21 40/60/21 32/51/21
f 29/48/22 38/58/22 30/49/22
f 27/46/23 36/56/23 28/47/23
f 26/45/24 33/52/24 25/43/24
f 43/64/25 52/74/25 44/65/25
f 36/56/17 43/64/17 44/65/17
f 33/52/17 42/63/17 41/61/17
f 40/60/17 42/62/17 34/53/17
f 38/58/17 47/68/17 39/59/17
f 36/56/17 45/66/17 37/57/17
f 33/52/17 43/64/17 35/55/17
f 39/59/17 48/69/17 40/60/17
f 63/86/26 124/165/26 122/161/26
f 56/78/26 121/159/26 123/163/26
f 42/63/27 49/70/27 41/61/27
f 48/69/28 50/72/28 42/62/28
f 46/67/29 55/77/29 47/68/29
f 44/65/30 53/75/30 45/66/30
f 41/61/31 51/73/31 43/64/31
f 47/68/32 56/78/32 48/69/32
f 45/66/33 54/76/33 46/67/33
f 61/84/34 68/92/34 69/93/34
f 53/75/35 62/85/35 54/76/35
f 52/74/36 51/73/36 126/170/36
f 130/180/37 57/79/37 132/185/37
f 50/71/37 131/183/37 49/70/37
f 64/87/38 130/181/38 124/165/38
f 50/72/38 123/163/38 129/177/38
f 55/77/39 54/76/39 133/188/39
f 52/74/40 61/84/40 53/75/40
f 132/185/41 59/82/41 128/175/41
f 127/173/41 49/70/41 131/183/41
f 66/89/42 80/112/42 74/99/42
f 57/79/43 67/91/43 59/82/43
f 63/86/44 72/96/44 64/87/44
f 62/85/45 69/93/45 70/94/45
f 59/82/46 68/92/46 60/83/46
f 58/81/47 65/88/47 57/79/47
f 64/87/48 66/89/48 58/80/48
f 63/86/49 70/94/49 71/95/49
f 76/104/17 73/97/17 80/113/17
f 70/94/50 79/111/50 71/95/50
f 68/92/51 77/107/51 69/93/51
f 65/88/52 75/103/52 67/91/52
f 72/96/53 79/111/53 80/112/53
f 69/93/54 78/109/54 70/94/54
f 68/92/55 75/103/55 76/105/55
f 65/88/56 74/101/56 73/98/56
f 104/140/57 81/114/57 97/132/57
f 103/139/58 88/122/58 104/140/58
f 86/120/59 103/139/59 102/138/59
f 85/119/60 102/138/60 101/137/60
f 84/118/61 101/137/61 100/136/61
f 99/135/62 84/118/62 100/136/62
f 82/116/63 99/135/63 98/134/63
f 97/133/64 82/116/64 98/134/64
f 96/131/65 11/23/65 9/17/65
f 89/123/66 13/26/66 11/23/66
f 13/26/67 91/125/67 15/29/67
f 15/29/68 92/126/68 17/31/68
f 92/126/69 19/35/69 17/31/69
f 19/35/70 94/128/70 21/37/70
f 94/128/71 23/41/71 21/37/71
f 23/41/72 96/130/72 9/18/72
f 103/139/73 113/149/73 102/138/73
f 95/129/74 116/152/74 118/154/74
f 102/138/75 111/147/75 101/137/75
f 93/127/76 116/152/76 94/128/76
f 101/137/77 109/145/77 100/136/77
f 93/127/78 112/148/78 114/150/78
f 100/136/79 107/143/79 99/135/79
f 92/126/80 110/146/80 112/148/80
f 120/157/81 106/142/81 119/156/81
f 105/141/82 108/144/82 106/142/82
f 107/143/83 110/146/83 108/144/83
f 110/146/84 111/147/84 112/148/84
f 111/147/85 114/150/85 112/148/85
f 113/149/86 116/152/86 114/150/86
f 115/151/87 118/154/87 116/152/87
f 118/154/88 120/158/88 119/155/88
f 95/129/89 119/155/89 96/130/89
f 104/140/90 115/151/90 103/139/90
f 89/123/91 119/156/91 106/142/91
f 97/132/92 117/153/92 104/140/92
f 90/124/93 106/142/93 108/144/93
f 97/133/94 105/141/94 120/157/94
f 90/124/95 110/146/95 91/125/95
f 99/135/96 105/141/96 98/134/96
f 126/171/97 134/191/97 133/187/97
f 121/160/98 125/169/98 131/184/98
f 128/176/99 133/189/99 124/166/99
f 10/21/7 12/24/7 82/116/7
f 82/116/8 12/24/8 14/27/8
f 83/117/9 14/27/9 16/30/9
f 84/118/10 16/30/10 18/33/10
f 85/119/11 18/33/11 20/36/11
f 20/36/12 22/39/12 87/121/12
f 16/30/13 28/47/13 29/48/13
f 22/39/14 24/42/14 88/122/14
f 24/42/15 10/20/15 81/114/15
f 21/38/13 23/40/13 9/19/13
f 9/19/13 11/22/13 13/25/13
f 13/25/13 15/28/13 17/32/13
f 17/32/13 19/34/13 21/38/13
f 21/38/13 9/19/13 13/25/13
f 32/51/16 40/60/16 34/53/16
f 22/39/13 31/50/13 32/51/13
f 14/27/13 12/24/13 25/43/13
f 18/33/13 29/48/13 30/49/13
f 24/42/13 32/51/13 26/44/13
f 10/21/13 26/45/13 25/43/13
f 14/27/13 27/46/13 28/47/13
f 20/36/13 30/49/13 31/50/13
f 38/58/17 37/57/17 45/66/17
f 30/49/18 38/58/18 39/59/18
f 28/47/19 36/56/19 37/57/19
f 25/43/20 33/52/20 35/55/20
f 31/50/21 39/59/21 40/60/21
f 29/48/22 37/57/22 38/58/22
f 27/46/23 35/55/23 36/56/23
f 26/45/24 34/54/24 33/52/24
f 43/64/25 51/73/25 52/74/25
f 36/56/17 35/55/17 43/64/17
f 33/52/17 34/54/17 42/63/17
f 40/60/17 48/69/17 42/62/17
f 38/58/17 46/67/17 47/68/17
f 36/56/17 44/65/17 45/66/17
f 33/52/17 41/61/17 43/64/17
f 39/59/17 47/68/17 48/69/17
f 63/86/26 64/87/26 124/165/26
f 56/78/26 55/77/26 121/159/26
f 42/63/27 50/71/27 49/70/27
f 48/69/28 56/78/28 50/72/28
f 46/67/29 54/76/29 55/77/29
f 44/65/30 52/74/30 53/75/30
f 41/61/31 49/70/31 51/73/31
f 47/68/32 55/77/32 56/78/32
f 45/66/33 53/75/33 54/76/33
f 61/84/34 60/83/34 68/92/34
f 53/75/35 61/84/35 62/85/35
f 126/170/36 128/175/36 59/82/36
f 59/82/36 60/83/36 52/74/36
f 51/73/36 127/173/36 125/167/36
f 126/170/36 59/82/36 52/74/36
f 51/73/36 125/167/36 126/170/36
f 130/180/37 58/81/37 57/79/37
f 50/71/37 129/178/37 131/183/37
f 64/87/38 58/80/38 130/181/38
f 50/72/38 56/78/38 123/163/38
f 54/76/39 62/85/39 63/86/39
f 63/86/39 122/161/39 133/188/39
f 134/190/39 121/159/39 55/77/39
f 54/76/39 63/86/39 133/188/39
f 133/188/39 134/190/39 55/77/39
f 52/74/40 60/83/40 61/84/40
f 132/185/41 57/79/41 59/82/41
f 127/173/41 51/73/41 49/70/41
f 66/89/42 72/96/42 80/112/42
f 57/79/43 65/88/43 67/91/43
f 63/86/44 71/95/44 72/96/44
f 62/85/45 61/84/45 69/93/45
f 59/82/46 67/91/46 68/92/46
f 58/81/47 66/90/47 65/88/47
f 64/87/48 72/96/48 66/89/48
f 63/86/49 62/85/49 70/94/49
f 80/113/17 79/110/17 78/108/17
f 78/108/17 77/106/17 76/104/17
f 76/104/100 75/102/100 73/97/100
f 73/97/17 74/100/17 80/113/17
f 80/113/17 78/108/17 76/104/17
f 70/94/50 78/109/50 79/111/50
f 68/92/51 76/105/51 77/107/51
f 65/88/52 73/98/52 75/103/52
f 72/96/53 71/95/53 79/111/53
f 69/93/54 77/107/54 78/109/54
f 68/92/55 67/91/55 75/103/55
f 65/88/56 66/90/56 74/101/56
f 104/140/57 88/122/57 81/114/57
f 103/139/58 87/121/58 88/122/58
f 86/120/59 87/121/59 103/139/59
f 85/119/60 86/120/60 102/138/60
f 84/118/61 85/119/61 101/137/61
f 99/135/62 83/117/62 84/118/62
f 82/116/63 83/117/63 99/135/63
f 97/133/64 81/115/64 82/116/64
f 96/131/65 89/123/65 11/23/65
f 89/123/66 90/124/66 13/26/66
f 13/26/67 90/124/67 91/125/67
f 15/29/68 91/125/68 92/126/68
f 92/126/69 93/127/69 19/35/69
f 19/35/70 93/127/70 94/128/70
f 94/128/71 95/129/71 23/41/71
f 23/41/72 95/129/72 96/130/72
f 103/139/73 115/151/73 113/149/73
f 95/129/74 94/128/74 116/152/74
f 102/138/75 113/149/75 111/147/75
f 93/127/76 114/150/76 116/152/76
f 101/137/77 111/147/77 109/145/77
f 93/127/78 92/126/78 112/148/78
f 100/136/79 109/145/79 107/143/79
f 92/126/80 91/125/80 110/146/80
f 120/157/81 105/141/81 106/142/81
f 105/141/82 107/143/82 108/144/82
f 107/143/83 109/145/83 110/146/83
f 110/146/84 109/145/84 111/147/84
f 111/147/85 113/149/85 114/150/85
f 113/149/86 115/151/86 116/152/86
f 115/151/87 117/153/87 118/154/87
f 118/154/88 117/153/88 120/158/88
f 95/129/89 118/154/89 119/155/89
f 104/140/90 117/153/90 115/151/90
f 89/123/91 96/131/91 119/156/91
f 97/132/92 120/158/92 117/153/92
f 90/124/93 89/123/93 106/142/93
f 97/133/94 98/134/94 105/141/94
f 90/124/95 108/144/95 110/146/95
f 99/135/96 107/143/96 105/141/96
f 126/171/97 125/168/97 134/191/97
f 129/179/98 123/164/98 121/160/98
f 121/160/98 134/192/98 125/169/98
f 125/169/98 127/174/98 131/184/98
f 131/184/98 129/179/98 121/160/98
f 130/182/99 132/186/99 128/176/99
f 128/176/99 126/172/99 133/189/99
f 133/189/99 122/162/99 124/166/99
f 124/166/99 130/182/99 128/176/99