# Blender 3.1.0
# www.blender.org
o Base.007
v -0.500000 0.000000 -0.500000
v 0.500000 0.187500 -0.500000
v 0.500000 0.000000 -0.500000
v 0.500000 -0.000000 0.500000
v -0.500000 0.187500 0.500000
v -0.500000 -0.000000 0.500000
v -0.500000 0.187500 -0.500000
v 0.500000 0.187500 0.500000
vn -0.0000 -0.0000 -1.0000
vn -0.0000 -0.0000 1.0000
vn -0.0000 1.0000 -0.0000
vn -0.0000 -1.0000 -0.0000
vn 1.0000 -0.0000 -0.0000
vn -1.0000 -0.0000 -0.0000
vt 0.250000 0.851563
vt 0.375000 1.000000
vt 0.125000 0.875000
vt 0.250000 1.000000
vt 0.125000 0.851563
vt 0.250000 0.875000
vt 0.000000 0.851563
vt 0.500000 0.851563
vt 0.250000 1.000000
vt 0.375000 0.875000
vt 0.375000 0.875000
vt 0.375000 0.851563
vt 0.250000 0.875000
vt 0.500000 0.875000
vt 0.125000 1.000000
vt 0.000000 0.875000
s 0
f 1/1/1 2/3/1 3/5/1
f 4/8/2 5/10/2 6/12/2
f 7/13/3 8/15/3 2/3/3
f 6/11/4 3/4/4 4/6/4
f 3/5/5 8/16/5 4/7/5
f 6/12/6 7/13/6 1/1/6
f 1/1/1 7/13/1 2/3/1
f 4/8/2 8/14/2 5/10/2
f 7/13/3 5/9/3 8/15/3
f 6/11/4 1/2/4 3/4/4
f 3/5/5 2/3/5 8/16/5
f 6/12/6 5/10/6 7/13/6
o Cylinder.003
v -0.114805 0.350000 -0.277164
v 0.114805 0.150000 -0.277164
v -0.114805 0.150000 -0.277164
v 0.114805 0.350000 -0.277164
v 0.277164 0.150000 -0.114805
v 0.277164 0.350000 -0.114805
v 0.277164 0.150000 0.114805
v 0.277164 0.350000 0.114805
v 0.114805 0.150000 0.277164
v 0.114805 0.350000 0.277164
v -0.114805 0.150000 0.277164
v -0.114805 0.350000 0.277164
v -0.277164 0.150000 0.114805
v 0.071756 0.533573 0.173233
v -0.277164 0.350000 0.114805
v -0.277164 0.150000 -0.114805
v -0.277164 0.350000 -0.114805
v -0.071756 0.533573 -0.173233
v 0.071756 0.903884 -0.173233
v 0.071756 0.533573 -0.173233
v -0.173233 0.533573 0.071756
v -0.173233 0.533573 -0.071756
v 0.173233 0.533573 -0.071756
v -0.071756 0.533573 0.173233
v 0.173233 0.533573 0.071756
v -0.173233 0.903884 0.071756
v -0.111354 0.964020 -0.046124
v -0.173233 0.903884 -0.071756
v -0.071756 0.903884 -0.173233
v 0.071756 0.903884 0.173233
v 0.173233 0.903884 -0.071756
v -0.071756 0.903884 0.173233
v 0.173233 0.903884 0.071756
v 0.046124 0.964020 -0.111354
v 0.111354 1.030486 -0.046124
v 0.111354 0.964020 -0.046124
v 0.046124 0.964020 0.111354
v -0.046124 0.964020 0.111354
v 0.111354 0.964020 0.046124
v -0.046124 0.964020 -0.111354
v -0.111354 0.964020 0.046124
v -0.111354 1.030486 -0.046124
v -0.068678 1.093787 -0.165805
v -0.046124 1.030486 -0.111354
v -0.046124 1.030486 0.111354
v 0.111354 1.030486 0.046124
v 0.046124 1.030486 -0.111354
v -0.111354 1.030486 0.046124
v 0.046124 1.030486 0.111354
v 0.165805 1.093787 -0.068678
v 0.165805 1.388137 0.068678
v 0.165805 1.093787 0.068678
v -0.068678 1.093787 0.165805
v -0.165805 1.093787 0.068678
v 0.068678 1.093787 0.165805
v -0.165805 1.093787 -0.068678
v 0.068678 1.093787 -0.165805
v -0.165805 1.388137 -0.068678
v -0.214927 1.435613 0.089026
v -0.214927 1.435613 -0.089026
v 0.068678 1.388137 -0.165805
v -0.068678 1.388137 -0.165805
v -0.165805 1.388137 0.068678
v 0.068678 1.388137 0.165805
v 0.165805 1.388137 -0.068678
v -0.068678 1.388137 0.165805
v 0.214927 1.435613 0.089026
v 0.089026 1.581205 0.214927
v 0.089026 1.435613 0.214927
v -0.089026 1.435613 0.214927
v 0.089026 1.435613 -0.214927
v -0.089026 1.435613 -0.214927
v 0.214927 1.435613 -0.089026
v -0.214927 1.581205 -0.089026
v -0.066757 1.581205 -0.161165
v -0.089026 1.581205 -0.214927
v 0.214927 1.581205 -0.089026
v -0.089026 1.581205 0.214927
v 0.214927 1.581205 0.089026
v 0.089026 1.581205 -0.214927
v -0.214927 1.581205 0.089026
v 0.066757 1.581205 0.161165
v -0.027678 1.713082 0.066820
v -0.066757 1.581205 0.161165
v -0.161165 1.581205 0.066757
v 0.161165 1.581205 0.066757
v 0.066757 1.581205 -0.161165
v 0.161165 1.581205 -0.066757
v -0.161165 1.581205 -0.066757
v -0.161165 1.732863 0.066757
v 0.089026 1.732863 0.214927
v -0.214927 1.732863 -0.089026
v 0.161165 1.732863 0.066757
v -0.066820 1.713082 0.027678
v 0.027678 1.713082 0.066820
v 0.066820 1.713082 -0.027678
v 0.066820 1.713082 0.027678
v -0.027678 1.713082 -0.066820
v 0.027678 1.713082 -0.066820
v -0.066820 1.713082 -0.027678
v -0.214927 1.732863 0.089026
v -0.161165 1.732863 -0.066757
v -0.066757 1.732863 0.161165
v -0.089026 1.732863 0.214927
v 0.214927 1.732863 -0.089026
v 0.214927 1.732863 0.089026
v -0.089026 1.732863 -0.214927
v 0.066757 1.732863 -0.161165
v 0.089026 1.732863 -0.214927
v -0.066757 1.732863 -0.161165
v 0.161165 1.732863 -0.066757
v 0.066757 1.732863 0.161165
v -0.043131 1.767451 0.043131
v -0.043131 1.681189 -0.043131
v -0.043131 1.681189 0.043131
v -0.043131 1.767451 -0.043131
v 0.043131 1.681189 -0.043131
v 0.043131 1.767451 -0.043131
v 0.043131 1.681189 0.043131
v 0.043131 1.767451 0.043131
v -0.043131 1.812289 -0.043131
v 0.043131 1.886140 -0.043131
v 0.043131 1.812289 -0.043131
v -0.043131 1.812289 0.043131
v 0.043131 1.812289 0.043131
v 0.019670 1.957354 0.019670
v 0.043131 1.886140 0.043131
v 0.102741 1.875721 0.030960
v -0.102741 1.875721 -0.030960
v -0.043131 1.886140 -0.043131
v -0.043131 1.886140 0.043131
v -0.019670 1.957354 -0.019670
v 0.019670 1.957354 -0.019670
v -0.019670 1.957354 0.019670
v -0.102741 1.822709 0.030960
v -0.102741 1.822709 -0.030960
v -0.102741 1.875721 0.030960
v 0.102741 1.822709 -0.030960
v 0.102741 1.822709 0.030960
v 0.102741 1.875721 -0.030960
vn -0.0000 -0.0000 -1.0000
vn 0.7071 -0.0000 -0.7071
vn 1.0000 -0.0000 -0.0000
vn 0.7071 -0.0000 0.7071
vn -0.0000 -0.0000 1.0000
vn -0.7071 -0.0000 0.7071
vn 0.6153 0.4927 0.6153
vn -1.0000 -0.0000 -0.0000
vn -0.7071 -0.0000 -0.7071
vn -0.0000 -1.0000 -0.0000
vn -0.8702 0.4927 -0.0000
vn 0.6153 0.4927 -0.6153
vn -0.0000 0.4927 0.8702
vn -0.6153 0.4927 -0.6153
vn -0.0000 0.4927 -0.8702
vn 0.8702 0.4927 -0.0000
vn -0.6153 0.4927 0.6153
vn -0.6969 0.7171 -0.0000
vn -0.0000 0.7171 0.6969
vn 0.6969 0.7171 -0.0000
vn -0.0000 0.7171 -0.6969
vn -0.4928 0.7171 -0.4928
vn -0.4928 0.7171 0.4928
vn 0.4928 0.7171 0.4928
vn 0.4928 0.7171 -0.4928
vn -0.5361 -0.6521 -0.5361
vn -0.5361 -0.6521 0.5361
vn 0.5361 -0.6521 0.5361
vn 0.5361 -0.6521 -0.5361
vn -0.7581 -0.6521 -0.0000
vn -0.0000 -0.6521 0.7581
vn 0.7581 -0.6521 -0.0000
vn -0.0000 -0.6521 -0.7581
vn -0.6950 -0.7191 -0.0000
vn -0.0000 -0.7191 0.6950
vn 0.6950 -0.7191 -0.0000
vn -0.0000 -0.7191 -0.6950
vn -0.4914 -0.7191 -0.4914
vn -0.4914 -0.7191 0.4914
vn 0.4914 -0.7191 0.4914
vn 0.4914 -0.7191 -0.4914
vn -0.0000 1.0000 -0.0000
vn -0.0000 0.5818 0.8133
vn 0.9239 -0.0000 -0.3827
vn -0.3827 -0.0000 0.9239
vn 0.8133 0.5818 -0.0000
vn -0.0000 0.5818 -0.8133
vn -0.5751 0.5818 -0.5751
vn -0.5752 0.5823 -0.5745
vn -0.5751 0.5818 0.5751
vn -0.5747 0.5824 0.5750
vn 0.5751 0.5818 0.5751
vn 0.5751 0.5818 -0.5751
vn -0.8133 0.5818 -0.0000
vn 0.9239 -0.0000 0.3827
vn -0.3827 -0.0000 -0.9239
vn 0.3827 -0.0000 -0.9239
vn -0.9239 -0.0000 0.3827
vn -0.9239 -0.0000 -0.3827
vn 0.3827 -0.0000 0.9239
vn 0.9496 0.3134 0.0002
vn 0.9498 0.3129 -0.0000
vn 0.9496 0.3135 -0.0000
vn 0.2001 -0.0000 0.9798
vn -0.2001 -0.0000 -0.9798
vn -0.9496 0.3134 -0.0002
vn -0.9498 0.3129 -0.0000
vn -0.9496 0.3135 -0.0000
vn -0.0002 0.3134 0.9496
vn -0.0000 0.3129 0.9498
vn -0.0000 0.3135 0.9496
vn 0.0002 0.3134 -0.9496
vn -0.0000 0.3129 -0.9498
vn -0.0000 0.3135 -0.9496
vn -0.1722 0.9851 -0.0000
vn -0.2000 -0.0000 0.9798
vn -0.1727 -0.9850 -0.0004
vn -0.1722 -0.9851 -0.0000
vn 0.1722 0.9851 -0.0000
vn 0.1727 -0.9850 0.0004
vn 0.1722 -0.9851 -0.0000
vn 0.2000 -0.0000 -0.9798
vn -0.5746 0.5824 -0.5749
vn -0.5752 0.5823 0.5746
vn 0.9496 0.3134 -0.0000
vn 0.2000 -0.0000 0.9798
vn -0.2000 -0.0000 -0.9798
vn -0.9496 0.3134 -0.0000
vn -0.0000 0.3134 0.9496
vn -0.0000 0.3134 -0.9496
vn -0.2001 -0.0000 0.9798
vn -0.1729 -0.9849 -0.0000
vn -0.1728 -0.9850 -0.0000
vn 0.1729 -0.9849 -0.0000
vn 0.1728 -0.9850 -0.0000
vn 0.2001 -0.0000 -0.9798
vt 0.000000 1.000000
vt 1.000000 1.000000
vt 0.875000 0.500000
vt 0.919706 0.419706
vt 1.000000 0.500000
vt 0.000000 0.500000
vt 0.750000 0.490000
vt 0.875000 1.000000
vt 0.750000 0.500000
vt 0.990000 0.250000
vt 0.750000 1.000000
vt 0.625000 0.500000
vt 0.919706 0.080294
vt 0.625000 1.000000
vt 0.500000 0.500000
vt 0.750000 0.010000
vt 0.500000 1.000000
vt 0.375000 0.500000
vt 0.580294 0.080294
vt 0.375000 1.000000
vt 0.250000 0.500000
vt 0.510000 0.250000
vt 0.500000 1.000000
vt 0.250000 1.000000
vt 0.125000 0.500000
vt 0.580294 0.419706
vt 0.125000 1.000000
vt 0.000000 1.000000
vt 1.000000 1.000000
vt 0.875000 1.000000
vt 0.875000 1.000000
vt 0.250000 1.000000
vt 0.125000 1.000000
vt 0.750000 1.000000
vt 0.375000 1.000000
vt 0.625000 1.000000
vt 0.250000 1.000000
vt 0.125000 1.000000
vt 0.125000 1.000000
vt 1.000000 1.000000
vt 0.000000 1.000000
vt 0.500000 1.000000
vt 0.750000 1.000000
vt 0.375000 1.000000
vt 0.625000 1.000000
vt 0.875000 1.000000
vt 0.750000 1.000000
vt 0.750000 1.000000
vt 0.500000 1.000000
vt 0.375000 1.000000
vt 0.625000 1.000000
vt 0.000000 1.000000
vt 1.000000 1.000000
vt 0.250000 1.000000
vt 0.125000 1.000000
vt 0.000000 1.000000
vt 1.000000 1.000000
vt 0.000000 1.000000
vt 1.000000 1.000000
vt 0.375000 1.000000
vt 0.625000 1.000000
vt 0.875000 1.000000
vt 0.250000 1.000000
vt 0.500000 1.000000
vt 0.750000 1.000000
vt 0.625000 1.000000
vt 0.625000 1.000000
vt 0.375000 1.000000
vt 0.250000 1.000000
vt 0.500000 1.000000
vt 0.125000 1.000000
vt 0.875000 1.000000
vt 0.125000 1.000000
vt 0.250000 1.000000
vt 0.125000 1.000000
vt 0.875000 1.000000
vt 0.000000 1.000000
vt 1.000000 1.000000
vt 0.250000 1.000000
vt 0.500000 1.000000
vt 0.750000 1.000000
vt 0.375000 1.000000
vt 0.625000 1.000000
vt 0.500000 1.000000
vt 0.500000 1.000000
vt 0.375000 1.000000
vt 0.875000 1.000000
vt 0.000000 1.000000
vt 1.000000 1.000000
vt 0.750000 1.000000
vt 0.125000 1.000000
vt 1.000000 1.000000
vt 0.000000 1.000000
vt 0.000000 1.000000
vt 1.000000 1.000000
vt 0.750000 1.000000
vt 0.375000 1.000000
vt 0.625000 1.000000
vt 0.875000 1.000000
vt 0.250000 1.000000
vt 0.500000 1.000000
vt 0.080294 0.080294
vt 0.375000 1.000000
vt 0.375000 1.000000
vt 0.250000 1.000000
vt 0.625000 1.000000
vt 0.875000 1.000000
vt 0.750000 1.000000
vt 0.125000 1.000000
vt 0.250000 1.000000
vt 0.500000 1.000000
vt 0.125000 1.000000
vt 0.625000 1.000000
vt 0.010000 0.250000
vt 0.250000 1.000000
vt 0.500000 1.000000
vt 0.250000 0.010000
vt 0.490000 0.250000
vt 0.750000 1.000000
vt 0.419706 0.080294
vt 0.625000 1.000000
vt 0.250000 0.490000
vt 1.000000 1.000000
vt 0.000000 1.000000
vt 0.419706 0.419706
vt 0.875000 1.000000
vt 0.080294 0.419706
vt 0.125000 1.000000
vt 0.250000 1.000000
vt 0.125000 1.000000
vt 0.375000 1.000000
vt 0.375000 1.000000
vt 0.750000 1.000000
vt 0.625000 1.000000
vt 1.000000 1.000000
vt 0.000000 1.000000
vt 0.875000 1.000000
vt 0.875000 1.000000
vt 1.000000 1.000000
vt 0.000000 1.000000
vt 0.750000 1.000000
vt 0.500000 1.000000
vt 0.625000 1.000000
vt 0.625000 0.000000
vt 0.125000 0.500000
vt 0.375000 0.250000
vt 0.375000 0.000000
vt 0.375000 1.000000
vt 0.125000 0.750000
vt 0.625000 0.250000
vt 0.375000 0.500000
vt 0.625000 0.500000
vt 0.375000 0.750000
vt 0.625000 0.750000
vt 0.625000 0.250000
vt 0.625000 0.500000
vt 0.625000 0.500000
vt 0.625000 1.000000
vt 0.625000 0.000000
vt 0.625000 0.750000
vt 0.625000 0.750000
vt 0.625000 0.750000
vt 0.625000 0.750000
vt 0.625000 0.250000
vt 0.625000 0.250000
vt 0.625000 0.000000
vt 0.625000 1.000000
vt 0.875000 0.500000
vt 0.625000 0.250000
vt 0.625000 0.500000
vt 0.875000 0.750000
vt 0.625000 0.000000
vt 0.625000 1.000000
vt 0.625000 1.000000
vt 0.625000 0.000000
vt 0.625000 0.250000
vt 0.625000 0.000000
vt 0.625000 1.000000
vt 0.625000 0.500000
vt 0.625000 0.750000
vt 0.625000 0.500000
s 0
f 9/18/7 10/19/7 11/21/7
f 12/24/8 13/25/8 10/19/8
f 14/27/9 15/28/9 13/25/9
f 16/30/10 17/31/10 15/28/10
f 18/33/11 19/34/11 17/31/11
f 20/36/12 21/37/12 19/34/12
f 16/30/13 22/39/13 18/33/13
f 23/40/14 24/41/14 21/37/14
f 25/43/15 11/22/15 24/41/15
f 15/29/16 19/35/16 24/42/16
f 26/45/7 27/46/7 28/47/7
f 25/43/17 29/48/17 30/49/17
f 12/24/18 31/50/18 14/27/18
f 20/36/19 22/39/19 32/51/19
f 9/17/20 30/49/20 26/44/20
f 9/18/21 28/47/21 12/24/21
f 14/27/22 33/52/22 16/30/22
f 23/40/23 32/51/23 29/48/23
f 34/53/24 35/54/24 36/55/24
f 30/49/15 37/57/15 26/44/15
f 32/51/12 34/53/12 29/48/12
f 33/52/10 38/58/10 22/39/10
f 28/47/8 39/59/8 31/50/8
f 29/48/14 36/55/14 30/49/14
f 22/39/11 40/60/11 32/51/11
f 31/50/9 41/61/9 33/52/9
f 42/62/8 43/63/8 44/64/8
f 40/60/25 45/65/25 46/66/25
f 39/59/26 47/67/26 41/61/26
f 27/46/27 48/69/27 42/62/27
f 37/57/28 35/54/28 48/68/28
f 34/53/29 46/66/29 49/70/29
f 38/58/30 47/67/30 45/65/30
f 27/46/31 44/64/31 39/59/31
f 50/71/32 51/72/32 52/74/32
f 49/70/14 50/71/14 35/54/14
f 45/65/11 53/76/11 46/66/11
f 44/64/9 54/77/9 47/67/9
f 48/69/7 55/78/7 42/62/7
f 35/54/15 52/74/15 48/68/15
f 46/66/12 56/79/12 49/70/12
f 47/67/10 57/80/10 45/65/10
f 58/81/9 59/82/9 60/83/9
f 56/79/33 61/84/33 62/85/33
f 54/77/34 63/86/34 57/80/34
f 55/78/35 58/81/35 43/63/35
f 56/79/36 64/87/36 50/71/36
f 57/80/37 61/84/37 53/76/37
f 43/63/38 60/83/38 54/77/38
f 52/75/39 65/88/39 55/78/39
f 66/89/40 67/90/40 68/91/40
f 51/73/7 69/92/7 65/88/7
f 64/87/15 70/93/15 51/72/15
f 61/84/12 71/95/12 62/85/12
f 60/83/10 72/96/10 63/86/10
f 65/88/8 73/97/8 58/81/8
f 62/85/14 66/89/14 64/87/14
f 63/86/11 74/98/11 61/84/11
f 75/99/10 76/100/10 77/101/10
f 74/98/41 77/101/41 78/102/41
f 73/97/42 75/99/42 59/82/42
f 70/94/43 79/103/43 69/92/43
f 66/89/44 80/104/44 70/93/44
f 74/98/45 67/90/45 71/95/45
f 59/82/46 77/101/46 72/96/46
f 73/97/47 79/103/47 81/106/47
f 82/107/48 83/109/48 84/110/48
f 79/103/8 85/112/8 81/106/8
f 67/90/14 82/107/14 68/91/14
f 77/101/11 86/113/11 78/102/11
f 81/106/9 87/114/9 75/99/9
f 80/105/7 88/115/7 79/103/7
f 68/91/15 84/110/15 80/104/15
f 78/102/12 89/116/12 67/90/12
f 90/117/49 91/119/49 92/120/49
f 86/113/48 93/121/48 89/116/48
f 76/100/48 94/122/48 90/117/48
f 85/112/48 95/123/48 96/124/48
f 97/125/9 98/126/9 93/121/9
f 90/117/50 99/127/50 76/100/50
f 89/116/14 100/128/14 82/107/14
f 87/114/51 101/129/51 94/122/51
f 102/130/48 103/133/48 104/134/48
f 94/122/52 104/135/52 105/137/52
f 95/123/53 106/139/53 107/142/53
f 97/125/54 106/140/55 83/109/54
f 93/121/56 91/119/57 102/131/56
f 90/117/58 105/137/58 103/132/58
f 95/123/59 104/135/59 96/124/59
f 93/121/60 108/144/60 97/125/60
f 109/145/48 110/146/48 100/128/48
f 99/127/48 111/147/48 112/148/48
f 113/149/48 101/129/48 114/150/48
f 115/151/48 116/153/48 117/154/48
f 84/111/7 117/154/7 88/115/7
f 88/115/61 116/153/61 95/123/61
f 95/123/11 118/155/11 83/108/11
f 96/124/62 113/149/62 85/112/62
f 82/107/63 110/146/63 97/125/63
f 85/112/9 114/150/9 87/114/9
f 83/109/64 115/152/64 84/110/64
f 94/122/14 119/157/14 96/124/14
f 86/113/65 111/147/65 92/120/65
f 76/100/11 112/148/11 86/113/11
f 93/121/66 109/145/66 89/116/66
f 92/120/7 120/158/7 90/117/7
f 121/160/14 122/162/14 123/163/14
f 124/166/7 125/167/7 122/162/7
f 126/168/9 127/169/9 125/167/9
f 128/170/11 123/164/11 127/169/11
f 125/167/16 123/165/16 122/161/16
f 121/160/14 129/171/14 124/166/14
f 129/171/7 130/172/7 131/173/7
f 128/170/11 132/174/11 121/159/11
f 124/166/7 131/173/7 126/168/7
f 126/168/9 133/176/9 128/170/9
f 130/172/67 134/177/68 135/178/69
f 133/176/70 136/179/70 135/178/70
f 129/171/71 137/180/71 138/181/71
f 133/176/11 139/183/11 132/174/11
f 140/184/48 134/177/48 141/186/48
f 139/182/72 140/185/73 138/181/74
f 135/178/75 142/189/76 139/183/77
f 138/181/78 141/186/79 130/172/80
f 143/191/14 137/180/14 144/192/14
f 138/181/81 145/193/81 139/182/81
f 139/183/82 143/190/82 132/174/82
f 132/175/83 144/192/84 129/171/84
f 146/195/9 136/179/9 147/196/9
f 135/178/85 148/197/85 130/172/85
f 131/173/86 147/196/87 133/176/87
f 130/172/88 146/195/88 131/173/88
f 9/18/7 12/24/7 10/19/7
f 12/24/8 14/27/8 13/25/8
f 14/27/9 16/30/9 15/28/9
f 16/30/10 18/33/10 17/31/10
f 18/33/11 20/36/11 19/34/11
f 20/36/12 23/40/12 21/37/12
f 16/30/13 33/52/13 22/39/13
f 23/40/14 25/43/14 24/41/14
f 25/43/15 9/17/15 11/22/15
f 24/42/16 11/23/16 10/20/16
f 10/20/16 13/26/16 15/29/16
f 15/29/16 17/32/16 19/35/16
f 19/35/16 21/38/16 24/42/16
f 24/42/16 10/20/16 15/29/16
f 26/45/7 37/56/7 27/46/7
f 25/43/17 23/40/17 29/48/17
f 12/24/18 28/47/18 31/50/18
f 20/36/19 18/33/19 22/39/19
f 9/17/20 25/43/20 30/49/20
f 9/18/21 26/45/21 28/47/21
f 14/27/22 31/50/22 33/52/22
f 23/40/23 20/36/23 32/51/23
f 34/53/24 49/70/24 35/54/24
f 30/49/15 36/55/15 37/57/15
f 32/51/12 40/60/12 34/53/12
f 33/52/10 41/61/10 38/58/10
f 28/47/8 27/46/8 39/59/8
f 29/48/14 34/53/14 36/55/14
f 22/39/11 38/58/11 40/60/11
f 31/50/9 39/59/9 41/61/9
f 42/62/8 55/78/8 43/63/8
f 40/60/25 38/58/25 45/65/25
f 39/59/26 44/64/26 47/67/26
f 27/46/27 37/56/27 48/69/27
f 37/57/28 36/55/28 35/54/28
f 34/53/29 40/60/29 46/66/29
f 38/58/30 41/61/30 47/67/30
f 27/46/31 42/62/31 44/64/31
f 50/71/32 64/87/32 51/72/32
f 49/70/14 56/79/14 50/71/14
f 45/65/11 57/80/11 53/76/11
f 44/64/9 43/63/9 54/77/9
f 48/69/7 52/75/7 55/78/7
f 35/54/15 50/71/15 52/74/15
f 46/66/12 53/76/12 56/79/12
f 47/67/10 54/77/10 57/80/10
f 58/81/9 73/97/9 59/82/9
f 56/79/33 53/76/33 61/84/33
f 54/77/34 60/83/34 63/86/34
f 55/78/35 65/88/35 58/81/35
f 56/79/36 62/85/36 64/87/36
f 57/80/37 63/86/37 61/84/37
f 43/63/38 58/81/38 60/83/38
f 52/75/39 51/73/39 65/88/39
f 66/89/40 71/95/40 67/90/40
f 51/73/7 70/94/7 69/92/7
f 64/87/15 66/89/15 70/93/15
f 61/84/12 74/98/12 71/95/12
f 60/83/10 59/82/10 72/96/10
f 65/88/8 69/92/8 73/97/8
f 62/85/14 71/95/14 66/89/14
f 63/86/11 72/96/11 74/98/11
f 75/99/10 87/114/10 76/100/10
f 74/98/41 72/96/41 77/101/41
f 73/97/42 81/106/42 75/99/42
f 70/94/43 80/105/43 79/103/43
f 66/89/44 68/91/44 80/104/44
f 74/98/45 78/102/45 67/90/45
f 59/82/46 75/99/46 77/101/46
f 73/97/47 69/92/47 79/103/47
f 82/107/48 97/125/48 83/109/48
f 79/103/8 88/115/8 85/112/8
f 67/90/14 89/116/14 82/107/14
f 77/101/11 76/100/11 86/113/11
f 81/106/9 85/112/9 87/114/9
f 80/105/7 84/111/7 88/115/7
f 68/91/15 82/107/15 84/110/15
f 78/102/12 86/113/12 89/116/12
f 90/117/49 103/132/49 91/119/49
f 86/113/48 92/120/48 93/121/48
f 76/100/48 87/114/48 94/122/48
f 85/112/48 88/115/48 95/123/48
f 97/125/9 110/146/9 98/126/9
f 90/117/50 120/158/50 99/127/50
f 89/116/14 109/145/14 100/128/14
f 87/114/51 114/150/51 101/129/51
f 104/134/48 107/141/48 106/138/48
f 106/138/48 108/143/48 102/130/48
f 102/130/48 91/118/48 103/133/48
f 103/133/48 105/136/48 104/134/48
f 104/134/48 106/138/48 102/130/48
f 94/122/52 96/124/52 104/135/52
f 95/123/53 83/108/53 106/139/53
f 97/125/54 108/144/54 106/140/89
f 93/121/56 92/120/56 91/119/90
f 90/117/58 94/122/58 105/137/58
f 95/123/59 107/142/59 104/135/59
f 93/121/60 102/131/60 108/144/60
f 109/145/48 98/126/48 110/146/48
f 99/127/48 120/158/48 111/147/48
f 113/149/48 119/157/48 101/129/48
f 115/151/48 118/155/48 116/153/48
f 84/111/7 115/151/7 117/154/7
f 88/115/61 117/154/61 116/153/61
f 95/123/11 116/153/11 118/155/11
f 96/124/62 119/157/62 113/149/62
f 82/107/63 100/128/63 110/146/63
f 85/112/9 113/149/9 114/150/9
f 83/109/64 118/156/64 115/152/64
f 94/122/14 101/129/14 119/157/14
f 86/113/65 112/148/65 111/147/65
f 76/100/11 99/127/11 112/148/11
f 93/121/66 98/126/66 109/145/66
f 92/120/7 111/147/7 120/158/7
f 121/160/14 124/166/14 122/162/14
f 124/166/7 126/168/7 125/167/7
f 126/168/9 128/170/9 127/169/9
f 128/170/11 121/159/11 123/164/11
f 125/167/16 127/169/16 123/165/16
f 121/160/14 132/175/14 129/171/14
f 129/171/7 138/181/7 130/172/7
f 128/170/11 133/176/11 132/174/11
f 124/166/7 129/171/7 131/173/7
f 126/168/9 131/173/9 133/176/9
f 130/172/91 141/186/69 134/177/68
f 133/176/92 147/196/92 136/179/92
f 129/171/93 144/192/93 137/180/93
f 133/176/11 135/178/11 139/183/11
f 140/184/48 142/187/48 134/177/48
f 139/182/94 142/188/74 140/185/73
f 135/178/95 134/177/95 142/189/76
f 138/181/96 140/185/96 141/186/79
f 143/191/14 145/193/14 137/180/14
f 138/181/81 137/180/81 145/193/81
f 139/183/97 145/194/97 143/190/97
f 132/175/98 143/191/99 144/192/84
f 146/195/9 148/197/9 136/179/9
f 135/178/85 136/179/85 148/197/85
f 131/173/100 146/195/101 147/196/87
f 130/172/102 148/197/102 146/195/102