# Blender 3.6.1
# www.blender.org
o Base
v -0.500000 -0.000000 -0.500000
v 0.500000 0.187500 -0.500000
v 0.500000 -0.000000 -0.500000
v 0.500000 0.000000 0.500000
v -0.500000 0.187500 0.500000
v -0.500000 0.000000 0.500000
v -0.500000 0.187500 -0.500000
v 0.500000 0.187500 0.500000
vn -0.0000 -0.0000 -1.0000
vn -0.0000 -0.0000 1.0000
vn -0.0000 1.0000 -0.0000
vn -0.0000 -1.0000 -0.0000
vn 1.0000 -0.0000 -0.0000
vn -1.0000 -0.0000 -0.0000
vt 0.250000 0.210938
vt 0.125000 0.234375
vt 0.125000 0.210938
vt 0.500000 0.210938
vt 0.375000 0.234375
vt 0.375000 0.210938
vt 0.250000 0.234375
vt 0.125000 0.359375
vt 0.250000 0.359375
vt 0.000000 0.234375
vt 0.000000 0.210938
vt 0.500000 0.234375
vt 0.375000 0.359375
s 0
f 1/1/1 2/2/1 3/3/1
f 4/4/2 5/5/2 6/6/2
f 7/7/3 8/8/3 2/2/3
f 6/5/4 3/9/4 4/7/4
f 3/3/5 8/10/5 4/11/5
f 6/6/6 7/7/6 1/1/6
f 1/1/1 7/7/1 2/2/1
f 4/4/2 8/12/2 5/5/2
f 7/7/3 5/9/3 8/8/3
f 6/5/4 1/13/4 3/9/4
f 3/3/5 2/2/5 8/10/5
f 6/6/6 5/5/6 7/7/6
o Rook
v 0.107151 0.710000 -0.258686
v 0.258686 0.150000 -0.107151
v 0.107151 0.150000 -0.258686
v 0.258686 0.710000 -0.107151
v 0.258686 0.150000 0.107151
v 0.258686 0.710000 0.107151
v 0.107151 0.150000 0.258686
v 0.107151 0.710000 0.258686
v -0.107151 0.150000 0.258686
v -0.107151 0.710000 0.258686
v -0.258686 0.150000 0.107151
v -0.258686 0.710000 0.107151
v -0.258686 0.150000 -0.107151
v -0.075006 0.810000 0.181080
v -0.258686 0.710000 -0.107151
v -0.107151 0.150000 -0.258686
v -0.107151 0.710000 -0.258686
v 0.075006 0.810000 -0.181080
v 0.181080 0.910000 -0.075006
v 0.181080 0.810000 -0.075006
v -0.075006 0.810000 -0.181080
v 0.181080 0.810000 0.075006
v -0.181080 0.810000 0.075006
v 0.075006 0.810000 0.181080
v -0.181080 0.810000 -0.075006
v -0.181080 0.910000 -0.075006
v -0.105008 1.010000 -0.253513
v -0.075006 0.910000 -0.181080
v 0.075006 0.910000 -0.181080
v -0.075006 0.910000 0.181080
v 0.181080 0.910000 0.075006
v -0.181080 0.910000 0.075006
v 0.075006 0.910000 0.181080
v 0.253513 1.010000 -0.105008
v 0.253513 1.310000 0.105008
v 0.253513 1.010000 0.105008
v -0.253513 1.010000 0.105008
v 0.105008 1.010000 0.253513
v 0.105008 1.010000 -0.253513
v -0.253513 1.010000 -0.105008
v -0.105008 1.010000 0.253512
v 0.105008 1.310000 -0.253513
v -0.126010 1.410000 -0.304215
v 0.126010 1.410000 -0.304215
v -0.105008 1.310000 -0.253513
v -0.253513 1.310000 0.105008
v 0.105008 1.310000 0.253513
v 0.253513 1.310000 -0.105008
v -0.253513 1.310000 -0.105008
v -0.105008 1.310000 0.253512
v 0.304215 1.410000 0.126010
v 0.086385 1.410000 0.208553
v 0.126010 1.410000 0.304215
v -0.304215 1.410000 -0.126010
v -0.126010 1.410000 0.304215
v -0.304215 1.410000 0.126010
v 0.304215 1.410000 -0.126010
v -0.086385 1.410000 -0.208553
v -0.208553 1.269573 -0.086385
v -0.086385 1.269573 -0.208553
v 0.208553 1.410000 -0.086385
v -0.126010 1.582878 0.304215
v 0.126010 1.582878 0.304215
v 0.208553 1.410000 0.086385
v 0.208553 1.582878 -0.086385
v 0.208553 1.582878 0.086385
v -0.208553 1.410000 0.086385
v -0.126010 1.582878 -0.304215
v 0.086385 1.582878 -0.208553
v 0.126010 1.582878 -0.304215
v -0.304215 1.582878 0.126010
v -0.208553 1.582878 -0.086385
v -0.304215 1.582878 -0.126010
v 0.086385 1.582878 0.208553
v -0.086385 1.582878 0.208553
v 0.304215 1.582878 -0.126010
v 0.304215 1.582878 0.126010
v 0.086385 1.410000 -0.208553
v -0.086385 1.410000 0.208553
v -0.208553 1.410000 -0.086385
v -0.208553 1.582878 0.086385
v -0.086385 1.582878 -0.208553
v -0.086385 1.269573 0.208553
v 0.208553 1.269573 0.086385
v -0.208553 1.269573 0.086385
v 0.086385 1.269573 0.208553
v 0.086385 1.269573 -0.208553
v 0.208553 1.269573 -0.086385
vn 0.7071 -0.0000 -0.7071
vn 1.0000 -0.0000 -0.0000
vn 0.7071 -0.0000 0.7071
vn -0.0000 -0.0000 1.0000
vn -0.7071 -0.0000 0.7071
vn -1.0000 -0.0000 -0.0000
vn -0.0000 0.6131 0.7900
vn -0.7071 -0.0000 -0.7071
vn -0.0000 -0.0000 -1.0000
vn -0.5584 0.6133 -0.5586
vn -0.5586 0.6131 -0.5586
vn 0.7900 0.6131 -0.0000
vn -0.5586 0.6131 0.5586
vn -0.5584 0.6135 0.5584
vn -0.0000 0.6131 -0.7900
vn 0.5586 0.6131 -0.5586
vn 0.5584 0.6135 -0.5584
vn 0.5584 0.6133 0.5586
vn 0.5586 0.6131 0.5586
vn -0.7900 0.6131 -0.0000
vn -0.5723 -0.5873 -0.5723
vn -0.5727 -0.5866 -0.5727
vn -0.5727 -0.5866 0.5727
vn -0.5723 -0.5870 0.5726
vn -0.5723 -0.5873 0.5723
vn 0.5723 -0.5873 0.5723
vn 0.5727 -0.5866 0.5727
vn 0.5727 -0.5866 -0.5727
vn 0.5721 -0.5872 -0.5726
vn 0.5723 -0.5873 -0.5723
vn -0.0000 -0.5866 -0.8099
vn -0.8099 -0.5866 -0.0000
vn -0.0000 -0.5866 0.8099
vn 0.8099 -0.5866 -0.0000
vn -0.0000 -0.4522 -0.8919
vn -0.0000 1.0000 -0.0000
vn -0.8919 -0.4522 -0.0000
vn -0.0000 -0.4522 0.8919
vn 0.8919 -0.4522 -0.0000
vn -0.6307 -0.4522 -0.6307
vn -0.6307 -0.4522 0.6307
vn 0.6307 -0.4522 0.6307
vn 0.6307 -0.4522 -0.6307
vn 0.9239 -0.0000 -0.3827
vn -0.3827 -0.0000 0.9239
vn 0.9239 -0.0000 0.3827
vn -0.3827 -0.0000 -0.9239
vn -0.9239 -0.0000 0.3827
vn 0.3827 -0.0000 0.9239
vn 0.3827 -0.0000 -0.9239
vn -0.9239 -0.0000 -0.3827
vn -0.5582 0.6135 -0.5585
vn -0.5583 0.6136 0.5583
vn 0.5583 0.6136 -0.5583
vn 0.5582 0.6135 0.5585
vn -0.5725 -0.5870 -0.5725
vn -0.5724 -0.5869 0.5726
vn 0.5725 -0.5870 0.5725
vn 0.5723 -0.5870 -0.5726
vn -0.3835 -0.0000 -0.9235
vn 0.3835 -0.0000 0.9235
vt 1.000000 1.000000
vt 0.875000 0.500000
vt 1.000000 0.500000
vt 0.875000 1.000000
vt 0.750000 0.500000
vt 0.750000 1.000000
vt 0.625000 0.500000
vt 0.625000 1.000000
vt 0.500000 0.500000
vt 0.500000 1.000000
vt 0.375000 0.500000
vt 0.375000 1.000000
vt 0.250000 0.500000
vt 0.250000 1.000000
vt 0.125000 0.500000
vt 0.125000 1.000000
vt 0.000000 0.500000
vt 0.000000 1.000000
vt 0.490000 0.250000
vt 0.419706 0.419706
vt 0.250000 0.010000
vt 0.419706 0.080294
vt 0.010000 0.250000
vt 0.080294 0.080294
vt 0.250000 0.490000
vt 0.080294 0.419706
s 0
f 9/14/7 10/15/7 11/16/7
f 12/17/8 13/18/8 10/15/8
f 14/19/9 15/20/9 13/18/9
f 16/21/10 17/22/10 15/20/10
f 18/23/11 19/24/11 17/22/11
f 20/25/12 21/26/12 19/24/12
f 16/21/13 22/23/13 18/23/13
f 23/27/14 24/28/14 21/26/14
f 25/29/15 11/30/15 24/28/15
f 26/14/7 27/17/7 28/17/7
f 23/27/16 29/29/17 25/29/17
f 12/17/18 30/19/18 14/19/18
f 18/23/19 31/25/19 20/25/20
f 25/29/21 26/31/21 9/31/21
f 9/14/22 28/17/22 12/17/23
f 14/19/24 32/21/25 16/21/25
f 23/27/26 31/25/26 33/27/26
f 34/27/27 35/29/28 36/29/28
f 29/29/15 37/31/15 26/31/15
f 31/25/12 34/27/12 33/27/12
f 32/21/10 38/23/10 22/23/10
f 30/19/8 27/17/8 39/19/8
f 33/27/14 36/29/14 29/29/14
f 22/23/11 40/25/11 31/25/11
f 30/19/9 41/21/9 32/21/9
f 42/17/8 43/19/8 44/19/8
f 38/23/29 45/25/30 40/25/31
f 39/19/32 46/21/33 41/21/33
f 37/14/34 42/17/35 27/17/36
f 36/29/37 47/31/37 37/31/37
f 40/25/38 48/27/38 34/27/38
f 41/21/39 49/23/39 38/23/39
f 27/17/40 44/19/40 39/19/40
f 50/31/41 51/29/41 52/31/41
f 48/27/14 53/29/14 35/29/14
f 49/23/11 54/25/11 45/25/11
f 44/19/9 55/21/9 46/21/9
f 47/14/7 56/17/7 42/17/7
f 35/29/15 50/31/15 47/31/15
f 45/25/12 57/27/12 48/27/12
f 46/21/10 58/23/10 49/23/10
f 59/19/42 60/21/42 61/21/42
f 54/25/43 62/27/43 57/27/43
f 55/21/44 63/23/44 58/23/44
f 56/17/45 59/19/45 43/19/45
f 57/27/46 51/29/46 53/29/46
f 58/23/47 64/25/47 54/25/47
f 43/19/48 61/21/48 55/21/48
f 56/17/49 52/14/49 65/17/49
f 66/29/9 67/27/9 68/29/9
f 52/14/42 69/17/42 65/17/42
f 61/21/10 70/23/10 63/23/10
f 60/21/50 71/21/50 61/21/50
f 72/32/12 73/33/12 69/33/12
f 59/19/51 74/19/51 72/19/51
f 62/27/42 66/29/42 51/29/42
f 63/23/42 75/25/42 64/25/42
f 76/29/42 77/31/42 78/31/42
f 79/25/42 80/27/42 81/27/42
f 70/23/42 82/21/42 83/23/42
f 84/17/42 74/19/42 85/19/42
f 52/14/52 77/14/52 86/14/52
f 87/34/15 82/35/15 60/35/15
f 69/17/53 84/17/53 65/17/53
f 64/25/12 81/27/12 62/27/12
f 66/29/54 76/29/54 51/29/54
f 88/36/8 89/37/8 75/37/8
f 75/25/55 79/25/55 64/25/55
f 51/29/15 78/31/15 52/31/15
f 62/27/56 80/27/56 88/27/56
f 86/38/10 90/39/10 66/39/10
f 65/17/8 85/19/8 59/19/8
f 63/23/57 83/23/57 87/23/57
f 67/36/42 91/34/42 92/32/42
f 87/23/7 93/25/7 75/25/7
f 72/19/14 94/21/14 60/21/14
f 69/17/11 95/14/11 96/17/11
f 66/39/10 95/38/10 86/38/10
f 75/37/8 67/36/8 88/36/8
f 60/35/15 91/34/15 87/34/15
f 72/32/12 96/33/12 92/32/12
f 9/14/7 12/17/7 10/15/7
f 12/17/8 14/19/8 13/18/8
f 14/19/9 16/21/9 15/20/9
f 16/21/10 18/23/10 17/22/10
f 18/23/11 20/25/11 19/24/11
f 20/25/12 23/27/12 21/26/12
f 16/21/13 32/21/13 22/23/13
f 23/27/14 25/29/14 24/28/14
f 25/29/15 9/31/15 11/30/15
f 26/14/7 37/14/7 27/17/7
f 23/27/58 33/27/17 29/29/17
f 12/17/18 28/17/18 30/19/18
f 18/23/19 22/23/59 31/25/19
f 25/29/21 29/29/21 26/31/21
f 9/14/22 26/14/60 28/17/22
f 14/19/61 30/19/25 32/21/25
f 23/27/26 20/25/26 31/25/26
f 34/27/62 48/27/28 35/29/28
f 29/29/15 36/29/15 37/31/15
f 31/25/12 40/25/12 34/27/12
f 32/21/10 41/21/10 38/23/10
f 30/19/8 28/17/8 27/17/8
f 33/27/14 34/27/14 36/29/14
f 22/23/11 38/23/11 40/25/11
f 30/19/9 39/19/9 41/21/9
f 42/17/8 56/17/8 43/19/8
f 38/23/29 49/23/29 45/25/63
f 39/19/64 44/19/33 46/21/33
f 37/14/34 47/14/34 42/17/65
f 36/29/37 35/29/37 47/31/37
f 40/25/38 45/25/38 48/27/38
f 41/21/39 46/21/39 49/23/39
f 27/17/40 42/17/40 44/19/40
f 50/31/41 53/29/41 51/29/41
f 48/27/14 57/27/14 53/29/14
f 49/23/11 58/23/11 54/25/11
f 44/19/9 43/19/9 55/21/9
f 47/14/7 50/14/7 56/17/7
f 35/29/15 53/29/15 50/31/15
f 45/25/12 54/25/12 57/27/12
f 46/21/10 55/21/10 58/23/10
f 59/19/42 72/19/42 60/21/42
f 54/25/43 64/25/43 62/27/43
f 55/21/44 61/21/44 63/23/44
f 56/17/45 65/17/45 59/19/45
f 57/27/46 62/27/46 51/29/46
f 58/23/47 63/23/47 64/25/47
f 43/19/48 59/19/48 61/21/48
f 56/17/49 50/14/49 52/14/49
f 66/29/9 88/27/9 67/27/9
f 52/14/42 86/14/42 69/17/42
f 61/21/10 71/21/10 70/23/10
f 60/21/50 82/21/50 71/21/50
f 72/32/12 74/32/12 73/33/12
f 59/19/51 85/19/51 74/19/51
f 62/27/42 88/27/42 66/29/42
f 63/23/42 87/23/42 75/25/42
f 76/29/42 90/29/42 77/31/42
f 79/25/42 89/25/42 80/27/42
f 70/23/42 71/21/42 82/21/42
f 84/17/42 73/17/42 74/19/42
f 52/14/52 78/14/52 77/14/52
f 87/34/15 83/34/15 82/35/15
f 69/17/53 73/17/66 84/17/53
f 64/25/12 79/25/12 81/27/12
f 66/29/54 90/29/54 76/29/54
f 88/36/8 80/36/8 89/37/8
f 75/25/55 89/25/67 79/25/55
f 51/29/15 76/29/15 78/31/15
f 62/27/56 81/27/56 80/27/56
f 86/38/10 77/38/10 90/39/10
f 65/17/8 84/17/8 85/19/8
f 63/23/57 70/23/57 83/23/57
f 92/32/42 96/33/42 95/38/42
f 95/38/42 68/39/42 67/36/42
f 67/36/42 93/37/42 91/34/42
f 91/34/42 94/35/42 92/32/42
f 92/32/42 95/38/42 67/36/42
f 87/23/7 91/23/7 93/25/7
f 72/19/14 92/19/14 94/21/14
f 69/17/11 86/14/11 95/14/11
f 66/39/10 68/39/10 95/38/10
f 75/37/8 93/37/8 67/36/8
f 60/35/15 94/35/15 91/34/15
f 72/32/12 69/33/12 96/33/12
