# Blender 3.6.1
# www.blender.org
o Base
v -0.500000 -0.000000 -0.500000
v 0.500000 0.187500 -0.500000
v 0.500000 -0.000000 -0.500000
v 0.500000 0.000000 0.500000
v -0.500000 0.187500 0.500000
v -0.500000 0.000000 0.500000
v -0.500000 0.187500 -0.500000
v 0.500000 0.187500 0.500000
vn -0.0000 -0.0000 -1.0000
vn -0.0000 -0.0000 1.0000
vn -0.0000 1.0000 -0.0000
vn -0.0000 -1.0000 -0.0000
vn 1.0000 -0.0000 -0.0000
vn -1.0000 -0.0000 -0.0000
vt 0.250000 0.851563
vt 0.125000 0.875000
vt 0.125000 0.851563
vt 0.500000 0.851563
vt 0.375000 0.875000
vt 0.375000 0.851563
vt 0.250000 0.875000
vt 0.125000 1.000000
vt 0.250000 1.000000
vt 0.000000 0.875000
vt 0.000000 0.851563
vt 0.500000 0.875000
vt 0.375000 1.000000
s 0
f 1/1/1 2/2/1 3/3/1
f 4/4/2 5/5/2 6/6/2
f 7/7/3 8/8/3 2/2/3
f 6/5/4 3/9/4 4/7/4
f 3/3/5 8/10/5 4/11/5
f 6/6/6 7/7/6 1/1/6
f 1/1/1 7/7/1 2/2/1
f 4/4/2 8/12/2 5/5/2
f 7/7/3 5/9/3 8/8/3
f 6/5/4 1/13/4 3/9/4
f 3/3/5 2/2/5 8/10/5
f 6/6/6 5/5/6 7/7/6
o Bishop
v 0.000000 1.250000 -0.108313
v 0.167867 0.501993 -0.167867
v 0.000000 0.501993 -0.237400
v 0.108313 1.250000 -0.000000
v 0.237400 0.501993 -0.000000
v 0.076589 1.250000 0.076589
v 0.167867 0.501993 0.167867
v 0.000000 1.250000 0.108313
v 0.000000 0.501993 0.237400
v -0.076589 1.250000 0.076589
v -0.167867 0.501993 0.167867
v -0.237400 0.501993 -0.000000
v 0.000000 1.250000 0.169422
v -0.108313 1.250000 -0.000000
v -0.167867 0.501993 -0.167867
v -0.076589 1.250000 -0.076589
v 0.434403 0.137145 -0.000000
v 0.000000 0.137145 0.434403
v -0.434403 0.137145 -0.000000
v -0.119799 1.250000 -0.119799
v 0.000000 1.303806 -0.169422
v 0.000000 1.250000 -0.169422
v 0.119799 1.250000 -0.119799
v 0.169422 1.250000 -0.000000
v -0.119799 1.250000 0.119799
v 0.076589 1.250000 -0.076589
v 0.119799 1.250000 0.119799
v -0.169421 1.250000 -0.000000
v -0.119799 1.303806 0.119799
v 0.000000 1.303806 0.121962
v -0.086240 1.303806 0.086240
v -0.169421 1.303806 -0.000000
v 0.000000 1.303806 0.169422
v 0.169422 1.303806 -0.000000
v -0.119799 1.303806 -0.119799
v 0.119799 1.303806 0.119799
v 0.119799 1.303806 -0.119799
v 0.121961 1.303806 -0.000000
v 0.121539 1.376602 0.121539
v 0.086240 1.303806 0.086240
v 0.000000 1.303806 -0.121961
v 0.086240 1.303806 -0.086240
v -0.121961 1.303806 -0.000000
v -0.086240 1.303806 -0.086240
v -0.040731 1.706295 -0.000000
v -0.071404 1.554837 -0.071404
v -0.125231 1.493876 -0.000000
v -0.121539 1.376602 -0.121539
v -0.156187 1.416057 -0.000000
v -0.089055 1.492087 -0.089055
v 0.121539 1.376602 -0.121539
v 0.000000 1.376602 -0.171882
v -0.171882 1.376602 -0.000000
v 0.000000 1.376602 0.171882
v 0.171882 1.376602 -0.000000
v -0.121539 1.376602 0.121539
v 0.000000 1.706295 0.040731
v 0.049061 1.751133 0.049061
v 0.000000 1.751133 0.069383
v -0.028801 1.706295 0.028801
v 0.121463 1.450746 0.050519
v 0.000000 1.573686 -0.093483
v 0.028801 1.706295 -0.028801
v 0.071404 1.554837 -0.071404
v 0.089055 1.492087 -0.089055
v -0.028801 1.706295 -0.028801
v 0.000000 1.515596 -0.116591
v -0.121462 1.450746 0.050519
v 0.040731 1.706295 -0.000000
v 0.125231 1.493876 -0.000000
v 0.156187 1.416057 -0.000000
v 0.000000 1.751133 -0.069383
v -0.017649 1.814434 -0.017650
v 0.000000 1.814434 -0.024960
v 0.069383 1.751133 -0.000000
v -0.049061 1.751133 -0.049061
v -0.049061 1.751133 0.049061
v 0.028801 1.706295 0.028801
v 0.000000 1.706295 -0.040731
v 0.049061 1.751133 -0.049061
v -0.069383 1.751133 -0.000000
v 0.017650 1.814434 0.017650
v 0.017650 1.814434 -0.017650
v -0.024960 1.814434 -0.000000
v 0.000000 1.814434 0.024960
v 0.024960 1.814434 -0.000000
v -0.017649 1.814434 0.017650
v -0.188894 0.336205 -0.188894
v 0.000000 0.336205 -0.267136
v -0.267136 0.336205 -0.000000
v -0.188894 0.336205 0.188894
v 0.000000 0.336205 0.267136
v 0.188894 0.336205 0.188894
v 0.267136 0.336205 -0.000000
v 0.188894 0.336205 -0.188894
v 0.000000 0.220243 -0.252552
v 0.307169 0.137145 -0.307169
v 0.000000 0.137145 -0.434403
v 0.178581 0.220243 -0.178581
v 0.178581 0.220243 0.178581
v 0.307169 0.137145 0.307169
v 0.000000 0.220243 0.252552
v -0.307169 0.137145 0.307169
v -0.252552 0.220243 -0.000000
v -0.307169 0.137145 -0.307169
v -0.160220 0.253048 0.160220
v -0.178581 0.220243 -0.178581
v -0.228261 0.221900 -0.000000
v -0.161405 0.221900 -0.161405
v 0.000000 0.253048 0.226586
v -0.178581 0.220243 0.178581
v 0.160220 0.253048 0.160220
v 0.000000 0.221900 0.228261
v -0.161405 0.221900 0.161405
v 0.226586 0.253048 -0.000000
v 0.161405 0.221900 0.161405
v 0.000000 0.253048 -0.226586
v 0.161405 0.221900 -0.161405
v 0.000000 0.221900 -0.228261
v 0.160220 0.253048 -0.160220
v 0.228261 0.221900 -0.000000
v -0.226586 0.253048 -0.000000
v -0.160220 0.253048 -0.160220
v 0.252552 0.220243 -0.000000
v -0.155285 1.405735 0.012091
v 0.155285 1.405735 0.012091
vn 0.3779 0.1574 -0.9124
vn 0.3750 0.1579 -0.9135
vn 0.3807 0.1565 -0.9113
vn 0.9135 0.1579 -0.3750
vn 0.9124 0.1574 -0.3779
vn 0.9113 0.1565 -0.3807
vn 0.9112 0.1575 0.3808
vn 0.9124 0.1574 0.3779
vn 0.9120 0.1605 0.3776
vn 0.3750 0.1579 0.9135
vn 0.3779 0.1574 0.9124
vn 0.3807 0.1565 0.9113
vn -0.3807 0.1566 0.9113
vn -0.3779 0.1574 0.9124
vn -0.3750 0.1579 0.9135
vn -0.9124 0.1574 0.3779
vn -0.9112 0.1575 0.3807
vn -0.9120 0.1604 0.3776
vn -0.0000 -1.0000 -0.0000
vn -0.9124 0.1574 -0.3779
vn -0.9134 0.1579 -0.3751
vn -0.9113 0.1565 -0.3808
vn -0.3779 0.1574 -0.9124
vn -0.3807 0.1566 -0.9113
vn -0.3750 0.1579 -0.9135
vn -0.3827 -0.0000 -0.9239
vn -0.0000 1.0000 -0.0000
vn -0.9239 -0.0000 0.3827
vn 0.3827 -0.0000 0.9239
vn 0.9239 -0.0000 -0.3827
vn -0.9239 -0.0000 -0.3827
vn -0.3827 -0.0000 0.9239
vn 0.9239 -0.0000 0.3827
vn 0.3827 -0.0000 -0.9239
vn 0.7804 -0.5352 0.3233
vn -0.8672 0.3450 -0.3592
vn 0.3233 -0.5352 -0.7804
vn -0.3233 -0.5352 -0.7804
vn -0.7804 -0.5352 0.3233
vn 0.3233 -0.5352 0.7804
vn 0.7804 -0.5352 -0.3233
vn -0.7804 -0.5352 -0.3233
vn -0.3233 -0.5352 0.7804
vn 0.3295 -0.5084 0.7956
vn -0.3592 0.3450 0.8672
vn 0.8672 0.3449 0.3592
vn 0.3592 0.3450 -0.8672
vn -0.3592 0.3450 -0.8672
vn -0.8672 0.3450 0.3592
vn 0.3592 0.3450 0.8672
vn 0.8672 0.3450 -0.3592
vn -0.3211 0.5440 -0.7752
vn 0.7956 -0.5084 -0.3295
vn -0.7956 -0.5084 -0.3295
vn -0.3295 -0.5084 0.7956
vn 0.7956 -0.5084 0.3295
vn 0.3295 -0.5084 -0.7956
vn -0.3295 -0.5084 -0.7956
vn -0.7956 -0.5084 0.3295
vn -0.7752 0.5440 0.3211
vn 0.3211 0.5440 0.7752
vn 0.7752 0.5440 -0.3211
vn -0.7752 0.5440 -0.3211
vn -0.3211 0.5440 0.7752
vn 0.7752 0.5440 0.3211
vn 0.3211 0.5440 -0.7752
vn -0.3775 0.1635 -0.9115
vn -0.3766 0.1606 -0.9123
vn -0.9115 0.1635 -0.3775
vn -0.9119 0.1605 -0.3776
vn -0.9126 0.1616 0.3755
vn -0.9115 0.1635 0.3775
vn -0.3766 0.1606 0.9123
vn -0.3775 0.1635 0.9115
vn 0.3776 0.1604 0.9119
vn 0.3775 0.1635 0.9115
vn 0.9115 0.1635 0.3775
vn 0.9126 0.1616 0.3755
vn 0.9119 0.1604 -0.3776
vn 0.9115 0.1635 -0.3775
vn 0.3775 0.1635 -0.9115
vn 0.3776 0.1604 -0.9119
vn 0.1697 0.8964 -0.4096
vn 0.4096 0.8964 -0.1697
vn 0.4096 0.8964 0.1697
vn 0.1697 0.8964 0.4096
vn -0.1697 0.8964 0.4096
vn -0.4096 0.8964 0.1697
vn -0.4096 0.8964 -0.1697
vn -0.1697 0.8964 -0.4096
vn -0.8423 -0.4108 0.3489
vn -0.0680 0.9973 -0.0282
vn -0.3489 -0.4108 0.8423
vn -0.0680 0.9973 0.0282
vn 0.3489 -0.4108 0.8423
vn -0.0282 0.9973 0.0680
vn 0.8423 -0.4108 0.3489
vn 0.0282 0.9973 0.0680
vn 0.3822 0.0496 -0.9227
vn 0.9227 0.0496 -0.3822
vn 0.9227 0.0496 0.3822
vn 0.3822 0.0496 0.9227
vn -0.3822 0.0496 0.9227
vn -0.9227 0.0496 0.3822
vn -0.9227 0.0496 -0.3822
vn -0.3822 0.0496 -0.9227
vn -0.0282 0.9973 -0.0680
vn -0.8423 -0.4108 -0.3489
vn 0.0282 0.9973 -0.0680
vn -0.3489 -0.4108 -0.8423
vn 0.0680 0.9973 -0.0282
vn 0.3489 -0.4108 -0.8423
vn 0.0680 0.9973 0.0282
vn 0.8423 -0.4108 -0.3489
vn -0.0000 0.6493 -0.7605
vn -0.0000 0.7605 0.6493
vn -0.0000 -0.7605 -0.6493
vn 0.3773 0.1605 -0.9121
vn 0.9121 0.1605 -0.3773
vn 0.9117 0.1605 0.3782
vn 0.3773 0.1605 0.9121
vn -0.3792 0.1601 0.9114
vn -0.9117 0.1604 0.3782
vn -0.9121 0.1604 -0.3773
vn -0.3792 0.1601 -0.9113
vn 0.8672 0.3450 0.3592
vn -0.8672 0.3449 0.3592
vn -0.3775 0.1635 -0.9114
vn -0.3774 0.1604 -0.9120
vn -0.3791 0.1608 -0.9113
vn -0.9123 0.1606 -0.3767
vn -0.9127 0.1617 -0.3754
vn -0.9126 0.1636 0.3747
vn -0.9120 0.1605 0.3776
vn -0.3791 0.1608 0.9113
vn -0.3774 0.1604 0.9120
vn -0.3775 0.1635 0.9114
vn 0.3753 0.1616 0.9127
vn 0.3767 0.1606 0.9123
vn 0.3775 0.1635 0.9114
vn 0.9114 0.1635 0.3775
vn 0.9120 0.1604 0.3776
vn 0.9126 0.1636 0.3747
vn 0.9127 0.1616 -0.3753
vn 0.9123 0.1606 -0.3767
vn 0.9114 0.1635 -0.3775
vn 0.3767 0.1606 -0.9123
vn 0.3753 0.1616 -0.9127
vn -0.0000 0.7606 0.6493
vt 1.000000 1.000000
vt 0.875000 0.585417
vt 1.000000 0.585417
vt 0.750000 1.000000
vt 0.750000 0.585417
vt 0.625000 1.000000
vt 0.625000 0.585417
vt 0.500000 1.000000
vt 0.500000 0.585417
vt 0.375000 1.000000
vt 0.375000 0.585417
vt 0.250000 0.585417
vt 0.250000 1.000000
vt 0.125000 0.585417
vt 0.125000 1.000000
vt 0.000000 0.585417
vt 0.000000 1.000000
vt 0.875000 1.000000
vt 0.687285 1.000000
vt 0.312715 1.000000
vt 0.419706 0.080294
vt 0.419706 0.419706
vt 0.080294 0.419706
vt 0.125000 0.543350
vt 0.000000 0.543350
vt 0.250000 0.543350
vt 0.375000 0.543350
vt 0.500000 0.543350
vt 0.625000 0.543350
vt 0.750000 0.543350
vt 0.875000 0.543350
vt 1.000000 0.543350
vt 1.000000 0.513926
vt 0.875000 0.500000
vt 1.000000 0.500000
vt 0.875000 0.513926
vt 0.750000 0.500000
vt 0.625000 0.513926
vt 0.625000 0.500000
vt 0.500000 0.513926
vt 0.500000 0.500000
vt 0.375000 0.500000
vt 0.250000 0.513926
vt 0.250000 0.500000
vt 0.125000 0.500000
vt 0.000000 0.513926
vt 0.000000 0.500000
vt 0.375000 0.522671
vt 0.125000 0.513926
vt 0.500000 0.522671
vt 0.375000 0.513926
vt 0.625000 0.522671
vt 0.750000 0.522671
vt 1.000000 0.522671
vt 0.875000 0.522671
vt 0.750000 0.513926
vt 0.250000 0.522671
vt 0.000000 0.522671
vt 0.125000 0.522671
vt 0.625000 0.859817
vt 0.375000 0.894411
vt 0.625000 0.890183
vt 0.230477 0.748013
vt 0.269411 0.750000
vt 0.261132 0.733376
vt 0.734346 0.741697
vt 0.765183 0.750000
vt 0.758926 0.729961
vt 0.735998 1.000000
vt 0.264002 1.000000
vt 0.010000 0.250000
vt 0.080294 0.080294
vt 0.250000 0.010000
vt 0.490000 0.250000
vt 0.250000 0.490000
vt 0.375000 0.855589
vt 0.250000 0.728850
vt 0.238868 0.733376
vt 0.230589 0.750000
vt 0.269523 0.748013
vt 0.750000 0.726332
vt 0.741075 0.729961
vt 0.734817 0.750000
vt 0.765654 0.741697
s 0
f 9/14/7 10/15/8 11/16/9
f 10/15/10 12/17/11 13/18/12
f 13/18/13 14/19/14 15/20/15
f 15/20/16 16/21/17 17/22/18
f 17/22/19 18/23/20 19/24/21
f 18/23/22 20/25/23 19/24/24
f 14/19/25 21/21/25 16/21/25
f 22/26/26 23/27/27 20/25/28
f 24/28/29 11/29/30 23/27/31
f 28/28/32 29/30/32 30/30/32
f 22/26/25 28/28/25 24/28/25
f 12/17/25 31/31/25 32/17/25
f 16/21/25 33/23/25 18/23/25
f 24/28/25 30/30/25 9/30/25
f 9/14/25 31/31/25 34/31/25
f 12/17/25 35/19/25 14/19/25
f 18/23/25 36/26/25 22/26/25
f 37/23/33 38/21/33 39/23/33
f 33/23/34 40/26/34 36/26/34
f 35/19/35 41/21/35 21/21/35
f 31/31/36 42/17/36 32/17/36
f 36/26/37 43/28/37 28/28/37
f 21/21/38 37/23/38 33/23/38
f 32/17/39 44/19/39 35/19/39
f 30/14/40 45/31/40 31/31/40
f 46/17/41 47/19/41 48/19/41
f 44/19/33 46/17/33 48/19/33
f 45/31/33 49/14/33 50/31/33
f 43/28/33 49/30/33 29/30/33
f 37/23/33 51/26/33 40/26/33
f 44/19/33 38/21/33 41/21/33
f 45/31/33 46/17/33 42/17/33
f 40/26/33 52/28/33 43/28/33
f 53/26/42 54/28/42 55/26/42
f 56/28/42 57/26/42 58/28/42
f 49/14/43 59/31/43 50/31/43
f 52/28/44 60/30/44 49/30/44
f 39/23/45 61/26/45 51/26/45
f 48/19/46 62/21/46 38/21/46
f 50/31/47 63/17/47 46/17/47
f 51/26/48 56/28/48 52/28/48
f 38/21/49 64/23/49 39/23/49
f 65/21/50 66/19/50 67/21/50
f 62/21/51 68/23/51 64/23/51
f 47/19/52 63/17/52 69/32/52
f 70/14/53 71/31/53 72/31/53
f 60/14/53 73/31/53 59/31/53
f 74/28/54 70/30/54 54/28/54
f 60/30/54 58/28/54 75/30/54
f 61/26/55 64/23/55 76/33/55
f 47/19/56 65/21/56 62/21/56
f 72/31/57 77/17/57 78/17/57
f 79/17/57 59/31/57 73/31/57
f 80/30/58 81/28/58 82/30/58
f 71/31/59 83/17/59 77/17/59
f 53/26/60 84/28/60 74/28/60
f 68/23/61 67/21/61 85/23/61
f 77/17/62 66/19/62 86/19/62
f 87/14/63 88/31/63 71/31/63
f 74/28/64 80/30/64 87/30/64
f 53/26/65 85/23/65 89/26/65
f 90/34/33 91/35/33 81/36/33
f 85/23/66 92/26/66 89/26/66
f 66/19/67 93/21/67 67/21/67
f 88/31/68 94/17/68 83/17/68
f 84/28/69 92/26/69 81/28/69
f 67/21/70 95/23/70 85/23/70
f 66/19/71 94/17/71 90/19/71
f 88/31/72 82/14/72 91/31/72
f 96/37/73 11/29/74 97/38/73
f 98/39/75 23/27/76 96/37/75
f 19/24/77 98/39/78 99/40/78
f 17/22/79 99/40/80 100/41/80
f 15/20/81 100/41/82 101/42/82
f 102/43/83 15/20/84 101/42/83
f 10/15/85 102/43/86 103/44/86
f 97/45/87 10/15/88 103/44/87
f 104/46/89 105/47/89 106/48/89
f 107/49/90 25/50/90 105/47/90
f 25/50/91 108/51/91 109/52/91
f 109/52/92 110/53/92 26/54/92
f 110/53/93 111/55/93 26/54/93
f 111/55/94 112/56/94 27/57/94
f 112/56/95 113/58/95 27/57/95
f 113/58/96 104/59/96 106/60/96
f 98/39/97 114/61/97 99/40/97
f 115/62/98 116/56/98 117/62/98
f 99/40/99 118/63/99 100/41/99
f 119/64/100 116/56/100 112/56/100
f 100/41/101 120/65/101 101/42/101
f 119/64/102 121/53/102 122/64/102
f 101/42/103 123/66/103 102/43/103
f 110/53/104 124/51/104 121/53/104
f 125/67/105 126/49/105 127/46/105
f 128/68/106 129/69/106 126/49/106
f 123/66/107 124/51/107 129/69/107
f 124/51/108 118/63/108 121/53/108
f 118/63/109 122/64/109 121/53/109
f 114/61/110 116/56/110 122/64/110
f 130/70/111 117/62/111 116/56/111
f 117/62/112 125/71/112 127/59/112
f 115/62/113 127/59/113 104/59/113
f 96/37/114 130/70/114 98/39/114
f 107/49/115 127/46/115 126/49/115
f 97/38/116 131/72/116 96/37/116
f 132/69/117 126/49/117 129/69/117
f 97/45/118 128/68/118 125/67/118
f 132/69/119 124/51/119 108/51/119
f 102/43/120 128/68/120 103/44/120
f 69/73/121 133/74/121 76/75/121
f 57/76/122 134/77/122 73/78/122
f 78/79/123 76/80/123 54/81/123
f 9/14/7 34/31/7 10/15/124
f 10/15/125 34/31/11 12/17/11
f 13/18/126 12/17/14 14/19/14
f 15/20/127 14/19/17 16/21/17
f 17/22/128 16/21/20 18/23/20
f 18/23/22 22/26/22 20/25/129
f 14/19/25 35/19/25 21/21/25
f 22/26/26 24/28/26 23/27/130
f 24/28/29 9/30/29 11/29/131
f 28/28/32 43/28/32 29/30/32
f 22/26/25 36/26/25 28/28/25
f 12/17/25 34/31/25 31/31/25
f 16/21/25 21/21/25 33/23/25
f 24/28/25 28/28/25 30/30/25
f 9/14/25 30/14/25 31/31/25
f 12/17/25 32/17/25 35/19/25
f 18/23/25 33/23/25 36/26/25
f 37/23/33 41/21/33 38/21/33
f 33/23/34 37/23/34 40/26/34
f 35/19/35 44/19/35 41/21/35
f 31/31/36 45/31/36 42/17/36
f 36/26/37 40/26/37 43/28/37
f 21/21/38 41/21/38 37/23/38
f 32/17/39 42/17/39 44/19/39
f 30/14/40 29/14/40 45/31/40
f 46/17/41 63/17/41 47/19/41
f 44/19/33 42/17/33 46/17/33
f 45/31/33 29/14/33 49/14/33
f 43/28/33 52/28/33 49/30/33
f 37/23/33 39/23/33 51/26/33
f 44/19/33 48/19/33 38/21/33
f 45/31/33 50/31/33 46/17/33
f 40/26/33 51/26/33 52/28/33
f 53/26/42 74/28/42 54/28/42
f 56/28/42 61/26/42 57/26/42
f 49/14/43 60/14/43 59/31/43
f 52/28/44 56/28/44 60/30/44
f 39/23/45 64/23/45 61/26/45
f 48/19/46 47/19/46 62/21/46
f 50/31/47 59/31/47 63/17/47
f 51/26/48 61/26/48 56/28/48
f 38/21/49 62/21/49 64/23/49
f 65/21/50 86/19/50 66/19/50
f 62/21/51 65/21/51 68/23/51
f 69/32/132 78/17/132 77/17/132
f 77/17/132 86/19/132 47/19/132
f 63/17/132 79/17/132 134/82/132
f 69/32/132 77/17/132 47/19/132
f 63/17/132 134/82/132 69/32/132
f 70/14/53 87/14/53 71/31/53
f 60/14/53 75/14/53 73/31/53
f 74/28/54 87/30/54 70/30/54
f 60/30/54 56/28/54 58/28/54
f 64/23/55 68/23/55 53/26/55
f 53/26/55 55/26/55 76/33/55
f 133/83/55 57/26/55 61/26/55
f 64/23/55 53/26/55 76/33/55
f 76/33/133 133/83/133 61/26/133
f 47/19/56 86/19/56 65/21/56
f 72/31/57 71/31/57 77/17/57
f 79/17/57 63/17/57 59/31/57
f 80/30/58 84/28/58 81/28/58
f 71/31/59 88/31/59 83/17/59
f 53/26/60 89/26/60 84/28/60
f 68/23/61 65/21/61 67/21/61
f 77/17/62 83/17/62 66/19/62
f 87/14/63 80/14/63 88/31/63
f 74/28/64 84/28/64 80/30/64
f 53/26/65 68/23/65 85/23/65
f 81/36/33 92/84/33 95/85/33
f 95/85/33 93/86/33 90/34/33
f 90/34/33 94/87/33 91/35/33
f 91/35/33 82/88/33 81/36/33
f 81/36/33 95/85/33 90/34/33
f 85/23/66 95/23/66 92/26/66
f 66/19/67 90/19/67 93/21/67
f 88/31/68 91/31/68 94/17/68
f 84/28/69 89/26/69 92/26/69
f 67/21/70 93/21/70 95/23/70
f 66/19/71 83/17/71 94/17/71
f 88/31/72 80/14/72 82/14/72
f 96/37/134 23/27/135 11/29/136
f 98/39/75 20/25/137 23/27/138
f 19/24/139 20/25/140 98/39/78
f 17/22/141 19/24/142 99/40/143
f 15/20/144 17/22/145 100/41/146
f 102/43/147 13/18/148 15/20/149
f 10/15/150 13/18/151 102/43/152
f 97/45/87 11/16/153 10/15/154
f 104/46/89 107/49/89 105/47/89
f 107/49/90 132/69/90 25/50/90
f 25/50/91 132/69/91 108/51/91
f 109/52/92 108/51/92 110/53/92
f 110/53/93 119/64/93 111/55/93
f 111/55/94 119/64/94 112/56/94
f 112/56/95 115/62/95 113/58/95
f 113/58/96 115/62/96 104/59/96
f 98/39/97 130/70/97 114/61/97
f 115/62/98 112/56/98 116/56/98
f 99/40/99 114/61/99 118/63/99
f 119/64/100 122/64/100 116/56/100
f 100/41/101 118/63/101 120/65/101
f 119/64/102 110/53/102 121/53/102
f 101/42/103 120/65/103 123/66/103
f 110/53/104 108/51/104 124/51/104
f 125/67/105 128/68/105 126/49/105
f 128/68/106 123/66/106 129/69/106
f 123/66/107 120/65/107 124/51/107
f 124/51/108 120/65/108 118/63/108
f 118/63/109 114/61/109 122/64/109
f 114/61/110 130/70/110 116/56/110
f 130/70/111 131/72/111 117/62/111
f 117/62/112 131/72/112 125/71/112
f 115/62/113 117/62/113 127/59/113
f 96/37/114 131/72/114 130/70/114
f 107/49/115 104/46/115 127/46/115
f 97/38/116 125/71/116 131/72/116
f 132/69/117 107/49/117 126/49/117
f 97/45/118 103/44/118 128/68/118
f 132/69/119 129/69/119 124/51/119
f 102/43/120 123/66/120 128/68/120
f 69/73/121 134/89/121 133/74/121
f 75/90/122 58/91/122 57/76/122
f 57/76/155 133/92/155 134/77/155
f 134/77/122 79/93/122 73/78/122
f 73/78/122 75/90/122 57/76/122
f 70/94/123 72/95/123 78/79/123
f 78/79/123 69/96/123 76/80/123
f 76/80/123 55/97/123 54/81/123
f 54/81/123 70/94/123 78/79/123
