# Blender 3.6.1
# www.blender.org
o Base
v -0.500000 -0.000000 -0.500000
v 0.500000 0.187500 -0.500000
v 0.500000 -0.000000 -0.500000
v 0.500000 0.000000 0.500000
v -0.500000 0.187500 0.500000
v -0.500000 0.000000 0.500000
v -0.500000 0.187500 -0.500000
v 0.500000 0.187500 0.500000
vn -0.0000 -0.0000 -1.0000
vn -0.0000 -0.0000 1.0000
vn -0.0000 1.0000 -0.0000
vn -0.0000 -1.0000 -0.0000
vn 1.0000 -0.0000 -0.0000
vn -1.0000 -0.0000 -0.0000
vt 0.250000 0.851563
vt 0.125000 0.875000
vt 0.125000 0.851563
vt 0.500000 0.851563
vt 0.375000 0.875000
vt 0.375000 0.851563
vt 0.250000 0.875000
vt 0.125000 1.000000
vt 0.250000 1.000000
vt 0.000000 0.875000
vt 0.000000 0.851563
vt 0.500000 0.875000
vt 0.375000 1.000000
s 0
f 1/1/1 2/2/1 3/3/1
f 4/4/2 5/5/2 6/6/2
f 7/7/3 8/8/3 2/2/3
f 6/5/4 3/9/4 4/7/4
f 3/3/5 8/10/5 4/11/5
f 6/6/6 7/7/6 1/1/6
f 1/1/1 7/7/1 2/2/1
f 4/4/2 8/12/2 5/5/2
f 7/7/3 5/9/3 8/8/3
f 6/5/4 1/13/4 3/9/4
f 3/3/5 2/2/5 8/10/5
f 6/6/6 5/5/6 7/7/6
o Queen
v -0.085495 1.452159 -0.206403
v 0.057678 1.334533 -0.139246
v -0.057678 1.334533 -0.139246
v 0.085495 1.452159 -0.206403
v 0.139246 1.334533 -0.057677
v 0.206403 1.452159 -0.085495
v 0.139246 1.334533 0.057678
v 0.206403 1.452159 0.085496
v 0.057678 1.334533 0.139247
v -0.085495 1.452159 0.206403
v -0.057678 1.334533 0.139247
v -0.206403 1.452159 0.085496
v -0.139246 1.334533 0.057678
v -0.206403 1.452159 -0.085495
v -0.132034 1.563863 -0.192488
v -0.139246 1.334533 -0.057677
v 0.206403 1.005341 0.085495
v 0.144482 0.849779 -0.059847
v 0.206403 1.005341 -0.085495
v -0.144482 0.849779 0.059847
v -0.059847 0.514665 0.144482
v -0.059847 0.849779 0.144482
v -0.206403 1.005341 0.085495
v -0.085495 1.005341 0.206403
v 0.059847 0.849779 0.144482
v 0.144482 0.849779 0.059847
v -0.206403 1.005341 -0.085495
v 0.059847 0.849779 -0.144482
v 0.085495 1.005341 -0.206403
v 0.085495 1.005341 0.206403
v -0.085495 1.005341 -0.206403
v -0.144482 0.849779 -0.059847
v -0.059847 0.849779 -0.144482
v 0.059847 0.514665 -0.144482
v -0.077800 0.429813 -0.187827
v -0.059847 0.514665 -0.144482
v 0.144482 0.514665 0.059847
v -0.144482 0.514665 0.059847
v 0.059847 0.514665 0.144482
v 0.144482 0.514665 -0.059847
v -0.144482 0.514665 -0.059847
v -0.187827 0.429813 -0.077800
v -0.187827 0.318109 0.077800
v -0.187827 0.429813 0.077800
v -0.077800 0.429813 0.187827
v 0.187827 0.429813 0.077800
v 0.077800 0.429813 -0.187827
v 0.077800 0.429813 0.187827
v 0.187827 0.429813 -0.077800
v 0.187827 0.318109 -0.077800
v 0.116701 0.206404 -0.281740
v 0.077800 0.318109 -0.187827
v 0.077800 0.318109 0.187827
v 0.187827 0.318109 0.077800
v -0.077800 0.318109 -0.187827
v -0.187827 0.318109 -0.077800
v -0.077800 0.318109 0.187827
v 0.281740 0.206404 0.116701
v -0.116701 0.206404 0.281740
v -0.281740 0.206404 -0.116701
v -0.281740 0.206404 0.116701
v 0.116701 0.206404 0.281740
v 0.281740 0.206404 -0.116701
v -0.116701 0.206404 -0.281740
v 0.164630 1.452159 -0.068192
v 0.085463 1.614203 0.035401
v 0.164630 1.452159 0.068193
v 0.195960 1.563863 0.042747
v -0.171601 1.563863 0.123382
v -0.164630 1.452159 0.068193
v -0.195960 1.563863 0.042747
v 0.068192 1.452159 -0.164630
v -0.034096 1.563863 -0.175073
v -0.068192 1.452159 -0.164630
v -0.171601 1.563863 -0.123382
v -0.164630 1.452159 -0.068192
v 0.171601 1.563863 0.123382
v 0.192488 1.563863 0.132034
v 0.175073 1.563863 0.034096
v -0.085463 1.614203 0.035401
v -0.056117 1.614203 -0.023244
v -0.085463 1.614203 -0.035400
v 0.035399 1.614203 -0.085463
v -0.035400 1.614203 -0.085463
v -0.035400 1.614203 0.085463
v 0.035399 1.614203 0.085463
v 0.068192 1.452159 0.164630
v 0.085463 1.614203 -0.035400
v -0.068192 1.452159 0.164630
v 0.056116 1.614203 0.023245
v 0.023245 1.643665 0.056117
v 0.023245 1.614203 0.056117
v -0.023245 1.614203 0.056117
v 0.056116 1.614203 -0.023244
v 0.023245 1.614203 -0.056117
v -0.023245 1.614203 -0.056117
v -0.056117 1.614203 0.023245
v -0.023245 1.643665 -0.056117
v -0.081819 1.699645 -0.033890
v -0.033890 1.699645 -0.081819
v 0.056117 1.643665 -0.023244
v -0.056117 1.643665 -0.023244
v -0.023245 1.643665 0.056117
v 0.056117 1.643665 0.023245
v 0.023245 1.643665 -0.056117
v -0.056117 1.643665 0.023245
v 0.033890 1.699645 0.081819
v -0.008816 1.817494 0.021283
v -0.033890 1.699645 0.081819
v -0.081819 1.699645 0.033890
v 0.081819 1.699645 0.033890
v 0.081819 1.699645 -0.033890
v 0.033890 1.699645 -0.081819
v -0.021283 1.817494 0.008816
v 0.008816 1.817494 0.021283
v 0.021283 1.817494 -0.008815
v 0.021283 1.817494 0.008816
v 0.008816 1.817494 -0.021283
v -0.008816 1.817494 -0.021283
v -0.021283 1.817494 -0.008815
v 0.132034 1.563863 -0.192488
v 0.171601 1.563863 -0.123382
v 0.192488 1.563863 -0.132033
v -0.123382 1.563863 -0.171600
v -0.192488 1.563863 0.132034
v -0.123382 1.563863 0.171601
v 0.123382 1.563863 0.171601
v 0.132034 1.563863 0.192488
v 0.123382 1.563863 -0.171600
v 0.085495 1.452159 0.206403
v -0.132034 1.563863 0.192488
v -0.192488 1.563863 -0.132033
v 0.042747 1.563863 0.195960
v -0.034096 1.563863 0.175074
v -0.042747 1.563863 0.195960
v 0.042747 1.563863 -0.195960
v 0.034096 1.563863 -0.175073
v 0.195960 1.563863 -0.042747
v -0.175073 1.563863 -0.034095
v -0.195960 1.563863 -0.042747
v 0.175073 1.563863 -0.034095
v 0.034096 1.563863 0.175074
v -0.042747 1.563863 -0.195960
v -0.175073 1.563863 0.034096
vn 0.0002 -0.4965 -0.8681
vn -0.0000 -0.4958 -0.8684
vn 0.6141 -0.4958 -0.6141
vn 0.6138 -0.4962 -0.6140
vn 0.8684 -0.4958 -0.0000
vn 0.6136 -0.4966 0.6139
vn 0.6141 -0.4958 0.6141
vn -0.0000 -0.4958 0.8684
vn 0.0002 -0.4963 0.8682
vn -0.6141 -0.4958 0.6141
vn -0.6138 -0.4962 0.6140
vn -0.6925 -0.2022 -0.6925
vn -0.8684 -0.4958 -0.0000
vn -0.6137 -0.4964 -0.6139
vn -0.6141 -0.4958 -0.6141
vn 0.9291 -0.3698 -0.0000
vn 0.9289 -0.3704 -0.0000
vn -0.7071 -0.0000 0.7071
vn -0.6570 -0.3698 0.6570
vn -0.6569 -0.3703 0.6568
vn 0.6570 -0.3698 0.6570
vn 0.6567 -0.3704 0.6569
vn 0.6566 -0.3711 0.6566
vn -0.9291 -0.3698 -0.0000
vn -0.9289 -0.3704 -0.0000
vn 0.6570 -0.3698 -0.6570
vn 0.6569 -0.3703 -0.6568
vn -0.0000 -0.3698 0.9291
vn -0.0003 -0.3701 0.9290
vn -0.0000 -0.3703 0.9289
vn -0.6570 -0.3698 -0.6570
vn -0.0000 -0.3698 -0.9291
vn 0.0003 -0.3701 -0.9290
vn -0.0000 -0.3703 -0.9289
vn -0.0000 0.4549 -0.8905
vn 0.7071 -0.0000 0.7071
vn 0.7071 -0.0000 -0.7071
vn -1.0000 -0.0000 -0.0000
vn -0.0000 -0.0000 1.0000
vn 1.0000 -0.0000 -0.0000
vn -0.0000 -0.0000 -1.0000
vn -0.7071 -0.0000 -0.7071
vn -0.6297 0.4549 -0.6297
vn -0.6295 0.4553 -0.6296
vn -0.6297 0.4552 0.6295
vn -0.6293 0.4551 0.6299
vn -0.6297 0.4549 0.6297
vn 0.6297 0.4549 0.6297
vn 0.6295 0.4553 0.6296
vn 0.6297 0.4549 -0.6297
vn -0.8905 0.4549 -0.0000
vn -0.0000 0.4549 0.8905
vn 0.8905 0.4549 -0.0000
vn 0.5412 0.6435 -0.5412
vn 0.5408 0.6443 -0.5408
vn -0.7654 0.6435 -0.0000
vn -0.0000 0.6435 0.7654
vn 0.7654 0.6435 -0.0000
vn -0.0000 0.6435 -0.7654
vn -0.5408 0.6439 -0.5412
vn -0.5412 0.6435 -0.5412
vn -0.5408 0.6443 -0.5408
vn -0.5412 0.6435 0.5412
vn -0.5408 0.6442 0.5408
vn 0.5412 0.6435 0.5412
vn 0.5408 0.6443 0.5408
vn 0.8985 0.4390 -0.0000
vn 0.9957 0.0931 -0.0000
vn -0.3512 0.3970 -0.8479
vn 0.3647 0.3029 0.8805
vn 0.3640 0.3034 0.8806
vn -0.0000 0.0931 0.9957
vn 0.6580 0.3662 0.6580
vn 0.3512 0.3970 -0.8479
vn -0.3647 0.3029 0.8805
vn -0.0000 1.0000 -0.0000
vn -0.0000 0.4390 -0.8985
vn -0.6353 0.4390 -0.6353
vn -0.6353 0.4390 0.6353
vn 0.6353 0.4390 0.6353
vn 0.6353 0.4390 -0.6353
vn -0.8985 0.4390 -0.0000
vn -0.0000 0.4390 0.8985
vn -0.6426 -0.4172 -0.6426
vn -0.6424 -0.4180 -0.6424
vn -0.0000 0.4569 0.8895
vn -0.6426 -0.4172 0.6426
vn 0.6426 -0.4172 0.6426
vn 0.6424 -0.4180 0.6424
vn 0.6426 -0.4173 -0.6426
vn -0.9088 -0.4173 -0.0000
vn -0.0000 -0.4173 0.9088
vn 0.9088 -0.4173 -0.0000
vn -0.0000 -0.4173 -0.9088
vn 0.8895 0.4569 -0.0000
vn -0.0000 0.4569 -0.8895
vn -0.6290 0.4569 -0.6290
vn -0.6290 0.4569 0.6290
vn 0.6290 0.4569 0.6290
vn 0.6290 0.4569 -0.6290
vn -0.8895 0.4569 -0.0000
vn -0.8479 0.3970 -0.3512
vn -0.6580 0.3662 0.6580
vn 0.3512 0.3970 0.8479
vn -0.6925 -0.2022 0.6925
vn -0.8479 0.3970 0.3512
vn -0.8481 0.3970 0.3508
vn -0.6580 0.3662 -0.6580
vn 0.6925 -0.2022 0.6925
vn 0.8479 0.3970 0.3512
vn -0.3512 0.3970 0.8480
vn 0.6925 -0.2022 -0.6925
vn 0.6580 0.3662 -0.6580
vn 0.8479 0.3970 -0.3512
vn 0.8481 0.3970 -0.3508
vn -0.0000 0.0931 -0.9957
vn 0.8805 0.3029 0.3647
vn -0.3647 0.3029 -0.8805
vn -0.3640 0.3034 -0.8806
vn -0.9957 0.0931 -0.0000
vn 0.8805 0.3029 -0.3647
vn -0.8805 0.3029 -0.3647
vn 0.3647 0.3029 -0.8805
vn -0.8805 0.3029 0.3647
vn -0.6928 0.1999 -0.6928
vn -0.9798 0.1999 -0.0000
vn -0.6928 0.1999 0.6928
vn -0.0000 0.1999 0.9798
vn 0.6928 0.1999 0.6928
vn 0.9798 0.1999 -0.0000
vn 0.6928 0.1999 -0.6928
vn -0.0000 0.1999 -0.9798
vn 0.0006 -0.4962 -0.8682
vn 0.6137 -0.4960 -0.6143
vn 0.6134 -0.4963 0.6143
vn 0.0005 -0.4961 0.8683
vn -0.6137 -0.4961 0.6142
vn -0.6136 -0.4962 -0.6143
vn -0.6567 -0.3709 0.6567
vn -0.6566 -0.3701 0.6571
vn 0.6571 -0.3703 0.6565
vn 0.6567 -0.3709 -0.6567
vn 0.6566 -0.3701 -0.6571
vn -0.0000 -0.3704 0.9289
vn -0.0000 -0.3704 -0.9289
vn -0.6293 0.4551 -0.6299
vn -0.6295 0.4552 0.6297
vn -0.6295 0.4553 0.6296
vn 0.6293 0.4551 0.6299
vn 0.5409 0.6440 -0.5409
vn -0.5411 0.6439 -0.5409
vn -0.5409 0.6440 0.5409
vn -0.3638 0.3035 0.8807
vn 0.6353 0.4390 0.6354
vn -0.6426 -0.4173 -0.6426
vn -0.6424 -0.4179 0.6424
vn 0.6426 -0.4172 -0.6426
vn 0.6424 -0.4179 -0.6424
vn -0.8482 0.3970 -0.3506
vn 0.3512 0.3970 0.8480
vn 0.8481 0.3970 0.3508
vn -0.3512 0.3970 0.8479
vn 0.3639 0.3034 -0.8806
vt 1.000000 1.000000
vt 0.875000 0.750000
vt 1.000000 0.750000
vt 0.875000 1.000000
vt 0.750000 0.750000
vt 0.750000 1.000000
vt 0.625000 0.750000
vt 0.625000 1.000000
vt 0.500000 0.750000
vt 0.375000 1.000000
vt 0.375000 0.750000
vt 0.250000 1.000000
vt 0.250000 0.750000
vt 0.125000 1.000000
vt 0.000000 1.000000
vt 0.125000 0.750000
vt 0.000000 0.750000
vt 0.625000 0.500000
vt 0.750000 0.500000
vt 0.250000 0.500000
vt 0.375000 0.500000
vt 0.500000 0.500000
vt 0.125000 0.500000
vt 0.875000 0.500000
vt 0.000000 0.500000
vt 1.000000 0.500000
vt 0.500000 1.000000
vt 0.010000 0.250000
vt 0.250000 0.010000
vt 0.490000 0.250000
vt 0.419706 0.419706
vt 0.250000 0.490000
vt 0.080294 0.419706
vt 0.080294 0.080294
vt 0.419706 0.080294
s 0
f 9/14/7 10/15/8 11/16/8
f 12/17/9 13/18/10 10/15/9
f 14/19/11 15/20/11 13/18/11
f 16/21/12 17/22/13 15/20/13
f 17/22/14 18/23/15 19/24/14
f 19/24/16 20/25/17 21/26/16
f 22/27/18 23/28/18 9/28/18
f 21/26/19 22/27/19 24/29/19
f 22/27/20 11/30/21 24/29/21
f 25/31/22 26/32/22 27/32/23
f 28/33/24 29/34/24 30/34/24
f 31/33/25 30/34/26 32/34/25
f 25/31/27 33/35/28 34/31/29
f 35/36/30 28/33/30 31/33/31
f 27/32/32 36/37/33 37/37/32
f 32/34/34 33/35/35 38/35/36
f 39/38/37 40/36/37 35/36/37
f 37/37/38 41/39/39 39/39/40
f 42/37/41 43/39/41 44/39/41
f 33/35/42 45/31/42 34/31/42
f 26/32/43 42/37/43 36/37/43
f 40/36/44 46/33/44 28/33/44
f 30/34/45 47/35/45 33/35/45
f 34/31/46 48/32/46 26/32/46
f 36/37/47 44/39/47 41/39/47
f 41/38/48 49/36/48 40/36/48
f 50/36/44 51/33/44 52/33/44
f 44/38/49 50/36/50 49/36/49
f 29/34/51 52/33/52 53/34/53
f 47/35/54 54/31/55 45/31/54
f 48/32/56 55/37/56 42/37/56
f 49/36/57 52/33/57 46/33/57
f 29/34/58 56/35/58 47/35/58
f 45/31/59 57/32/59 48/32/59
f 58/32/60 59/37/60 60/37/61
f 53/34/45 61/35/45 56/35/45
f 57/32/46 62/31/46 58/32/46
f 55/37/47 63/39/47 43/39/47
f 43/38/48 64/36/48 50/36/48
f 52/33/24 65/34/24 53/34/24
f 54/31/42 61/35/42 62/31/42
f 57/32/43 60/37/43 55/37/43
f 64/36/62 69/33/62 51/33/62
f 65/34/63 70/35/63 61/35/63
f 62/31/64 71/32/64 58/32/64
f 60/37/65 72/39/65 63/39/65
f 63/38/66 68/36/67 64/36/68
f 65/34/69 69/33/69 67/34/70
f 62/31/71 70/35/71 66/31/72
f 73/19/73 74/21/73 75/21/73
f 14/19/74 76/21/74 16/21/74
f 20/25/75 77/25/75 78/25/75
f 78/25/76 79/25/76 20/25/77
f 80/17/78 81/14/78 82/14/78
f 82/28/79 83/27/79 84/27/79
f 16/21/80 85/21/80 86/21/80
f 75/21/81 76/21/81 87/21/81
f 88/25/82 89/27/82 90/27/82
f 82/14/83 91/17/83 80/17/83
f 82/28/84 90/27/84 92/28/84
f 78/25/85 93/23/85 88/25/85
f 75/21/86 94/40/86 95/40/86
f 80/17/87 96/19/87 73/19/87
f 78/25/88 90/27/88 84/27/88
f 95/40/89 93/23/89 97/23/89
f 98/21/42 99/40/42 100/40/42
f 94/40/82 101/23/82 93/23/82
f 74/21/82 102/19/82 98/21/82
f 92/14/82 103/17/82 91/17/82
f 90/27/82 104/28/82 92/28/82
f 93/23/82 105/25/82 88/25/82
f 74/21/82 100/40/82 94/40/82
f 91/17/82 102/19/82 96/19/82
f 106/28/90 107/27/90 108/28/91
f 103/17/43 109/19/43 102/19/43
f 105/25/44 110/27/44 89/27/44
f 100/40/45 111/23/45 101/23/45
f 102/19/46 112/21/46 98/21/46
f 103/17/47 106/14/47 113/17/47
f 104/28/48 110/27/48 106/28/48
f 101/23/24 114/25/24 105/25/24
f 115/40/92 116/23/92 117/23/92
f 111/23/93 118/25/93 114/25/93
f 99/40/94 119/21/94 115/40/95
f 113/17/96 120/19/96 109/19/96
f 110/27/97 118/25/97 107/27/97
f 99/40/98 117/23/98 111/23/98
f 109/19/99 119/21/99 112/21/99
f 106/14/100 121/17/100 113/17/100
f 122/41/82 123/42/82 124/43/82
f 120/19/101 125/21/101 119/21/101
f 108/14/102 126/17/102 121/17/102
f 107/27/103 127/28/103 108/28/103
f 118/25/104 116/23/104 122/25/104
f 115/40/105 125/21/105 123/40/105
f 120/19/106 126/17/106 124/19/106
f 118/25/107 128/27/107 107/27/107
f 129/17/82 130/19/82 131/19/82
f 23/28/82 83/27/82 132/28/82
f 133/25/82 134/23/82 77/25/82
f 86/21/82 135/40/82 136/40/82
f 12/17/108 137/17/108 129/17/108
f 73/19/109 137/17/109 80/17/109
f 14/19/110 130/19/110 73/19/110
f 18/23/111 133/25/111 20/25/111
f 138/40/112 135/40/112 95/40/113
f 75/21/114 135/40/114 85/21/114
f 16/21/115 136/40/115 138/40/115
f 18/23/116 134/23/116 139/23/116
f 22/27/117 83/27/117 140/27/117
f 14/19/118 129/17/118 131/19/118
f 78/25/119 134/23/119 97/23/119
f 9/14/120 132/14/120 82/14/121
f 141/40/82 142/23/82 143/23/82
f 144/17/82 81/14/82 145/17/82
f 146/19/82 87/21/82 76/21/82
f 79/25/82 147/27/82 148/27/82
f 9/14/122 144/17/122 12/17/122
f 80/17/123 144/17/123 145/17/123
f 73/19/124 146/19/124 14/19/125
f 73/19/126 87/21/126 149/19/126
f 95/40/127 141/40/127 138/40/127
f 97/23/128 143/23/128 142/23/128
f 95/40/122 142/23/122 150/40/122
f 84/27/129 148/27/129 147/27/129
f 20/25/126 148/27/126 22/27/126
f 82/14/130 151/14/130 9/14/130
f 84/27/74 152/25/74 78/25/74
f 138/40/78 143/23/78 18/23/78
f 24/29/131 39/38/131 35/36/131
f 31/33/132 24/29/132 35/36/132
f 19/24/133 31/33/133 32/34/133
f 17/22/134 32/34/134 38/35/134
f 15/20/135 38/35/135 25/31/135
f 13/18/136 25/31/136 27/32/136
f 37/37/137 13/18/137 27/32/137
f 11/16/138 37/37/138 39/39/138
f 9/14/139 12/17/8 10/15/8
f 12/17/9 14/19/9 13/18/140
f 14/19/11 16/21/11 15/20/11
f 16/21/141 138/40/13 17/22/13
f 17/22/14 138/40/14 18/23/142
f 19/24/16 18/23/16 20/25/143
f 22/27/18 140/27/18 23/28/18
f 21/26/19 20/25/19 22/27/19
f 22/27/144 9/28/21 11/30/21
f 25/31/22 34/31/23 26/32/22
f 28/33/24 46/33/24 29/34/24
f 31/33/25 28/33/145 30/34/146
f 25/31/27 38/35/27 33/35/147
f 35/36/30 40/36/31 28/33/30
f 27/32/32 26/32/148 36/37/149
f 32/34/34 30/34/150 33/35/36
f 39/38/37 41/38/37 40/36/37
f 37/37/38 36/37/151 41/39/40
f 42/37/41 55/37/41 43/39/41
f 33/35/42 47/35/42 45/31/42
f 26/32/43 48/32/43 42/37/43
f 40/36/44 49/36/44 46/33/44
f 30/34/45 29/34/45 47/35/45
f 34/31/46 45/31/46 48/32/46
f 36/37/47 42/37/47 44/39/47
f 41/38/48 44/38/48 49/36/48
f 50/36/44 64/36/44 51/33/44
f 44/38/49 43/38/49 50/36/152
f 29/34/153 46/33/53 52/33/154
f 47/35/54 56/35/54 54/31/155
f 48/32/56 57/32/56 55/37/56
f 49/36/57 50/36/57 52/33/57
f 29/34/58 53/34/58 56/35/58
f 45/31/59 54/31/59 57/32/59
f 58/32/60 71/32/156 59/37/60
f 53/34/45 65/34/45 61/35/45
f 57/32/46 54/31/46 62/31/46
f 55/37/47 60/37/47 63/39/47
f 43/38/48 63/38/48 64/36/48
f 52/33/24 51/33/24 65/34/24
f 54/31/42 56/35/42 61/35/42
f 57/32/43 58/32/43 60/37/43
f 64/36/62 68/36/62 69/33/62
f 65/34/63 67/34/63 70/35/63
f 62/31/64 66/31/64 71/32/64
f 60/37/65 59/37/65 72/39/65
f 63/38/157 72/38/67 68/36/67
f 65/34/69 51/33/158 69/33/69
f 62/31/71 61/35/71 70/35/71
f 73/19/73 96/19/73 74/21/73
f 14/19/74 146/19/74 76/21/74
f 20/25/75 133/25/75 77/25/75
f 78/25/76 152/25/76 79/25/76
f 80/17/78 145/17/78 81/14/78
f 82/28/79 132/28/79 83/27/79
f 16/21/80 75/21/80 85/21/80
f 75/21/81 16/21/159 76/21/81
f 88/25/82 105/25/82 89/27/82
f 82/14/83 92/14/83 91/17/83
f 82/28/84 84/27/84 90/27/84
f 78/25/85 97/23/85 93/23/85
f 75/21/160 74/21/160 94/40/160
f 80/17/87 91/17/87 96/19/87
f 78/25/88 88/25/88 90/27/88
f 95/40/89 94/40/89 93/23/89
f 98/21/42 112/21/42 99/40/42
f 94/40/82 100/40/82 101/23/82
f 74/21/82 96/19/82 102/19/82
f 92/14/82 104/14/82 103/17/82
f 90/27/82 89/27/82 104/28/82
f 93/23/82 101/23/82 105/25/82
f 74/21/82 98/21/82 100/40/82
f 91/17/82 103/17/82 102/19/82
f 106/28/161 110/27/161 107/27/161
f 103/17/43 113/17/43 109/19/43
f 105/25/44 114/25/44 110/27/44
f 100/40/45 99/40/45 111/23/45
f 102/19/46 109/19/46 112/21/46
f 103/17/47 104/14/47 106/14/47
f 104/28/48 89/27/48 110/27/48
f 101/23/24 111/23/24 114/25/24
f 115/40/92 123/40/92 116/23/92
f 111/23/93 117/23/162 118/25/93
f 99/40/94 112/21/94 119/21/94
f 113/17/163 121/17/164 120/19/163
f 110/27/97 114/25/97 118/25/97
f 99/40/98 115/40/98 117/23/98
f 109/19/99 120/19/99 119/21/99
f 106/14/100 108/14/100 121/17/100
f 124/43/82 126/44/82 127/45/82
f 127/45/82 128/46/82 122/41/82
f 122/41/82 116/47/82 123/42/82
f 123/42/82 125/48/82 124/43/82
f 124/43/82 127/45/82 122/41/82
f 120/19/101 124/19/101 125/21/101
f 108/14/102 127/14/102 126/17/102
f 107/27/103 128/27/103 127/28/103
f 118/25/104 117/23/104 116/23/104
f 115/40/105 119/21/105 125/21/105
f 120/19/106 121/17/106 126/17/106
f 118/25/107 122/25/107 128/27/107
f 129/17/82 137/17/82 130/19/82
f 23/28/82 140/27/82 83/27/82
f 133/25/82 139/23/82 134/23/82
f 86/21/82 85/21/82 135/40/82
f 12/17/108 80/17/165 137/17/108
f 73/19/109 130/19/109 137/17/109
f 14/19/166 131/19/166 130/19/166
f 18/23/111 139/23/111 133/25/111
f 138/40/112 136/40/112 135/40/112
f 75/21/114 95/40/114 135/40/114
f 16/21/115 86/21/115 136/40/115
f 18/23/116 97/23/167 134/23/116
f 22/27/168 84/27/168 83/27/168
f 14/19/118 12/17/118 129/17/118
f 78/25/119 77/25/119 134/23/119
f 9/14/120 23/14/120 132/14/120
f 141/40/82 150/40/82 142/23/82
f 144/17/82 151/14/82 81/14/82
f 146/19/82 149/19/82 87/21/82
f 79/25/82 152/25/82 147/27/82
f 9/14/122 151/14/122 144/17/122
f 80/17/123 12/17/123 144/17/123
f 73/19/124 149/19/124 146/19/124
f 73/19/126 75/21/126 87/21/126
f 95/40/127 150/40/127 141/40/127
f 97/23/128 18/23/128 143/23/128
f 95/40/122 97/23/122 142/23/122
f 84/27/129 22/27/169 148/27/129
f 20/25/126 79/25/126 148/27/126
f 82/14/130 81/14/130 151/14/130
f 84/27/74 147/27/74 152/25/74
f 138/40/78 141/40/78 143/23/78
f 24/29/131 11/30/131 39/38/131
f 31/33/132 21/26/132 24/29/132
f 19/24/133 21/26/133 31/33/133
f 17/22/134 19/24/134 32/34/134
f 15/20/135 17/22/135 38/35/135
f 13/18/136 15/20/136 25/31/136
f 37/37/137 10/15/137 13/18/137
f 11/16/138 10/15/138 37/37/138
