# Blender v2.92.0 OBJ File: ''
# www.blender.org
mtllib pawn_classic.mtl
o Base.003
v -0.500000 0.006250 -0.500000
v 0.500000 0.193750 -0.500000
v 0.500000 0.006250 -0.500000
v 0.500000 0.006250 0.500000
v -0.500000 0.193750 0.500000
v -0.500000 0.006250 0.500000
v -0.500000 0.193750 -0.500000
v 0.500000 0.193750 0.500000
vt 0.500000 0.000000
vt 0.250000 0.046875
vt 0.250000 0.000000
vt 1.000000 0.000000
vt 0.750000 0.046875
vt 0.750000 0.000000
vt 0.500000 0.046875
vt 0.250000 0.296875
vt 0.750000 0.046875
vt 0.500000 0.296875
vt 0.500000 0.046875
vt 0.000000 0.046875
vt 0.000000 0.000000
vt 1.000000 0.046875
vt 0.500000 0.296875
vt 0.750000 0.296875
vn 0.0000 0.0000 -1.0000
vn 0.0000 -0.0000 1.0000
vn 0.0000 1.0000 0.0000
vn 0.0000 -1.0000 -0.0000
vn 1.0000 0.0000 0.0000
vn -1.0000 -0.0000 0.0000
usemtl Default_OBJ.003
s 1
f 1/1/1 2/2/1 3/3/1
f 4/4/2 5/5/2 6/6/2
f 7/7/3 8/8/3 2/2/3
f 6/9/4 3/10/4 4/11/4
f 3/3/5 8/12/5 4/13/5
f 6/6/6 7/7/6 1/1/6
f 1/1/1 7/7/1 2/2/1
f 4/4/2 8/14/2 5/5/2
f 7/7/3 5/15/3 8/8/3
f 6/9/4 1/16/4 3/10/4
f 3/3/5 2/2/5 8/12/5
f 6/6/6 5/5/6 7/7/6
o Cylinder
v 0.000000 0.165905 -0.400000
v 0.000000 0.263271 -0.400000
v 0.235114 0.165905 -0.323607
v 0.235114 0.263271 -0.323607
v 0.380423 0.165905 -0.123607
v 0.380423 0.263271 -0.123607
v 0.380423 0.165905 0.123607
v 0.380423 0.263271 0.123607
v 0.235114 0.165905 0.323607
v 0.235114 0.263271 0.323607
v -0.000000 0.165905 0.400000
v -0.000000 0.263271 0.400000
v -0.235114 0.165905 0.323607
v -0.235114 0.263271 0.323607
v -0.380423 0.165905 0.123607
v -0.380423 0.263271 0.123607
v -0.380423 0.165905 -0.123607
v -0.380423 0.263271 -0.123607
v -0.235114 0.165905 -0.323607
v -0.235114 0.263271 -0.323607
v 0.141298 0.377845 -0.194480
v 0.000000 0.377845 -0.240391
v 0.228625 0.377845 -0.074285
v 0.228625 0.377845 0.074285
v 0.141298 0.377845 0.194480
v -0.000000 0.377845 0.240391
v -0.141298 0.377845 0.194480
v -0.228625 0.377845 0.074285
v -0.228625 0.377845 -0.074285
v -0.141298 0.377845 -0.194480
v 0.141298 0.434815 -0.194480
v 0.000000 0.434815 -0.240391
v 0.228625 0.434815 -0.074285
v 0.228625 0.434815 0.074285
v 0.141298 0.434815 0.194480
v -0.000000 0.434815 0.240391
v -0.141298 0.434815 0.194480
v -0.228625 0.434815 0.074285
v -0.228625 0.434815 -0.074285
v -0.141298 0.434815 -0.194480
v 0.053769 0.852598 -0.074006
v 0.000000 0.852598 -0.091477
v 0.086999 0.852598 -0.028268
v 0.086999 0.852598 0.028268
v 0.053769 0.852598 0.074006
v -0.000000 0.852598 0.091477
v -0.053769 0.852598 0.074006
v -0.086999 0.852598 0.028268
v -0.086999 0.852598 -0.028268
v -0.053769 0.852598 -0.074006
v 0.053769 0.925393 -0.074006
v -0.000000 0.925393 -0.091477
v 0.086999 0.925393 -0.028268
v 0.086999 0.925393 0.028268
v 0.053769 0.925393 0.074006
v -0.000000 0.925393 0.091477
v -0.053769 0.925393 0.074006
v -0.086999 0.925393 0.028268
v -0.086999 0.925393 -0.028268
v -0.053769 0.925393 -0.074006
v 0.107956 0.958367 -0.148588
v -0.000000 0.958367 -0.183665
v 0.174676 0.958367 -0.056756
v 0.174676 0.958367 0.056756
v 0.107956 0.958367 0.148588
v -0.000000 0.958367 0.183665
v -0.107956 0.958367 0.148588
v -0.174676 0.958367 0.056756
v -0.174676 0.958367 -0.056756
v -0.107955 0.958367 -0.148588
v 0.107956 0.993699 -0.148588
v -0.000000 0.993699 -0.183665
v 0.174676 0.993699 -0.056756
v 0.174676 0.993699 0.056756
v 0.107956 0.993699 0.148588
v -0.000000 0.993699 0.183665
v -0.107956 0.993699 0.148588
v -0.174676 0.993699 0.056756
v -0.174676 0.993699 -0.056756
v -0.107955 0.993699 -0.148588
v 0.058388 1.026674 -0.080364
v 0.000000 1.026674 -0.099336
v 0.094474 1.026674 -0.030696
v 0.094474 1.026674 0.030696
v 0.058388 1.026674 0.080364
v -0.000000 1.026674 0.099336
v -0.058388 1.026674 0.080364
v -0.094474 1.026674 0.030696
v -0.094474 1.026674 -0.030697
v -0.058388 1.026674 -0.080364
v 0.083096 1.063306 -0.114371
v 0.000000 1.063306 -0.141371
v 0.134451 1.063306 -0.043686
v 0.134451 1.063306 0.043686
v 0.083096 1.063306 0.114371
v -0.000000 1.063306 0.141371
v -0.083096 1.063306 0.114371
v -0.134451 1.063306 0.043686
v -0.134451 1.063306 -0.043686
v -0.083096 1.063306 -0.114371
v 0.098003 1.113675 -0.134889
v -0.000000 1.113675 -0.166732
v 0.158572 1.113675 -0.051523
v 0.158572 1.113675 0.051523
v 0.098003 1.113675 0.134889
v -0.000000 1.113675 0.166732
v -0.098003 1.113675 0.134889
v -0.158572 1.113675 0.051523
v -0.158572 1.113675 -0.051523
v -0.098003 1.113675 -0.134889
v 0.098003 1.179308 -0.134889
v -0.000000 1.179308 -0.166732
v 0.158572 1.179308 -0.051523
v 0.158572 1.179308 0.051523
v 0.098003 1.179308 0.134889
v -0.000000 1.179308 0.166732
v -0.098003 1.179308 0.134889
v -0.158572 1.179308 0.051523
v -0.158572 1.179308 -0.051523
v -0.098003 1.179308 -0.134889
v 0.086483 1.243414 -0.119033
v -0.000000 1.243414 -0.147133
v 0.139932 1.243414 -0.045467
v 0.139932 1.243414 0.045467
v 0.086483 1.243414 0.119033
v -0.000000 1.243414 0.147133
v -0.086483 1.243414 0.119033
v -0.139932 1.243414 0.045467
v -0.139932 1.243414 -0.045467
v -0.086483 1.243414 -0.119033
v 0.057890 1.289204 -0.079679
v -0.000000 1.289204 -0.098488
v 0.093668 1.289204 -0.030435
v 0.093668 1.289204 0.030435
v 0.057890 1.289204 0.079679
v -0.000000 1.289204 0.098488
v -0.057890 1.289204 0.079679
v -0.093668 1.289204 0.030435
v -0.093668 1.289204 -0.030435
v -0.057890 1.289204 -0.079679
v 0.026005 1.312100 -0.035793
v -0.000000 1.312100 -0.044242
v 0.042077 1.312100 -0.013672
v 0.042077 1.312100 0.013672
v 0.026005 1.312100 0.035793
v -0.000000 1.312100 0.044242
v -0.026005 1.312100 0.035793
v -0.042077 1.312100 0.013672
v -0.042077 1.312100 -0.013672
v -0.026005 1.312100 -0.035793
vt 1.000000 1.000000
vt 0.900000 0.500000
vt 1.000000 0.500000
vt 0.900000 1.000000
vt 0.800000 0.500000
vt 0.800000 1.000000
vt 0.700000 0.500000
vt 0.700000 1.000000
vt 0.600000 0.500000
vt 0.600000 1.000000
vt 0.500000 0.500000
vt 0.500000 1.000000
vt 0.400000 0.500000
vt 0.400000 1.000000
vt 0.300000 0.500000
vt 0.300000 1.000000
vt 0.200000 0.500000
vt 0.400000 1.000000
vt 0.200000 1.000000
vt 0.100000 0.500000
vt 0.100000 1.000000
vt -0.000000 0.500000
vt 0.978254 0.175836
vt 0.750000 0.010000
vt 0.521746 0.175836
vt 0.500000 1.000000
vt 0.600000 1.000000
vt 0.900000 1.000000
vt 0.800000 1.000000
vt 0.700000 1.000000
vt -0.000000 1.000000
vt 0.100000 1.000000
vt -0.000000 1.000000
vt 0.300000 1.000000
vt 0.200000 1.000000
vt 0.600000 1.000000
vt 1.000000 1.000000
vt 0.900000 1.000000
vt 0.900000 1.000000
vt 1.000000 1.000000
vt 0.200000 1.000000
vt 0.500000 1.000000
vt 0.800000 1.000000
vt 0.100000 1.000000
vt 0.400000 1.000000
vt 0.700000 1.000000
vt -0.000000 1.000000
vt 0.300000 1.000000
vt 0.300000 1.000000
vt 0.200000 1.000000
vt 0.200000 1.000000
vt 0.500000 1.000000
vt 0.800000 1.000000
vt 0.100000 1.000000
vt 0.400000 1.000000
vt 0.700000 1.000000
vt -0.000000 1.000000
vt 0.600000 1.000000
vt 0.500000 1.000000
vt 0.600000 1.000000
vt 0.500000 1.000000
vt 0.600000 1.000000
vt 0.900000 1.000000
vt 0.800000 1.000000
vt 0.100000 1.000000
vt 0.400000 1.000000
vt 0.700000 1.000000
vt -0.000000 1.000000
vt 0.300000 1.000000
vt 1.000000 1.000000
vt 0.900000 1.000000
vt 0.800000 1.000000
vt 0.800000 1.000000
vt 0.200000 1.000000
vt 0.100000 1.000000
vt 0.400000 1.000000
vt 0.700000 1.000000
vt -0.000000 1.000000
vt 0.300000 1.000000
vt 1.000000 1.000000
vt 0.400000 1.000000
vt 0.500000 1.000000
vt 0.400000 1.000000
vt 0.100000 1.000000
vt 0.700000 1.000000
vt -0.000000 1.000000
vt 0.300000 1.000000
vt 0.600000 1.000000
vt 1.000000 1.000000
vt 0.900000 1.000000
vt 0.200000 1.000000
vt 0.500000 1.000000
vt 0.800000 1.000000
vt 0.700000 1.000000
vt 0.700000 1.000000
vt -0.000000 1.000000
vt 0.300000 1.000000
vt 0.600000 1.000000
vt 1.000000 1.000000
vt 0.900000 1.000000
vt 0.200000 1.000000
vt 0.100000 1.000000
vt 0.100000 1.000000
vt -0.000000 1.000000
vt -0.000000 1.000000
vt 0.300000 1.000000
vt 0.600000 1.000000
vt 1.000000 1.000000
vt 0.900000 1.000000
vt 0.200000 1.000000
vt 0.500000 1.000000
vt 0.800000 1.000000
vt 0.400000 1.000000
vt 0.400000 1.000000
vt 0.300000 1.000000
vt 0.300000 1.000000
vt 0.600000 1.000000
vt 1.000000 1.000000
vt 0.900000 1.000000
vt 0.200000 1.000000
vt 0.500000 1.000000
vt 0.800000 1.000000
vt 0.100000 1.000000
vt 0.700000 1.000000
vt 0.600000 1.000000
vt 0.700000 1.000000
vt 0.600000 1.000000
vt 0.700000 1.000000
vt 1.000000 1.000000
vt 0.900000 1.000000
vt 0.200000 1.000000
vt 0.500000 1.000000
vt 0.800000 1.000000
vt 0.100000 1.000000
vt 0.400000 1.000000
vt -0.000000 1.000000
vt 1.000000 1.000000
vt 0.900000 1.000000
vt 0.900000 1.000000
vt 1.000000 1.000000
vt 0.200000 1.000000
vt 0.500000 1.000000
vt 0.800000 1.000000
vt 0.100000 1.000000
vt 0.400000 1.000000
vt -0.000000 1.000000
vt 0.300000 1.000000
vt 0.600000 1.000000
vt 0.500000 1.000000
vt 0.500000 1.000000
vt 0.200000 1.000000
vt 0.800000 1.000000
vt 0.100000 1.000000
vt 0.400000 1.000000
vt 0.700000 1.000000
vt -0.000000 1.000000
vt 0.300000 1.000000
vt 0.200000 1.000000
vt 0.600000 1.000000
vt 0.800000 1.000000
vt 0.900000 1.000000
vt 0.100000 1.000000
vt 0.400000 1.000000
vt 0.700000 1.000000
vt -0.000000 1.000000
vt 0.300000 1.000000
vt 1.000000 1.000000
vt 0.608932 0.444164
vt 0.750000 0.490000
vt 0.891068 0.444164
vt 0.978254 0.324164
vt 0.891068 0.055836
vt 0.608932 0.055836
vt 0.521746 0.324164
vt 1.000000 1.000000
vn 0.3090 0.0000 -0.9511
vn 0.8090 0.0000 -0.5878
vn 1.0000 0.0000 0.0000
vn 0.8090 0.0000 0.5878
vn 0.3090 0.0000 0.9511
vn -0.3090 0.0000 0.9511
vn -0.8090 0.0000 0.5878
vn -1.0000 0.0000 0.0000
vn -0.1862 0.7982 0.5730
vn -0.8090 0.0000 -0.5878
vn -0.3090 0.0000 -0.9511
vn 0.0000 -1.0000 0.0000
vn 0.1862 0.7982 0.5730
vn 0.4874 0.7982 0.3541
vn 0.1862 0.7982 -0.5730
vn 0.6024 0.7982 0.0000
vn 0.4874 0.7982 -0.3541
vn -0.1862 0.7982 -0.5730
vn -0.4874 0.7982 -0.3541
vn -0.6024 0.7982 0.0000
vn -0.4874 0.7982 0.3541
vn 0.2927 0.3210 -0.9007
vn -0.9471 0.3210 0.0000
vn 0.2927 0.3210 0.9007
vn 0.7662 0.3210 -0.5567
vn -0.7662 0.3210 -0.5567
vn -0.2927 0.3210 0.9007
vn 0.9471 0.3210 0.0000
vn -0.2927 0.3210 -0.9007
vn -0.7662 0.3210 0.5567
vn 0.7662 0.3210 0.5567
vn 0.1088 -0.9360 0.3348
vn 0.2848 -0.9360 -0.2069
vn -0.2848 -0.9360 -0.2069
vn -0.1088 -0.9360 0.3348
vn 0.3520 -0.9360 0.0000
vn -0.1088 -0.9360 -0.3348
vn -0.2848 -0.9360 0.2069
vn 0.2848 -0.9360 0.2069
vn 0.1088 -0.9360 -0.3348
vn -0.3520 -0.9360 0.0000
vn -0.1175 0.9249 0.3616
vn 0.6756 -0.7373 0.0000
vn 0.3803 0.9249 0.0000
vn -0.1175 0.9249 -0.3616
vn -0.3076 0.9249 0.2235
vn 0.3076 0.9249 0.2235
vn 0.1175 0.9249 -0.3616
vn -0.3803 0.9249 0.0000
vn 0.1175 0.9249 0.3616
vn 0.3076 0.9249 -0.2235
vn -0.3076 0.9249 -0.2235
vn -0.2787 -0.4319 -0.8578
vn -0.2088 -0.7373 -0.6425
vn -0.5466 -0.7373 0.3971
vn 0.5466 -0.7373 0.3971
vn 0.2088 -0.7373 -0.6425
vn -0.6756 -0.7373 0.0000
vn 0.2088 -0.7373 0.6425
vn 0.5466 -0.7373 -0.3971
vn -0.5466 -0.7373 -0.3971
vn -0.2088 -0.7373 0.6425
vn -0.7297 -0.4319 0.5301
vn 0.7297 -0.4319 0.5301
vn 0.2787 -0.4319 -0.8578
vn -0.9019 -0.4319 0.0000
vn 0.2787 -0.4319 0.8578
vn 0.7297 -0.4319 -0.5301
vn -0.7297 -0.4319 -0.5301
vn -0.2787 -0.4319 0.8578
vn 0.9019 -0.4319 0.0000
vn 0.7768 0.2792 0.5644
vn 0.2174 0.7107 -0.6690
vn 0.2967 0.2792 -0.9132
vn -0.9602 0.2792 0.0000
vn 0.2967 0.2792 0.9132
vn 0.7768 0.2792 -0.5644
vn -0.7768 0.2792 -0.5644
vn -0.2967 0.2792 0.9132
vn 0.9602 0.2792 0.0000
vn -0.2967 0.2792 -0.9132
vn -0.7768 0.2792 0.5644
vn 0.1253 0.9140 0.3858
vn -0.7035 0.7107 0.0000
vn 0.2174 0.7107 0.6690
vn 0.5691 0.7107 -0.4135
vn -0.5691 0.7107 -0.4135
vn -0.2174 0.7107 0.6690
vn 0.7035 0.7107 0.0000
vn -0.2174 0.7107 -0.6690
vn -0.5691 0.7107 0.4135
vn 0.5691 0.7107 0.4135
vn 0.0000 1.0000 0.0000
vn 0.3282 0.9140 -0.2384
vn -0.3282 0.9140 -0.2384
vn -0.1253 0.9140 0.3858
vn 0.4056 0.9140 0.0000
vn -0.1253 0.9140 -0.3858
vn -0.3282 0.9140 0.2384
vn 0.3282 0.9140 0.2384
vn 0.1253 0.9140 -0.3858
vn -0.4056 0.9140 0.0000
usemtl None
s off
f 10/17/7 11/18/7 9/19/7
f 12/20/8 13/21/8 11/18/8
f 14/22/9 15/23/9 13/21/9
f 16/24/10 17/25/10 15/23/10
f 18/26/11 19/27/11 17/25/11
f 20/28/12 21/29/12 19/27/12
f 22/30/13 23/31/13 21/29/13
f 24/32/14 25/33/14 23/31/14
f 20/28/15 35/34/15 22/30/15
f 26/35/16 27/36/16 25/33/16
f 28/37/17 9/38/17 27/36/17
f 15/39/18 19/40/18 23/41/18
f 18/26/19 34/42/19 20/28/19
f 16/24/20 33/43/20 18/26/20
f 10/17/21 29/44/21 12/20/21
f 16/24/22 31/45/22 32/46/22
f 12/20/23 31/45/23 14/22/23
f 10/47/24 38/48/24 30/49/24
f 26/35/25 38/48/25 28/37/25
f 26/35/26 36/50/26 37/51/26
f 22/30/27 36/50/27 24/32/27
f 32/46/10 43/52/10 33/43/10
f 40/53/28 49/54/28 39/55/28
f 30/56/7 39/55/7 29/44/7
f 36/50/14 47/57/14 37/51/14
f 33/43/11 44/58/11 34/42/11
f 29/44/8 41/59/8 31/45/8
f 37/51/16 48/60/16 38/48/16
f 34/42/12 45/61/12 35/34/12
f 31/45/9 42/62/9 32/46/9
f 38/48/17 40/63/17 30/49/17
f 35/34/13 46/64/13 36/50/13
f 56/65/14 67/66/14 57/67/14
f 46/64/29 57/67/29 47/57/29
f 43/52/30 54/68/30 44/58/30
f 39/55/31 51/69/31 41/59/31
f 48/60/32 57/67/32 58/70/32
f 44/58/33 55/71/33 45/61/33
f 41/59/34 52/72/34 42/62/34
f 48/60/35 50/73/35 40/63/35
f 45/61/36 56/65/36 46/64/36
f 42/62/37 53/74/37 43/52/37
f 64/75/38 73/76/38 74/77/38
f 54/68/11 63/78/11 64/75/11
f 51/69/8 59/79/8 61/80/8
f 58/70/16 67/66/16 68/81/16
f 55/71/12 64/75/12 65/82/12
f 51/69/9 62/83/9 52/72/9
f 50/73/17 68/81/17 60/84/17
f 55/71/13 66/85/13 56/65/13
f 52/72/10 63/78/10 53/74/10
f 50/86/7 59/79/7 49/54/7
f 69/87/8 81/88/8 71/89/8
f 59/79/39 71/89/39 61/80/39
f 68/81/40 77/90/40 78/91/40
f 64/75/41 75/92/41 65/82/41
f 61/80/42 72/93/42 62/83/42
f 68/81/43 70/94/43 60/84/43
f 65/82/44 76/95/44 66/85/44
f 62/83/45 73/76/45 63/78/45
f 60/96/46 69/87/46 59/79/46
f 66/85/47 77/90/47 67/66/47
f 85/97/48 94/98/48 95/99/48
f 77/90/16 88/100/16 78/91/16
f 74/77/12 85/97/12 75/92/12
f 71/89/9 82/101/9 72/93/9
f 78/91/17 80/102/17 70/94/17
f 75/92/13 86/103/13 76/95/13
f 72/93/10 83/104/10 73/76/10
f 70/105/7 79/106/7 69/87/7
f 76/95/14 87/107/14 77/90/14
f 73/76/11 84/108/11 74/77/11
f 91/109/49 102/110/49 92/111/49
f 81/88/50 92/111/50 82/101/50
f 88/100/51 90/112/51 80/102/51
f 86/103/52 95/99/52 96/113/52
f 82/101/53 93/114/53 83/104/53
f 80/115/54 89/116/54 79/106/54
f 86/103/55 97/117/55 87/107/55
f 83/104/56 94/98/56 84/108/56
f 81/88/57 89/116/57 91/109/57
f 87/107/58 98/118/58 88/100/58
f 108/119/59 110/120/59 100/121/59
f 98/118/60 100/121/60 90/112/60
f 95/99/61 106/122/61 96/113/61
f 92/111/62 103/123/62 93/114/62
f 90/124/63 99/125/63 89/116/63
f 96/113/64 107/126/64 97/117/64
f 93/114/65 104/127/65 94/98/65
f 91/109/66 99/125/66 101/128/66
f 98/118/67 107/126/67 108/119/67
f 94/98/68 105/129/68 95/99/68
f 115/130/13 126/131/13 116/132/13
f 105/129/69 116/132/69 106/122/69
f 102/110/70 113/133/70 103/123/70
f 100/134/71 109/135/71 99/125/71
f 106/122/72 117/136/72 107/126/72
f 104/127/73 113/133/73 114/137/73
f 99/125/74 111/138/74 101/128/74
f 108/119/75 117/136/75 118/139/75
f 105/129/76 114/137/76 115/130/76
f 101/128/77 112/140/77 102/110/77
f 123/141/78 132/142/78 133/143/78
f 113/133/10 122/144/10 123/141/10
f 110/145/7 119/146/7 109/135/7
f 116/132/14 127/147/14 117/136/14
f 114/137/11 123/141/11 124/148/11
f 109/135/8 121/149/8 111/138/8
f 117/136/16 128/150/16 118/139/16
f 115/130/12 124/148/12 125/151/12
f 111/138/9 122/144/9 112/140/9
f 118/139/17 120/152/17 110/120/17
f 130/153/79 139/154/79 129/155/79
f 120/156/80 129/155/80 119/146/80
f 126/131/81 137/157/81 127/147/81
f 123/141/82 134/158/82 124/148/82
f 121/149/83 129/155/83 131/159/83
f 127/147/84 138/160/84 128/150/84
f 124/148/85 135/161/85 125/151/85
f 121/149/86 132/142/86 122/144/86
f 120/152/87 138/160/87 130/162/87
f 126/131/88 135/161/88 136/163/88
f 143/164/89 154/165/89 144/166/89
f 136/163/90 147/167/90 137/157/90
f 133/143/91 144/166/91 134/158/91
f 129/155/92 141/168/92 131/159/92
f 137/157/93 148/169/93 138/160/93
f 135/161/94 144/166/94 145/170/94
f 131/159/95 142/171/95 132/142/95
f 138/160/96 140/172/96 130/162/96
f 136/163/97 145/170/97 146/173/97
f 133/143/98 142/171/98 143/164/98
f 157/174/99 153/175/99 151/176/99
f 141/168/100 149/177/100 151/176/100
f 147/167/101 158/178/101 148/169/101
f 145/170/102 154/165/102 155/179/102
f 141/168/103 152/180/103 142/171/103
f 148/169/104 150/181/104 140/172/104
f 146/173/105 155/179/105 156/182/105
f 142/171/106 153/175/106 143/164/106
f 140/183/107 149/177/107 139/154/107
f 146/173/108 157/174/108 147/167/108
f 10/17/7 12/20/7 11/18/7
f 12/20/8 14/22/8 13/21/8
f 14/22/9 16/24/9 15/23/9
f 16/24/10 18/26/10 17/25/10
f 18/26/11 20/28/11 19/27/11
f 20/28/12 22/30/12 21/29/12
f 22/30/13 24/32/13 23/31/13
f 24/32/14 26/35/14 25/33/14
f 20/28/15 34/42/15 35/34/15
f 26/35/16 28/37/16 27/36/16
f 28/37/17 10/47/17 9/38/17
f 27/184/18 9/185/18 11/186/18
f 11/186/18 13/187/18 15/39/18
f 15/39/18 17/188/18 19/40/18
f 19/40/18 21/189/18 23/41/18
f 23/41/18 25/190/18 27/184/18
f 27/184/18 11/186/18 23/41/18
f 11/186/18 15/39/18 23/41/18
f 18/26/19 33/43/19 34/42/19
f 16/24/20 32/46/20 33/43/20
f 10/17/21 30/56/21 29/44/21
f 16/24/22 14/22/22 31/45/22
f 12/20/23 29/44/23 31/45/23
f 10/47/24 28/37/24 38/48/24
f 26/35/25 37/51/25 38/48/25
f 26/35/26 24/32/26 36/50/26
f 22/30/27 35/34/27 36/50/27
f 32/46/10 42/62/10 43/52/10
f 40/53/28 50/86/28 49/54/28
f 30/56/7 40/53/7 39/55/7
f 36/50/14 46/64/14 47/57/14
f 33/43/11 43/52/11 44/58/11
f 29/44/8 39/55/8 41/59/8
f 37/51/16 47/57/16 48/60/16
f 34/42/12 44/58/12 45/61/12
f 31/45/9 41/59/9 42/62/9
f 38/48/17 48/60/17 40/63/17
f 35/34/13 45/61/13 46/64/13
f 56/65/14 66/85/14 67/66/14
f 46/64/29 56/65/29 57/67/29
f 43/52/30 53/74/30 54/68/30
f 39/55/31 49/54/31 51/69/31
f 48/60/32 47/57/32 57/67/32
f 44/58/33 54/68/33 55/71/33
f 41/59/34 51/69/34 52/72/34
f 48/60/35 58/70/35 50/73/35
f 45/61/36 55/71/36 56/65/36
f 42/62/37 52/72/37 53/74/37
f 64/75/38 63/78/38 73/76/38
f 54/68/11 53/74/11 63/78/11
f 51/69/8 49/54/8 59/79/8
f 58/70/16 57/67/16 67/66/16
f 55/71/12 54/68/12 64/75/12
f 51/69/9 61/80/9 62/83/9
f 50/73/17 58/70/17 68/81/17
f 55/71/13 65/82/13 66/85/13
f 52/72/10 62/83/10 63/78/10
f 50/86/7 60/96/7 59/79/7
f 69/87/8 79/106/8 81/88/8
f 59/79/39 69/87/39 71/89/39
f 68/81/40 67/66/40 77/90/40
f 64/75/41 74/77/41 75/92/41
f 61/80/42 71/89/42 72/93/42
f 68/81/43 78/91/43 70/94/43
f 65/82/44 75/92/44 76/95/44
f 62/83/45 72/93/45 73/76/45
f 60/96/46 70/105/46 69/87/46
f 66/85/47 76/95/47 77/90/47
f 85/97/48 84/108/48 94/98/48
f 77/90/16 87/107/16 88/100/16
f 74/77/12 84/108/12 85/97/12
f 71/89/9 81/88/9 82/101/9
f 78/91/17 88/100/17 80/102/17
f 75/92/13 85/97/13 86/103/13
f 72/93/10 82/101/10 83/104/10
f 70/105/7 80/115/7 79/106/7
f 76/95/14 86/103/14 87/107/14
f 73/76/11 83/104/11 84/108/11
f 91/109/49 101/128/49 102/110/49
f 81/88/50 91/109/50 92/111/50
f 88/100/51 98/118/51 90/112/51
f 86/103/52 85/97/52 95/99/52
f 82/101/53 92/111/53 93/114/53
f 80/115/54 90/124/54 89/116/54
f 86/103/55 96/113/55 97/117/55
f 83/104/56 93/114/56 94/98/56
f 81/88/57 79/106/57 89/116/57
f 87/107/58 97/117/58 98/118/58
f 108/119/59 118/139/59 110/120/59
f 98/118/60 108/119/60 100/121/60
f 95/99/61 105/129/61 106/122/61
f 92/111/62 102/110/62 103/123/62
f 90/124/63 100/134/63 99/125/63
f 96/113/64 106/122/64 107/126/64
f 93/114/65 103/123/65 104/127/65
f 91/109/66 89/116/66 99/125/66
f 98/118/67 97/117/67 107/126/67
f 94/98/68 104/127/68 105/129/68
f 115/130/13 125/151/13 126/131/13
f 105/129/69 115/130/69 116/132/69
f 102/110/70 112/140/70 113/133/70
f 100/134/71 110/145/71 109/135/71
f 106/122/72 116/132/72 117/136/72
f 104/127/73 103/123/73 113/133/73
f 99/125/74 109/135/74 111/138/74
f 108/119/75 107/126/75 117/136/75
f 105/129/76 104/127/76 114/137/76
f 101/128/77 111/138/77 112/140/77
f 123/141/78 122/144/78 132/142/78
f 113/133/10 112/140/10 122/144/10
f 110/145/7 120/156/7 119/146/7
f 116/132/14 126/131/14 127/147/14
f 114/137/11 113/133/11 123/141/11
f 109/135/8 119/146/8 121/149/8
f 117/136/16 127/147/16 128/150/16
f 115/130/12 114/137/12 124/148/12
f 111/138/9 121/149/9 122/144/9
f 118/139/17 128/150/17 120/152/17
f 130/153/79 140/183/79 139/154/79
f 120/156/80 130/153/80 129/155/80
f 126/131/81 136/163/81 137/157/81
f 123/141/82 133/143/82 134/158/82
f 121/149/83 119/146/83 129/155/83
f 127/147/84 137/157/84 138/160/84
f 124/148/85 134/158/85 135/161/85
f 121/149/86 131/159/86 132/142/86
f 120/152/87 128/150/87 138/160/87
f 126/131/88 125/151/88 135/161/88
f 143/164/89 153/175/89 154/165/89
f 136/163/90 146/173/90 147/167/90
f 133/143/91 143/164/91 144/166/91
f 129/155/92 139/154/92 141/168/92
f 137/157/93 147/167/93 148/169/93
f 135/161/94 134/158/94 144/166/94
f 131/159/95 141/168/95 142/171/95
f 138/160/96 148/169/96 140/172/96
f 136/163/97 135/161/97 145/170/97
f 133/143/98 132/142/98 142/171/98
f 151/176/99 149/177/99 157/174/99
f 149/177/99 150/181/99 157/174/99
f 150/181/99 158/178/99 157/174/99
f 157/174/99 156/182/99 153/175/99
f 156/182/99 155/179/99 153/175/99
f 155/179/99 154/165/99 153/175/99
f 153/175/99 152/180/99 151/176/99
f 141/168/100 139/154/100 149/177/100
f 147/167/101 157/174/101 158/178/101
f 145/170/102 144/166/102 154/165/102
f 141/168/103 151/176/103 152/180/103
f 148/169/104 158/178/104 150/181/104
f 146/173/105 145/170/105 155/179/105
f 142/171/106 152/180/106 153/175/106
f 140/183/107 150/191/107 149/177/107
f 146/173/108 156/182/108 157/174/108
