# Blender v2.81 (sub 16) OBJ File: ''
# www.blender.org
mtllib pawn.mtl
o Base.003
v 0.500000 0.006250 -0.500000
v -0.500000 0.006250 -0.500000
v -0.500000 0.193750 -0.500000
v 0.500000 0.193750 -0.500000
v -0.500000 0.006250 0.500000
v 0.500000 0.006250 0.500000
v 0.500000 0.193750 0.500000
v -0.500000 0.193750 0.500000
vt 0.500000 0.000000
vt 0.250000 0.046875
vt 0.250000 0.000000
vt 1.000000 0.000000
vt 0.750000 0.046875
vt 0.750000 0.000000
vt 0.500000 0.046875
vt 0.250000 0.296875
vt 0.750000 0.046875
vt 0.500000 0.296875
vt 0.500000 0.046875
vt 0.000000 0.046875
vt 0.000000 0.000000
vt 1.000000 0.046875
vt 0.500000 0.296875
vt 0.750000 0.296875
vn 0.0000 0.0000 -1.0000
vn 0.0000 -0.0000 1.0000
vn 0.0000 1.0000 0.0000
vn 0.0000 -1.0000 -0.0000
vn 1.0000 0.0000 0.0000
vn -1.0000 0.0000 0.0000
usemtl Default_OBJ.003
s off
f 2/1/1 4/2/1 1/3/1
f 6/4/2 8/5/2 5/6/2
f 3/7/3 7/8/3 4/2/3
f 5/9/4 1/10/4 6/11/4
f 1/3/5 7/12/5 6/13/5
f 5/6/6 3/7/6 2/1/6
f 2/1/1 3/7/1 4/2/1
f 6/4/2 7/14/2 8/5/2
f 3/7/3 8/15/3 7/8/3
f 5/9/4 2/16/4 1/10/4
f 1/3/5 4/2/5 7/12/5
f 5/6/6 8/5/6 3/7/6
o LowerLegRight
v 0.156250 0.187500 -0.000000
v 0.031250 0.187500 -0.000000
v 0.031250 0.437500 -0.000000
v 0.156250 0.437500 -0.000000
v 0.031250 0.187500 0.125000
v 0.156250 0.187500 0.125000
v 0.156250 0.437500 0.125000
v 0.031250 0.437500 0.125000
vt 0.062500 0.687500
vt 0.031250 0.750000
vt 0.031250 0.687500
vt 0.125000 0.687500
vt 0.093750 0.750000
vt 0.093750 0.687500
vt 0.062500 0.750000
vt 0.031250 0.781250
vt 0.093750 0.750000
vt 0.062500 0.781250
vt 0.062500 0.750000
vt 0.000000 0.750000
vt 0.000000 0.687500
vt 0.125000 0.750000
vt 0.062500 0.781250
vt 0.093750 0.781250
vn 0.0000 0.0000 -1.0000
vn 0.0000 -0.0000 1.0000
vn 0.0000 1.0000 0.0000
vn 0.0000 -1.0000 -0.0000
vn 1.0000 -0.0000 0.0000
vn -1.0000 -0.0000 0.0000
usemtl Default_OBJ.003
s off
f 10/17/7 12/18/7 9/19/7
f 14/20/8 16/21/8 13/22/8
f 11/23/9 15/24/9 12/18/9
f 13/25/10 9/26/10 14/27/10
f 9/19/11 15/28/11 14/29/11
f 13/22/12 11/23/12 10/17/12
f 10/17/7 11/23/7 12/18/7
f 14/20/8 15/30/8 16/21/8
f 11/23/9 16/31/9 15/24/9
f 13/25/10 10/32/10 9/26/10
f 9/19/11 12/18/11 15/28/11
f 13/22/12 16/21/12 11/23/12
o UpperLegRight
v 0.127810 0.635702 0.203332
v 0.003710 0.620728 0.203332
v 0.032150 0.385026 0.125000
v 0.156250 0.400000 0.125000
v -0.000981 0.659612 0.084627
v 0.123119 0.674586 0.084627
v 0.151558 0.438884 0.006294
v 0.027458 0.423910 0.006294
vt 0.062500 0.796875
vt 0.031250 0.859375
vt 0.031250 0.796875
vt 0.093750 0.796875
vt 0.125000 0.859375
vt 0.093750 0.859375
vt 0.062500 0.859375
vt 0.031250 0.890625
vt 0.093750 0.859375
vt 0.062500 0.890625
vt 0.062500 0.859375
vt 0.000000 0.796875
vt 0.000000 0.859375
vt 0.125000 0.796875
vt 0.062500 0.890625
vt 0.093750 0.890625
vn 0.0375 -0.3111 0.9496
vn -0.0375 0.3111 -0.9496
vn 0.1138 -0.9428 -0.3133
vn -0.1138 0.9428 0.3133
vn 0.9928 0.1198 -0.0000
vn -0.9928 -0.1198 -0.0000
usemtl Default_OBJ.003
s off
f 18/33/13 20/34/13 17/35/13
f 21/36/14 23/37/14 24/38/14
f 19/39/15 23/40/15 20/34/15
f 21/41/16 17/42/16 22/43/16
f 22/44/17 20/34/17 23/45/17
f 21/36/18 19/39/18 18/33/18
f 18/33/13 19/39/13 20/34/13
f 21/36/14 22/46/14 23/37/14
f 19/39/15 24/47/15 23/40/15
f 21/41/16 18/48/16 17/42/16
f 22/44/17 17/35/17 20/34/17
f 21/36/18 24/38/18 19/39/18
o LowerBody
v 0.125000 0.656250 0.137500
v -0.111294 0.656250 0.055860
v -0.111294 0.843750 0.055860
v 0.125000 0.843750 0.137500
v -0.152114 0.656250 0.174008
v 0.084180 0.656250 0.255647
v 0.084180 0.843750 0.255647
v -0.152114 0.843750 0.174008
vt 0.375000 0.812500
vt 0.312500 0.859375
vt 0.312500 0.812500
vt 0.468750 0.812500
vt 0.406250 0.859375
vt 0.406250 0.812500
vt 0.375000 0.859375
vt 0.312500 0.890625
vt 0.375000 0.859375
vt 0.437500 0.890625
vt 0.375000 0.890625
vt 0.281250 0.859375
vt 0.281250 0.812500
vt 0.468750 0.859375
vt 0.375000 0.890625
vt 0.437500 0.859375
vn 0.3266 0.0000 -0.9452
vn -0.3266 -0.0000 0.9452
vn -0.0000 1.0000 -0.0000
vn 0.0000 -1.0000 0.0000
vn 0.9452 -0.0000 0.3266
vn -0.9452 0.0000 -0.3266
usemtl Default_OBJ.003
s off
f 26/49/19 28/50/19 25/51/19
f 30/52/20 32/53/20 29/54/20
f 27/55/21 31/56/21 28/50/21
f 30/57/22 26/58/22 25/59/22
f 25/51/23 31/60/23 30/61/23
f 29/54/24 27/55/24 26/49/24
f 26/49/19 27/55/19 28/50/19
f 30/52/20 31/62/20 32/53/20
f 27/55/21 32/63/21 31/56/21
f 30/57/22 29/64/22 26/58/22
f 25/51/23 28/50/23 31/60/23
f 29/54/24 32/53/24 27/55/24
o UpperBody
v 0.098960 1.089619 0.212870
v -0.137335 1.089619 0.131230
v -0.152114 0.843750 0.174008
v 0.084180 0.843750 0.255647
v -0.097189 1.066990 0.015035
v 0.139105 1.066990 0.096675
v 0.124325 0.821121 0.139452
v -0.111969 0.821121 0.057813
vt 0.312500 0.906250
vt 0.375000 0.968750
vt 0.312500 0.968750
vt 0.406250 0.906250
vt 0.468750 0.968750
vt 0.406250 0.968750
vt 0.312500 1.000000
vt 0.437500 0.968750
vt 0.375000 1.000000
vt 0.375000 0.968750
vt 0.281250 0.968750
vt 0.281250 0.906250
vt 0.375000 0.906250
vt 0.468750 0.906250
vt 0.375000 1.000000
vt 0.437500 1.000000
vn -0.3212 0.1810 0.9296
vn 0.3212 -0.1810 -0.9296
vn -0.0591 -0.9835 0.1711
vn 0.0591 0.9835 -0.1711
vn 0.9452 -0.0000 0.3266
vn -0.9452 -0.0000 -0.3266
usemtl Default_OBJ.003
s off
f 33/65/25 35/66/25 36/67/25
f 37/68/26 39/69/26 40/70/26
f 35/66/27 39/71/27 36/67/27
f 37/72/28 33/73/28 38/74/28
f 33/65/29 39/75/29 38/76/29
f 34/77/30 40/70/30 35/66/30
f 33/65/25 34/77/25 35/66/25
f 37/68/26 38/78/26 39/69/26
f 35/66/27 40/79/27 39/71/27
f 37/72/28 34/80/28 33/73/28
f 33/65/29 36/67/29 39/75/29
f 34/77/30 37/68/30 40/70/30
o UpperArmRight
v 0.213249 0.992015 0.306467
v 0.097666 0.968752 0.264940
v 0.192862 0.856910 0.062631
v 0.308445 0.880172 0.104158
v 0.097419 1.078099 0.204374
v 0.213002 1.101361 0.245901
v 0.308198 0.989519 0.043592
v 0.192615 0.966256 0.002065
vt 0.515625 0.906250
vt 0.546875 0.968750
vt 0.515625 0.968750
vt 0.609375 0.906250
vt 0.578125 0.968750
vt 0.578125 0.906250
vt 0.546875 1.000000
vt 0.515625 1.000000
vt 0.578125 0.968750
vt 0.546875 1.000000
vt 0.546875 0.968750
vt 0.484375 0.968750
vt 0.484375 0.906250
vt 0.546875 0.906250
vt 0.609375 0.968750
vt 0.578125 1.000000
vn 0.0020 -0.8748 0.4845
vn -0.0020 0.8748 -0.4845
vn 0.3808 -0.4474 -0.8092
vn -0.3808 0.4474 0.8092
vn 0.9247 0.1861 0.3322
vn -0.9247 -0.1861 -0.3322
usemtl Default_OBJ.003
s off
f 41/81/31 43/82/31 44/83/31
f 46/84/32 48/85/32 45/86/32
f 44/83/33 48/87/33 47/88/33
f 45/89/34 41/90/34 46/91/34
f 41/81/35 47/92/35 46/93/35
f 42/94/36 48/85/36 43/82/36
f 41/81/31 42/94/31 43/82/31
f 46/84/32 47/95/32 48/85/32
f 44/83/33 43/82/33 48/87/33
f 45/89/34 42/96/34 41/90/34
f 41/81/35 44/83/35 47/92/35
f 42/94/36 45/86/36 48/85/36
o LowerArmRight
v 0.345194 0.982577 -0.153306
v 0.222905 0.969822 -0.175834
v 0.175614 0.991301 0.068711
v 0.297904 1.004055 0.091239
v 0.233445 0.845939 -0.162915
v 0.355735 0.858694 -0.140387
v 0.308445 0.880172 0.104158
v 0.186155 0.867418 0.081630
vt 0.546875 0.796875
vt 0.515625 0.859375
vt 0.515625 0.796875
vt 0.578125 0.796875
vt 0.609375 0.859375
vt 0.578125 0.859375
vt 0.546875 0.890625
vt 0.515625 0.890625
vt 0.546875 0.859375
vt 0.578125 0.890625
vt 0.546875 0.890625
vt 0.484375 0.796875
vt 0.484375 0.859375
vt 0.546875 0.859375
vt 0.609375 0.796875
vt 0.578125 0.859375
vn -0.0843 0.9911 -0.1034
vn 0.0843 -0.9911 0.1034
vn -0.1892 0.0859 0.9782
vn 0.1892 -0.0859 -0.9782
vn 0.9783 0.1020 0.1802
vn -0.9783 -0.1020 -0.1802
usemtl Default_OBJ.003
s off
f 50/97/37 52/98/37 49/99/37
f 53/100/38 55/101/38 56/102/38
f 52/98/39 56/103/39 55/104/39
f 54/105/40 50/106/40 49/107/40
f 54/108/41 52/98/41 55/109/41
f 50/97/42 56/102/42 51/110/42
f 50/97/37 51/110/37 52/98/37
f 53/100/38 54/111/38 55/101/38
f 52/98/39 51/110/39 56/103/39
f 54/105/40 53/112/40 50/106/40
f 54/108/41 49/99/41 52/98/41
f 50/97/42 53/100/42 56/102/42
o WeaponGrip.002
v 0.294082 1.167360 -0.153863
v 0.232937 1.160983 -0.165127
v 0.221114 1.166353 -0.103990
v 0.282259 1.172730 -0.092726
v 0.317264 0.169919 -0.061774
v 0.378409 0.176297 -0.050510
v 0.366586 0.181666 0.010627
v 0.305441 0.175289 -0.000637
vt 0.265625 0.312500
vt 0.250000 0.328125
vt 0.250000 0.312500
vt 0.515625 0.312500
vt 0.531250 0.328125
vt 0.515625 0.328125
vt 0.265625 0.578125
vt 0.250000 0.578125
vt 0.265625 0.328125
vt 0.281250 0.578125
vt 0.265625 0.578125
vt 0.000000 0.312500
vt 0.000000 0.328125
vt 0.265625 0.328125
vt 0.531250 0.312500
vt 0.281250 0.328125
vn -0.0843 0.9911 -0.1034
vn 0.0843 -0.9911 0.1034
vn -0.1892 0.0859 0.9782
vn 0.1892 -0.0859 -0.9782
vn 0.9783 0.1020 0.1802
vn -0.9783 -0.1020 -0.1802
vn 0.0843 -0.9911 0.1033
usemtl Default_OBJ.003
s off
f 58/113/43 60/114/43 57/115/43
f 61/116/44 63/117/44 64/118/44
f 60/114/45 64/119/45 63/120/45
f 62/121/46 58/122/46 57/123/46
f 62/124/47 60/114/47 63/125/47
f 58/113/48 64/118/48 59/126/48
f 58/113/43 59/126/43 60/114/43
f 61/116/49 62/127/49 63/117/49
f 60/114/45 59/126/45 64/119/45
f 62/121/46 61/128/46 58/122/46
f 62/124/47 57/115/47 60/114/47
f 58/113/48 61/116/48 64/118/48
o WeaponTop.001
v 0.411101 1.242057 -0.137794
v 0.105376 1.210170 -0.194114
v 0.093554 1.215540 -0.132978
v 0.399278 1.247426 -0.076658
v 0.110647 1.148228 -0.187655
v 0.416371 1.180115 -0.131334
v 0.404549 1.185485 -0.070198
v 0.098824 1.153598 -0.126519
vt 0.093750 0.343750
vt 0.015625 0.359375
vt 0.015625 0.343750
vt 0.187500 0.343750
vt 0.109375 0.359375
vt 0.109375 0.343750
vt 0.093750 0.375000
vt 0.015625 0.375000
vt 0.093750 0.359375
vt 0.171875 0.375000
vt 0.093750 0.375000
vt 0.000000 0.343750
vt 0.000000 0.359375
vt 0.093750 0.359375
vt 0.187500 0.359375
vt 0.171875 0.359375
vn -0.0843 0.9911 -0.1033
vn 0.0843 -0.9911 0.1034
vn -0.1892 0.0859 0.9782
vn 0.1892 -0.0859 -0.9782
vn 0.9783 0.1020 0.1802
vn -0.9783 -0.1020 -0.1802
vn -0.0843 0.9911 -0.1034
usemtl Default_OBJ.003
s off
f 66/129/50 68/130/50 65/131/50
f 70/132/51 72/133/51 69/134/51
f 68/130/52 72/135/52 71/136/52
f 70/137/53 66/138/53 65/139/53
f 70/140/54 68/130/54 71/141/54
f 66/129/55 72/133/55 67/142/55
f 66/129/56 67/142/56 68/130/56
f 70/132/51 71/143/51 72/133/51
f 68/130/52 67/142/52 72/135/52
f 70/137/53 69/144/53 66/138/53
f 70/140/54 65/131/54 68/130/54
f 66/129/55 69/134/55 72/133/55
o WeaponSpikeRight
v 0.390019 1.489823 -0.163632
v 0.328874 1.483445 -0.174896
v 0.317052 1.488815 -0.113760
v 0.378197 1.495192 -0.102496
v 0.349956 1.235679 -0.149058
v 0.411101 1.242057 -0.137794
v 0.399278 1.247426 -0.076658
v 0.338133 1.241049 -0.087922
vt 0.062500 0.390625
vt 0.078125 0.406250
vt 0.062500 0.406250
vt 0.140625 0.390625
vt 0.156250 0.406250
vt 0.140625 0.406250
vt 0.078125 0.468750
vt 0.062500 0.468750
vt 0.078125 0.406250
vt 0.093750 0.468750
vt 0.078125 0.468750
vt 0.000000 0.390625
vt 0.000000 0.406250
vt 0.078125 0.390625
vt 0.156250 0.390625
vt 0.093750 0.406250
vn -0.0843 0.9911 -0.1033
vn 0.0843 -0.9911 0.1034
vn -0.1892 0.0859 0.9782
vn 0.1892 -0.0859 -0.9782
vn 0.9783 0.1020 0.1802
vn -0.9783 -0.1020 -0.1802
vn -0.0843 0.9911 -0.1034
vn 0.0843 -0.9911 0.1033
usemtl Default_OBJ.003
s off
f 73/145/57 75/146/57 76/147/57
f 77/148/58 79/149/58 80/150/58
f 76/147/59 80/151/59 79/152/59
f 78/153/60 74/154/60 73/155/60
f 78/156/61 76/147/61 79/157/61
f 74/158/62 80/150/62 75/146/62
f 73/145/63 74/158/63 75/146/63
f 77/148/64 78/159/64 79/149/64
f 76/147/59 75/146/59 80/151/59
f 78/153/60 77/160/60 74/154/60
f 78/156/61 73/145/61 76/147/61
f 74/158/62 77/148/62 80/150/62
o WeaponSpikeMid
v 0.262459 1.539009 -0.192620
v 0.201314 1.532632 -0.203884
v 0.189491 1.538002 -0.142748
v 0.250636 1.544379 -0.131484
v 0.227666 1.222925 -0.171586
v 0.288811 1.229302 -0.160322
v 0.276989 1.234672 -0.099186
v 0.215844 1.228294 -0.110450
vt 0.093750 0.484375
vt 0.078125 0.500000
vt 0.078125 0.484375
vt 0.187500 0.484375
vt 0.171875 0.500000
vt 0.171875 0.484375
vt 0.093750 0.500000
vt 0.078125 0.578125
vt 0.109375 0.500000
vt 0.093750 0.578125
vt 0.093750 0.500000
vt 0.000000 0.500000
vt 0.000000 0.484375
vt 0.187500 0.500000
vt 0.093750 0.578125
vt 0.109375 0.578125
vn -0.0843 0.9911 -0.1034
vn 0.0843 -0.9911 0.1033
vn -0.1892 0.0859 0.9782
vn 0.1892 -0.0859 -0.9782
vn 0.9783 0.1020 0.1802
vn -0.9783 -0.1020 -0.1802
vn 0.0843 -0.9911 0.1034
usemtl Default_OBJ.003
s off
f 82/161/65 84/162/65 81/163/65
f 86/164/66 88/165/66 85/166/66
f 83/167/67 87/168/67 84/162/67
f 85/169/68 81/170/68 86/171/68
f 81/163/69 87/172/69 86/173/69
f 85/166/70 83/167/70 82/161/70
f 82/161/65 83/167/65 84/162/65
f 86/164/71 87/174/71 88/165/71
f 83/167/67 88/175/67 87/168/67
f 85/169/68 82/176/68 81/170/68
f 81/163/69 84/162/69 87/172/69
f 85/166/70 88/165/70 83/167/70
o WeaponSpikeLeft
v 0.145439 1.464313 -0.208689
v 0.084295 1.457936 -0.219953
v 0.072472 1.463305 -0.158816
v 0.133617 1.469683 -0.147552
v 0.105376 1.210170 -0.194114
v 0.166521 1.216547 -0.182850
v 0.154699 1.221917 -0.121714
v 0.093554 1.215540 -0.132978
vt 0.062500 0.593750
vt 0.078125 0.609375
vt 0.062500 0.609375
vt 0.156250 0.593750
vt 0.140625 0.609375
vt 0.140625 0.593750
vt 0.062500 0.671875
vt 0.093750 0.609375
vt 0.078125 0.671875
vt 0.078125 0.609375
vt 0.000000 0.609375
vt 0.000000 0.593750
vt 0.078125 0.593750
vt 0.156250 0.609375
vt 0.078125 0.671875
vt 0.093750 0.671875
vn -0.0843 0.9911 -0.1034
vn 0.0843 -0.9911 0.1034
vn -0.1892 0.0859 0.9782
vn 0.1892 -0.0859 -0.9782
vn 0.9783 0.1020 0.1802
vn -0.9783 -0.1020 -0.1802
vn -0.0843 0.9911 -0.1033
usemtl Default_OBJ.003
s off
f 89/177/72 91/178/72 92/179/72
f 94/180/73 96/181/73 93/182/73
f 91/178/74 95/183/74 92/179/74
f 93/184/75 89/185/75 94/186/75
f 89/177/76 95/187/76 94/188/76
f 93/182/77 91/178/77 90/189/77
f 89/177/78 90/189/78 91/178/78
f 94/180/73 95/190/73 96/181/73
f 91/178/74 96/191/74 95/183/74
f 93/184/75 90/192/75 89/185/75
f 89/177/76 92/179/76 95/187/76
f 93/182/77 96/181/77 91/178/77
o UpperArmLeft
v -0.140050 1.086276 0.130943
v -0.255376 1.106481 0.087163
v -0.308791 0.863955 0.115941
v -0.193466 0.843750 0.159721
v -0.215230 1.083852 -0.029032
v -0.099905 1.063646 0.014748
v -0.153320 0.821121 0.043526
v -0.268646 0.841326 -0.000254
vt 0.687500 0.906250
vt 0.656250 0.968750
vt 0.656250 0.906250
vt 0.750000 0.906250
vt 0.718750 0.968750
vt 0.718750 0.906250
vt 0.687500 0.968750
vt 0.656250 1.000000
vt 0.718750 0.968750
vt 0.687500 1.000000
vt 0.687500 0.968750
vt 0.625000 0.968750
vt 0.625000 0.906250
vt 0.750000 0.968750
vt 0.687500 1.000000
vt 0.718750 1.000000
vn -0.3212 0.1810 0.9296
vn 0.3212 -0.1810 -0.9296
vn -0.2137 -0.9701 0.1151
vn 0.2137 0.9701 -0.1151
vn 0.9226 -0.1616 0.3502
vn -0.9226 0.1616 -0.3502
usemtl Default_OBJ.003
s off
f 98/193/79 100/194/79 97/195/79
f 102/196/80 104/197/80 101/198/80
f 99/199/81 103/200/81 100/194/81
f 101/201/82 97/202/82 102/203/82
f 97/195/83 103/204/83 102/205/83
f 98/193/84 104/197/84 99/199/84
f 98/193/79 99/199/79 100/194/79
f 102/196/80 103/206/80 104/197/80
f 99/199/81 104/207/81 103/200/81
f 101/201/82 98/208/82 97/202/82
f 97/195/83 100/194/83 103/204/83
f 98/193/84 101/198/84 104/197/84
o LowerArmLeft
v -0.163006 0.630832 -0.018782
v -0.278332 0.651038 -0.062562
v -0.261329 0.891514 0.003634
v -0.146003 0.871309 0.047414
v -0.325794 0.623479 0.049744
v -0.210468 0.603273 0.093524
v -0.193466 0.843750 0.159721
v -0.308791 0.863955 0.115941
vt 0.687500 0.796875
vt 0.656250 0.859375
vt 0.656250 0.796875
vt 0.718750 0.796875
vt 0.750000 0.859375
vt 0.718750 0.859375
vt 0.687500 0.859375
vt 0.656250 0.890625
vt 0.718750 0.859375
vt 0.687500 0.890625
vt 0.687500 0.859375
vt 0.625000 0.796875
vt 0.625000 0.859375
vt 0.750000 0.796875
vt 0.687500 0.890625
vt 0.718750 0.890625
vn 0.3797 0.2205 -0.8985
vn -0.3797 -0.2205 0.8985
vn 0.0680 0.9619 0.2648
vn -0.0680 -0.9619 -0.2648
vn 0.9226 -0.1616 0.3502
vn -0.9226 0.1616 -0.3502
usemtl Default_OBJ.003
s off
f 106/209/85 108/210/85 105/211/85
f 109/212/86 111/213/86 112/214/86
f 107/215/87 111/216/87 108/210/87
f 109/217/88 105/218/88 110/219/88
f 110/220/89 108/210/89 111/221/89
f 109/212/90 107/215/90 106/209/90
f 106/209/85 107/215/85 108/210/85
f 109/212/86 110/222/86 111/213/86
f 107/215/87 112/223/87 111/216/87
f 109/217/88 106/224/88 105/218/88
f 110/220/89 105/211/89 108/210/89
f 109/212/90 112/214/90 107/215/90
o Head.003
v 0.115537 1.342755 0.231497
v -0.134360 1.335754 0.229853
v -0.127422 1.086012 0.238860
v 0.122475 1.093014 0.240504
v -0.132465 1.326796 -0.019979
v 0.117431 1.333798 -0.018335
v 0.124369 1.084056 -0.009328
v -0.125527 1.077055 -0.010972
vt 0.546875 0.656250
vt 0.609375 0.718750
vt 0.546875 0.718750
vt 0.734375 0.656250
vt 0.671875 0.718750
vt 0.671875 0.656250
vt 0.546875 0.781250
vt 0.609375 0.718750
vt 0.671875 0.781250
vt 0.609375 0.781250
vt 0.484375 0.718750
vt 0.484375 0.656250
vt 0.609375 0.656250
vt 0.734375 0.718750
vt 0.609375 0.781250
vt 0.671875 0.718750
vn -0.0076 0.0358 0.9993
vn 0.0076 -0.0358 -0.9993
vn 0.0278 -0.9990 0.0360
vn -0.0277 0.9990 -0.0360
vn 0.9996 0.0280 0.0066
vn -0.9996 -0.0280 -0.0066
vn 0.0277 -0.9990 0.0360
vn -0.0278 0.9990 -0.0360
usemtl Default_OBJ.003
s off
f 113/225/91 115/226/91 116/227/91
f 118/228/92 120/229/92 117/230/92
f 115/226/93 119/231/93 116/227/93
f 118/232/94 114/233/94 113/234/94
f 113/225/95 119/235/95 118/236/95
f 117/230/96 115/226/96 114/237/96
f 113/225/91 114/237/91 115/226/91
f 118/228/92 119/238/92 120/229/92
f 115/226/97 120/239/97 119/231/97
f 118/232/98 117/240/98 114/233/98
f 113/225/95 116/227/95 119/235/95
f 117/230/96 120/229/96 115/226/96
o UpperLegLeft
v -0.051181 0.420419 0.016028
v -0.173723 0.444675 0.011534
v -0.128801 0.682923 0.072527
v -0.006259 0.658666 0.077022
v -0.183924 0.415586 0.132673
v -0.061383 0.391330 0.137168
v -0.016461 0.629577 0.198161
v -0.139002 0.653834 0.193666
vt 0.203125 0.796875
vt 0.171875 0.859375
vt 0.171875 0.796875
vt 0.234375 0.796875
vt 0.265625 0.859375
vt 0.234375 0.859375
vt 0.203125 0.890625
vt 0.171875 0.890625
vt 0.203125 0.859375
vt 0.234375 0.890625
vt 0.203125 0.890625
vt 0.140625 0.796875
vt 0.140625 0.859375
vt 0.203125 0.859375
vt 0.265625 0.796875
vt 0.234375 0.859375
vn 0.0816 0.2327 -0.9691
vn -0.0816 -0.2327 0.9691
vn 0.1797 0.9530 0.2440
vn -0.1797 -0.9530 -0.2440
vn 0.9803 -0.1941 0.0360
vn -0.9803 0.1940 -0.0360
usemtl Default_OBJ.003
s off
f 122/241/99 124/242/99 121/243/99
f 125/244/100 127/245/100 128/246/100
f 124/242/101 128/247/101 127/248/101
f 126/249/102 122/250/102 121/251/102
f 126/252/103 124/242/103 127/253/103
f 122/241/104 128/246/104 123/254/104
f 122/241/99 123/254/99 124/242/99
f 125/244/100 126/255/100 127/245/100
f 124/242/101 123/254/101 128/247/101
f 126/249/102 125/256/102 122/250/102
f 126/252/103 121/243/103 124/242/103
f 122/241/104 125/244/104 128/246/104
o LoweLegLeft
v -0.101084 0.181809 0.071483
v -0.223626 0.206065 0.066988
v -0.174336 0.444797 0.011511
v -0.051794 0.420540 0.016006
v -0.222535 0.234144 0.188789
v -0.099994 0.209888 0.193283
v -0.050704 0.448619 0.137806
v -0.173245 0.472876 0.133312
vt 0.203125 0.687500
vt 0.171875 0.750000
vt 0.171875 0.687500
vt 0.234375 0.687500
vt 0.265625 0.750000
vt 0.234375 0.750000
vt 0.203125 0.750000
vt 0.171875 0.781250
vt 0.203125 0.750000
vt 0.234375 0.781250
vt 0.203125 0.781250
vt 0.140625 0.750000
vt 0.140625 0.687500
vt 0.265625 0.687500
vt 0.203125 0.781250
vt 0.234375 0.750000
vn -0.0087 -0.2246 -0.9744
vn 0.0087 0.2246 0.9744
vn 0.1972 0.9549 -0.2219
vn -0.1972 -0.9549 0.2219
vn 0.9803 -0.1940 0.0360
vn -0.9803 0.1941 -0.0360
usemtl Default_OBJ.003
s off
f 130/257/105 132/258/105 129/259/105
f 133/260/106 135/261/106 136/262/106
f 131/263/107 135/264/107 132/258/107
f 134/265/108 130/266/108 129/267/108
f 129/259/109 135/268/109 134/269/109
f 130/257/110 136/262/110 131/263/110
f 130/257/105 131/263/105 132/258/105
f 133/260/106 134/270/106 135/261/106
f 131/263/107 136/271/107 135/264/107
f 134/265/108 133/272/108 130/266/108
f 129/259/109 132/258/109 135/268/109
f 130/257/110 133/260/110 136/262/110
