# Blender 3.1.0
# www.blender.org
o Base.004
v -0.500000 0.000000 -0.500000
v 0.500000 0.187500 -0.500000
v 0.500000 0.000000 -0.500000
v 0.500000 -0.000000 0.500000
v -0.500000 0.187500 0.500000
v -0.500000 -0.000000 0.500000
v -0.500000 0.187500 -0.500000
v 0.500000 0.187500 0.500000
vn -0.0000 -0.0000 -1.0000
vn -0.0000 -0.0000 1.0000
vn -0.0000 1.0000 -0.0000
vn -0.0000 -1.0000 -0.0000
vn 1.0000 -0.0000 -0.0000
vn -1.0000 -0.0000 -0.0000
vt 0.250000 0.210938
vt 0.375000 0.359375
vt 0.125000 0.234375
vt 0.250000 0.359375
vt 0.125000 0.210938
vt 0.250000 0.234375
vt 0.000000 0.210938
vt 0.500000 0.210938
vt 0.250000 0.359375
vt 0.375000 0.234375
vt 0.375000 0.234375
vt 0.375000 0.210938
vt 0.250000 0.234375
vt 0.500000 0.234375
vt 0.125000 0.359375
vt 0.000000 0.234375
s off
f 1/1/1 2/3/1 3/5/1
f 4/8/2 5/10/2 6/12/2
f 7/13/3 8/15/3 2/3/3
f 6/11/4 3/4/4 4/6/4
f 3/5/5 8/16/5 4/7/5
f 6/12/6 7/13/6 1/1/6
f 1/1/1 7/13/1 2/3/1
f 4/8/2 8/14/2 5/10/2
f 7/13/3 5/9/3 8/15/3
f 6/11/4 1/2/4 3/4/4
f 3/5/5 2/3/5 8/16/5
f 6/12/6 5/10/6 7/13/6
o LowerLegRight
v 0.031250 0.187500 0.000000
v 0.156250 0.437500 0.000000
v 0.156250 0.187500 0.000000
v 0.156250 0.187500 0.125000
v 0.031250 0.437500 0.125000
v 0.031250 0.187500 0.125000
v 0.031250 0.437500 0.000000
v 0.156250 0.437500 0.125000
vn -0.0000 -0.0000 -1.0000
vn -0.0000 -0.0000 1.0000
vn -0.0000 1.0000 -0.0000
vn -0.0000 -1.0000 -0.0000
vn 1.0000 -0.0000 -0.0000
vn -1.0000 -0.0000 -0.0000
vt 0.062500 0.687500
vt 0.093750 0.781250
vt 0.031250 0.750000
vt 0.062500 0.781250
vt 0.031250 0.687500
vt 0.062500 0.750000
vt 0.000000 0.687500
vt 0.125000 0.687500
vt 0.062500 0.781250
vt 0.093750 0.750000
vt 0.093750 0.750000
vt 0.093750 0.687500
vt 0.062500 0.750000
vt 0.125000 0.750000
vt 0.031250 0.781250
vt 0.000000 0.750000
s off
f 9/17/7 10/19/7 11/21/7
f 12/24/8 13/26/8 14/28/8
f 15/29/9 16/31/9 10/19/9
f 14/27/10 11/20/10 12/22/10
f 11/21/11 16/32/11 12/23/11
f 14/28/12 15/29/12 9/17/12
f 9/17/7 15/29/7 10/19/7
f 12/24/8 16/30/8 13/26/8
f 15/29/9 13/25/9 16/31/9
f 14/27/10 9/18/10 11/20/10
f 11/21/11 10/19/11 16/32/11
f 14/28/12 13/26/12 15/29/12
o UpperLegRight
v 0.003710 0.620728 0.203332
v 0.156250 0.400000 0.125000
v 0.127810 0.635702 0.203332
v -0.000981 0.659612 0.084627
v 0.151558 0.438884 0.006294
v 0.027458 0.423910 0.006294
v 0.032150 0.385026 0.125000
v 0.123119 0.674586 0.084627
vn 0.0375 -0.3111 0.9496
vn -0.0375 0.3111 -0.9496
vn 0.1138 -0.9428 -0.3133
vn -0.1138 0.9428 0.3133
vn 0.9928 0.1198 -0.0000
vn -0.9928 -0.1198 -0.0000
vt 0.062500 0.796875
vt 0.093750 0.890625
vt 0.031250 0.859375
vt 0.062500 0.890625
vt 0.031250 0.796875
vt 0.093750 0.859375
vt 0.093750 0.796875
vt 0.000000 0.859375
vt 0.125000 0.859375
vt 0.031250 0.890625
vt 0.062500 0.890625
vt 0.093750 0.859375
vt 0.062500 0.859375
vt 0.062500 0.859375
vt 0.125000 0.796875
vt 0.000000 0.796875
s off
f 17/33/13 18/35/13 19/37/13
f 20/39/14 21/41/14 22/44/14
f 23/45/15 21/42/15 18/35/15
f 20/38/16 19/36/16 24/46/16
f 24/48/17 18/35/17 21/40/17
f 20/39/18 23/45/18 17/33/18
f 17/33/13 23/45/13 18/35/13
f 20/39/14 24/47/14 21/41/14
f 23/45/15 22/43/15 21/42/15
f 20/38/16 17/34/16 19/36/16
f 24/48/17 19/37/17 18/35/17
f 20/39/18 22/44/18 23/45/18
o LowerBody
v -0.111294 0.656250 0.055860
v 0.125000 0.843750 0.137500
v 0.125000 0.656250 0.137500
v 0.084180 0.656250 0.255647
v -0.152114 0.843750 0.174008
v -0.152114 0.656250 0.174008
v -0.111294 0.843750 0.055860
v 0.084180 0.843750 0.255647
vn 0.3266 -0.0000 -0.9452
vn -0.3266 -0.0000 0.9452
vn -0.0000 1.0000 -0.0000
vn -0.0000 -1.0000 -0.0000
vn 0.9452 -0.0000 0.3266
vn -0.9452 -0.0000 -0.3266
vt 0.375000 0.812500
vt 0.437500 0.890625
vt 0.312500 0.859375
vt 0.375000 0.890625
vt 0.312500 0.812500
vt 0.281250 0.812500
vt 0.468750 0.812500
vt 0.375000 0.859375
vt 0.375000 0.890625
vt 0.406250 0.859375
vt 0.437500 0.859375
vt 0.406250 0.812500
vt 0.375000 0.859375
vt 0.468750 0.859375
vt 0.312500 0.890625
vt 0.281250 0.859375
s off
f 25/49/19 26/51/19 27/53/19
f 28/55/20 29/58/20 30/60/20
f 31/61/21 32/63/21 26/51/21
f 28/56/22 25/50/22 27/52/22
f 27/53/23 32/64/23 28/54/23
f 30/60/24 31/61/24 25/49/24
f 25/49/19 31/61/19 26/51/19
f 28/55/20 32/62/20 29/58/20
f 31/61/21 29/57/21 32/63/21
f 28/56/22 30/59/22 25/50/22
f 27/53/23 26/51/23 32/64/23
f 30/60/24 29/58/24 31/61/24
o UpperBody
v 0.098960 1.089619 0.212870
v -0.152114 0.843750 0.174008
v 0.084180 0.843750 0.255647
v -0.097189 1.066990 0.015035
v 0.124325 0.821121 0.139452
v -0.111969 0.821121 0.057813
v 0.139105 1.066990 0.096675
v -0.137335 1.089619 0.131230
vn -0.3212 0.1810 0.9296
vn 0.3212 -0.1810 -0.9296
vn -0.0591 -0.9835 0.1711
vn 0.0591 0.9835 -0.1711
vn 0.9452 -0.0000 0.3266
vn -0.9452 -0.0000 -0.3266
vt 0.375000 1.000000
vt 0.312500 0.906250
vt 0.375000 0.968750
vt 0.312500 0.968750
vt 0.437500 0.968750
vt 0.406250 0.906250
vt 0.468750 0.968750
vt 0.312500 1.000000
vt 0.281250 0.968750
vt 0.375000 1.000000
vt 0.406250 0.968750
vt 0.375000 0.968750
vt 0.281250 0.906250
vt 0.468750 0.906250
vt 0.437500 1.000000
vt 0.375000 0.906250
s off
f 33/66/25 34/67/25 35/68/25
f 36/70/26 37/71/26 38/75/26
f 34/67/27 37/72/27 35/68/27
f 36/69/28 33/65/28 39/76/28
f 33/66/29 37/73/29 39/77/29
f 40/80/30 38/75/30 34/67/30
f 33/66/25 40/80/25 34/67/25
f 36/70/26 39/78/26 37/71/26
f 34/67/27 38/74/27 37/72/27
f 36/69/28 40/79/28 33/65/28
f 33/66/29 35/68/29 37/73/29
f 40/80/30 36/70/30 38/75/30
o UpperArmRight
v 0.213249 0.992015 0.306467
v 0.192862 0.856910 0.062631
v 0.308445 0.880172 0.104158
v 0.213002 1.101361 0.245901
v 0.192615 0.966256 0.002065
v 0.097419 1.078099 0.204374
v 0.308198 0.989519 0.043592
v 0.097666 0.968752 0.264940
vn 0.0020 -0.8748 0.4845
vn -0.0020 0.8748 -0.4845
vn 0.3808 -0.4474 -0.8092
vn -0.3808 0.4474 0.8092
vn 0.9247 0.1861 0.3322
vn -0.9247 -0.1861 -0.3322
vt 0.546875 1.000000
vt 0.515625 0.906250
vt 0.546875 0.968750
vt 0.515625 0.968750
vt 0.546875 0.968750
vt 0.484375 0.906250
vt 0.609375 0.906250
vt 0.546875 1.000000
vt 0.578125 0.968750
vt 0.578125 0.968750
vt 0.578125 0.906250
vt 0.515625 1.000000
vt 0.609375 0.968750
vt 0.484375 0.968750
vt 0.578125 1.000000
vt 0.546875 0.906250
s off
f 41/82/31 42/83/31 43/84/31
f 44/87/32 45/89/32 46/91/32
f 43/84/33 45/88/33 47/92/33
f 46/90/34 41/81/34 44/85/34
f 41/82/35 47/94/35 44/86/35
f 48/96/36 45/89/36 42/83/36
f 41/82/31 48/96/31 42/83/31
f 44/87/32 47/93/32 45/89/32
f 43/84/33 42/83/33 45/88/33
f 46/90/34 48/95/34 41/81/34
f 41/82/35 43/84/35 47/94/35
f 48/96/36 46/91/36 45/89/36
o LowerArmRight
v 0.222905 0.969822 -0.175834
v 0.297904 1.004055 0.091239
v 0.345194 0.982577 -0.153306
v 0.233445 0.845939 -0.162915
v 0.308445 0.880172 0.104158
v 0.186155 0.867418 0.081630
v 0.355735 0.858694 -0.140387
v 0.175614 0.991301 0.068711
vn -0.0843 0.9911 -0.1034
vn 0.0843 -0.9911 0.1034
vn -0.1892 0.0859 0.9782
vn 0.1892 -0.0859 -0.9782
vn 0.9783 0.1020 0.1802
vn -0.9783 -0.1020 -0.1802
vt 0.578125 0.890625
vt 0.546875 0.796875
vt 0.515625 0.859375
vt 0.546875 0.890625
vt 0.515625 0.796875
vt 0.578125 0.859375
vt 0.578125 0.796875
vt 0.515625 0.890625
vt 0.484375 0.859375
vt 0.609375 0.859375
vt 0.546875 0.890625
vt 0.578125 0.859375
vt 0.609375 0.796875
vt 0.546875 0.859375
vt 0.484375 0.796875
vt 0.546875 0.859375
s off
f 49/98/37 50/99/37 51/101/37
f 52/103/38 53/106/38 54/108/38
f 50/99/39 54/107/39 53/104/39
f 55/110/40 49/97/40 51/100/40
f 55/111/41 50/99/41 53/105/41
f 49/98/42 54/108/42 56/112/42
f 49/98/37 56/112/37 50/99/37
f 52/103/38 55/109/38 53/106/38
f 50/99/39 56/112/39 54/107/39
f 55/110/40 52/102/40 49/97/40
f 55/111/41 51/101/41 50/99/41
f 49/98/42 52/103/42 54/108/42
o WeaponGrip.002
v 0.232937 1.160983 -0.165127
v 0.282259 1.172730 -0.092726
v 0.294082 1.167360 -0.153863
v 0.317264 0.169919 -0.061774
v 0.366586 0.181666 0.010627
v 0.305441 0.175289 -0.000637
v 0.378409 0.176297 -0.050510
v 0.221114 1.166353 -0.103990
vn -0.0843 0.9911 -0.1034
vn 0.0843 -0.9911 0.1034
vn -0.1892 0.0859 0.9782
vn 0.1892 -0.0859 -0.9782
vn 0.9783 0.1020 0.1802
vn -0.9783 -0.1020 -0.1802
vn 0.0843 -0.9911 0.1033
vt 0.281250 0.578125
vt 0.265625 0.312500
vt 0.250000 0.328125
vt 0.265625 0.578125
vt 0.250000 0.312500
vt 0.281250 0.328125
vt 0.515625 0.312500
vt 0.250000 0.578125
vt 0.000000 0.328125
vt 0.531250 0.328125
vt 0.265625 0.578125
vt 0.515625 0.328125
vt 0.531250 0.312500
vt 0.265625 0.328125
vt 0.000000 0.312500
vt 0.265625 0.328125
s off
f 57/114/43 58/115/43 59/117/43
f 60/119/44 61/122/44 62/124/44
f 58/115/45 62/123/45 61/120/45
f 63/126/46 57/113/46 59/116/46
f 63/127/47 58/115/47 61/121/47
f 57/114/48 62/124/48 64/128/48
f 57/114/43 64/128/43 58/115/43
f 60/119/44 63/125/49 61/122/44
f 58/115/45 64/128/45 62/123/45
f 63/126/46 60/118/46 57/113/46
f 63/127/47 59/117/47 58/115/47
f 57/114/48 60/119/48 62/124/48
o WeaponTop.001
v 0.105376 1.210170 -0.194114
v 0.399278 1.247426 -0.076658
v 0.411101 1.242057 -0.137794
v 0.416371 1.180115 -0.131334
v 0.098824 1.153598 -0.126519
v 0.110647 1.148228 -0.187655
v 0.404549 1.185485 -0.070198
v 0.093554 1.215540 -0.132978
vn -0.0843 0.9911 -0.1034
vn -0.0843 0.9911 -0.1033
vn 0.0843 -0.9911 0.1034
vn -0.1892 0.0859 0.9782
vn 0.1892 -0.0859 -0.9782
vn 0.9783 0.1020 0.1802
vn -0.9783 -0.1020 -0.1802
vt 0.171875 0.375000
vt 0.093750 0.343750
vt 0.015625 0.359375
vt 0.093750 0.375000
vt 0.015625 0.343750
vt 0.187500 0.343750
vt 0.093750 0.359375
vt 0.000000 0.343750
vt 0.093750 0.375000
vt 0.109375 0.359375
vt 0.171875 0.359375
vt 0.109375 0.343750
vt 0.015625 0.375000
vt 0.000000 0.359375
vt 0.187500 0.359375
vt 0.093750 0.359375
s off
f 65/130/50 66/131/51 67/133/51
f 68/134/52 69/138/52 70/140/52
f 66/131/53 69/137/53 71/141/53
f 68/135/54 65/129/54 67/132/54
f 68/136/55 66/131/55 71/142/55
f 65/130/56 69/138/56 72/144/56
f 65/130/50 72/144/50 66/131/51
f 68/134/52 71/143/52 69/138/52
f 66/131/53 72/144/53 69/137/53
f 68/135/54 70/139/54 65/129/54
f 68/136/55 67/133/55 66/131/55
f 65/130/56 70/140/56 69/138/56
o WeaponSpikeRight
v 0.390019 1.489823 -0.163632
v 0.317052 1.488815 -0.113760
v 0.378197 1.495192 -0.102496
v 0.349956 1.235679 -0.149058
v 0.399278 1.247426 -0.076658
v 0.338133 1.241049 -0.087922
v 0.411101 1.242057 -0.137794
v 0.328874 1.483445 -0.174896
vn -0.0843 0.9911 -0.1033
vn 0.0843 -0.9911 0.1034
vn -0.1892 0.0859 0.9782
vn 0.1892 -0.0859 -0.9782
vn 0.9783 0.1020 0.1802
vn -0.9783 -0.1020 -0.1802
vn -0.0843 0.9911 -0.1034
vn 0.0843 -0.9911 0.1033
vt 0.078125 0.468750
vt 0.062500 0.390625
vt 0.078125 0.406250
vt 0.062500 0.406250
vt 0.093750 0.406250
vt 0.140625 0.390625
vt 0.062500 0.468750
vt 0.000000 0.406250
vt 0.156250 0.406250
vt 0.078125 0.468750
vt 0.140625 0.406250
vt 0.156250 0.390625
vt 0.078125 0.406250
vt 0.000000 0.390625
vt 0.093750 0.468750
vt 0.078125 0.390625
s off
f 73/146/57 74/147/57 75/148/57
f 76/150/58 77/153/58 78/155/58
f 75/148/59 78/154/59 77/151/59
f 79/157/60 80/159/60 73/145/60
f 79/158/61 75/148/61 77/152/61
f 80/160/62 78/155/62 74/147/62
f 73/146/57 80/160/63 74/147/57
f 76/150/58 79/156/64 77/153/58
f 75/148/59 74/147/59 78/154/59
f 79/157/60 76/149/60 80/159/60
f 79/158/61 73/146/61 75/148/61
f 80/160/62 76/150/62 78/155/62
o WeaponSpikeMid
v 0.201314 1.532632 -0.203884
v 0.250636 1.544379 -0.131484
v 0.262459 1.539009 -0.192620
v 0.288811 1.229302 -0.160322
v 0.215844 1.228294 -0.110450
v 0.227666 1.222925 -0.171586
v 0.189491 1.538002 -0.142748
v 0.276989 1.234672 -0.099186
vn -0.0843 0.9911 -0.1034
vn 0.0843 -0.9911 0.1033
vn -0.1892 0.0859 0.9782
vn 0.1892 -0.0859 -0.9782
vn 0.9783 0.1020 0.1802
vn -0.9783 -0.1020 -0.1802
vn 0.0843 -0.9911 0.1034
vt 0.093750 0.484375
vt 0.109375 0.578125
vt 0.078125 0.500000
vt 0.093750 0.578125
vt 0.078125 0.484375
vt 0.093750 0.500000
vt 0.000000 0.484375
vt 0.187500 0.484375
vt 0.093750 0.578125
vt 0.171875 0.500000
vt 0.109375 0.500000
vt 0.171875 0.484375
vt 0.093750 0.500000
vt 0.187500 0.500000
vt 0.078125 0.578125
vt 0.000000 0.500000
s off
f 81/161/65 82/163/65 83/165/65
f 84/168/66 85/170/66 86/172/66
f 87/173/67 88/175/67 82/163/67
f 86/171/68 83/164/68 84/166/68
f 83/165/69 88/176/69 84/167/69
f 86/172/70 87/173/70 81/161/70
f 81/161/65 87/173/65 82/163/65
f 84/168/66 88/174/71 85/170/66
f 87/173/67 85/169/67 88/175/67
f 86/171/68 81/162/68 83/164/68
f 83/165/69 82/163/69 88/176/69
f 86/172/70 85/170/70 87/173/70
o WeaponSpikeLeft
v 0.145439 1.464313 -0.208689
v 0.072472 1.463305 -0.158816
v 0.133617 1.469683 -0.147552
v 0.166521 1.216547 -0.182850
v 0.093554 1.215540 -0.132978
v 0.105376 1.210170 -0.194114
v 0.154699 1.221917 -0.121714
v 0.084295 1.457936 -0.219953
vn -0.0843 0.9911 -0.1033
vn -0.0843 0.9911 -0.1034
vn 0.0843 -0.9911 0.1034
vn -0.1892 0.0859 0.9782
vn 0.1892 -0.0859 -0.9782
vn 0.9783 0.1020 0.1802
vn -0.9783 -0.1020 -0.1802
vt 0.078125 0.671875
vt 0.062500 0.593750
vt 0.078125 0.609375
vt 0.062500 0.609375
vt 0.078125 0.609375
vt 0.000000 0.593750
vt 0.156250 0.593750
vt 0.078125 0.671875
vt 0.140625 0.609375
vt 0.093750 0.609375
vt 0.140625 0.593750
vt 0.156250 0.609375
vt 0.062500 0.671875
vt 0.000000 0.609375
vt 0.078125 0.593750
vt 0.093750 0.671875
s off
f 89/178/72 90/179/72 91/180/73
f 92/183/74 93/185/74 94/187/74
f 90/179/75 95/189/75 91/180/75
f 94/186/76 89/177/76 92/181/76
f 89/178/77 95/190/77 92/182/77
f 94/187/78 90/179/78 96/191/78
f 89/178/72 96/191/72 90/179/72
f 92/183/74 95/188/74 93/185/74
f 90/179/75 93/184/75 95/189/75
f 94/186/76 96/192/76 89/177/76
f 89/178/77 91/180/77 95/190/77
f 94/187/78 93/185/78 90/179/78
o UpperArmLeft
v -0.255376 1.106481 0.087163
v -0.193466 0.843750 0.159721
v -0.140050 1.086276 0.130943
v -0.099905 1.063646 0.014748
v -0.268646 0.841326 -0.000254
v -0.215230 1.083852 -0.029032
v -0.308791 0.863955 0.115941
v -0.153320 0.821121 0.043526
vn -0.3212 0.1810 0.9296
vn 0.3212 -0.1810 -0.9296
vn -0.2137 -0.9701 0.1151
vn 0.2137 0.9701 -0.1151
vn 0.9226 -0.1616 0.3502
vn -0.9226 0.1616 -0.3502
vt 0.718750 1.000000
vt 0.687500 0.906250
vt 0.656250 0.968750
vt 0.687500 1.000000
vt 0.656250 0.906250
vt 0.687500 0.968750
vt 0.625000 0.906250
vt 0.750000 0.906250
vt 0.687500 1.000000
vt 0.718750 0.968750
vt 0.718750 0.968750
vt 0.718750 0.906250
vt 0.687500 0.968750
vt 0.750000 0.968750
vt 0.656250 1.000000
vt 0.625000 0.968750
s off
f 97/194/79 98/195/79 99/197/79
f 100/200/80 101/202/80 102/204/80
f 103/205/81 104/207/81 98/195/81
f 102/203/82 99/196/82 100/198/82
f 99/197/83 104/208/83 100/199/83
f 97/194/84 101/202/84 103/205/84
f 97/194/79 103/205/79 98/195/79
f 100/200/80 104/206/80 101/202/80
f 103/205/81 101/201/81 104/207/81
f 102/203/82 97/193/82 99/196/82
f 99/197/83 98/195/83 104/208/83
f 97/194/84 102/204/84 101/202/84
o LowerArmLeft
v -0.278332 0.651038 -0.062562
v -0.146003 0.871309 0.047414
v -0.163006 0.630832 -0.018782
v -0.325794 0.623479 0.049744
v -0.193466 0.843750 0.159721
v -0.308791 0.863955 0.115941
v -0.261329 0.891514 0.003634
v -0.210468 0.603273 0.093524
vn 0.3797 0.2205 -0.8985
vn -0.3797 -0.2205 0.8985
vn 0.0680 0.9619 0.2648
vn -0.0680 -0.9619 -0.2648
vn 0.9226 -0.1616 0.3502
vn -0.9226 0.1616 -0.3502
vt 0.687500 0.796875
vt 0.718750 0.890625
vt 0.656250 0.859375
vt 0.687500 0.890625
vt 0.656250 0.796875
vt 0.718750 0.859375
vt 0.718750 0.796875
vt 0.625000 0.859375
vt 0.750000 0.859375
vt 0.656250 0.890625
vt 0.687500 0.890625
vt 0.718750 0.859375
vt 0.687500 0.859375
vt 0.687500 0.859375
vt 0.750000 0.796875
vt 0.625000 0.796875
s off
f 105/209/85 106/211/85 107/213/85
f 108/215/86 109/217/86 110/220/86
f 111/221/87 109/218/87 106/211/87
f 108/214/88 107/212/88 112/222/88
f 112/224/89 106/211/89 109/216/89
f 108/215/90 111/221/90 105/209/90
f 105/209/85 111/221/85 106/211/85
f 108/215/86 112/223/86 109/217/86
f 111/221/87 110/219/87 109/218/87
f 108/214/88 105/210/88 107/212/88
f 112/224/89 107/213/89 106/211/89
f 108/215/90 110/220/90 111/221/90
o Head.003
v 0.115537 1.342755 0.231497
v -0.127422 1.086012 0.238860
v 0.122475 1.093014 0.240504
v 0.117431 1.333798 -0.018335
v -0.125527 1.077055 -0.010972
v -0.132465 1.326796 -0.019979
v 0.124369 1.084056 -0.009328
v -0.134360 1.335754 0.229853
vn -0.0076 0.0358 0.9993
vn 0.0076 -0.0358 -0.9993
vn 0.0278 -0.9990 0.0360
vn -0.0278 0.9990 -0.0360
vn -0.0277 0.9990 -0.0360
vn 0.9996 0.0280 0.0066
vn -0.9996 -0.0280 -0.0066
vn 0.0277 -0.9990 0.0360
vt 0.609375 0.781250
vt 0.546875 0.656250
vt 0.609375 0.718750
vt 0.546875 0.718750
vt 0.484375 0.656250
vt 0.734375 0.656250
vt 0.609375 0.718750
vt 0.609375 0.781250
vt 0.671875 0.718750
vt 0.671875 0.718750
vt 0.671875 0.656250
vt 0.734375 0.718750
vt 0.546875 0.781250
vt 0.484375 0.718750
vt 0.609375 0.656250
vt 0.671875 0.781250
s off
f 113/226/91 114/227/91 115/228/91
f 116/230/92 117/233/92 118/235/92
f 114/227/93 119/237/93 115/228/93
f 116/231/94 120/240/94 113/225/95
f 113/226/96 119/238/96 116/229/96
f 118/235/97 114/227/97 120/239/97
f 113/226/91 120/239/91 114/227/91
f 116/230/92 119/236/92 117/233/92
f 114/227/93 117/232/98 119/237/93
f 116/231/94 118/234/94 120/240/94
f 113/226/96 115/228/96 119/238/96
f 118/235/97 117/233/97 114/227/97
o UpperLegLeft
v -0.173723 0.444675 0.011534
v -0.006259 0.658666 0.077022
v -0.051181 0.420419 0.016028
v -0.183924 0.415586 0.132673
v -0.016461 0.629577 0.198161
v -0.139002 0.653834 0.193666
v -0.061383 0.391330 0.137168
v -0.128801 0.682923 0.072527
vn 0.0816 0.2327 -0.9691
vn -0.0816 -0.2327 0.9691
vn 0.1797 0.9530 0.2440
vn -0.1797 -0.9530 -0.2440
vn 0.9803 -0.1941 0.0360
vn -0.9803 0.1940 -0.0360
vt 0.234375 0.890625
vt 0.203125 0.796875
vt 0.171875 0.859375
vt 0.203125 0.890625
vt 0.171875 0.796875
vt 0.234375 0.859375
vt 0.234375 0.796875
vt 0.171875 0.890625
vt 0.140625 0.859375
vt 0.265625 0.859375
vt 0.203125 0.890625
vt 0.234375 0.859375
vt 0.265625 0.796875
vt 0.203125 0.859375
vt 0.140625 0.796875
vt 0.203125 0.859375
s off
f 121/242/99 122/243/99 123/245/99
f 124/247/100 125/250/100 126/252/100
f 122/243/101 126/251/101 125/248/101
f 127/254/102 121/241/102 123/244/102
f 127/255/103 122/243/103 125/249/103
f 121/242/104 126/252/104 128/256/104
f 121/242/99 128/256/99 122/243/99
f 124/247/100 127/253/100 125/250/100
f 122/243/101 128/256/101 126/251/101
f 127/254/102 124/246/102 121/241/102
f 127/255/103 123/245/103 122/243/103
f 121/242/104 124/247/104 126/252/104
o LoweLegLeft
v -0.223626 0.206065 0.066988
v -0.051794 0.420540 0.016006
v -0.101084 0.181809 0.071483
v -0.222535 0.234144 0.188789
v -0.050704 0.448619 0.137806
v -0.173245 0.472876 0.133312
v -0.174336 0.444797 0.011511
v -0.099994 0.209888 0.193283
vn -0.0087 -0.2246 -0.9744
vn 0.0087 0.2246 0.9744
vn 0.1972 0.9549 -0.2219
vn -0.1972 -0.9549 0.2219
vn 0.9803 -0.1940 0.0360
vn -0.9803 0.1941 -0.0360
vt 0.234375 0.781250
vt 0.203125 0.687500
vt 0.171875 0.750000
vt 0.203125 0.781250
vt 0.171875 0.687500
vt 0.234375 0.750000
vt 0.234375 0.687500
vt 0.265625 0.750000
vt 0.171875 0.781250
vt 0.140625 0.750000
vt 0.203125 0.781250
vt 0.234375 0.750000
vt 0.203125 0.750000
vt 0.140625 0.687500
vt 0.265625 0.687500
vt 0.203125 0.750000
s off
f 129/258/105 130/259/105 131/261/105
f 132/263/106 133/264/106 134/268/106
f 135/269/107 133/265/107 130/259/107
f 136/272/108 129/257/108 131/260/108
f 131/261/109 133/266/109 136/270/109
f 129/258/110 134/268/110 135/269/110
f 129/258/105 135/269/105 130/259/105
f 132/263/106 136/271/106 133/264/106
f 135/269/107 134/267/107 133/265/107
f 136/272/108 132/262/108 129/257/108
f 131/261/109 130/259/109 133/266/109
f 129/258/110 132/263/110 134/268/110
