# Blender 4.0.2
# www.blender.org
mtllib bishop.mtl
o Base
v 0.500000 -0.000000 -0.500000
v -0.500000 -0.000000 -0.500000
v 0.000000 1.741157 -0.000000
v -0.500000 0.000000 0.500000
v 0.500000 0.000000 0.500000
vn -0.0000 -0.0000 -1.0000
vn -0.0000 -0.0000 1.0000
vn -0.0000 -1.0000 -0.0000
vn 1.0000 -0.0000 -0.0000
vn -1.0000 -0.0000 -0.0000
vt 0.250000 0.851563
vt 0.125000 0.875000
vt 0.125000 0.851563
vt 0.500000 0.851563
vt 0.375000 0.875000
vt 0.375000 0.851563
vt 0.250000 1.000000
vt 0.250000 0.875000
vt 0.000000 0.875000
vt 0.000000 0.851563
vt 0.375000 1.000000
s 0
f 2/1/1 3/2/1 1/3/1
f 5/4/2 3/5/2 4/6/2
f 4/5/3 1/7/3 5/8/3
f 1/3/4 3/9/4 5/10/4
f 4/6/5 3/8/5 2/1/5
f 4/5/3 2/11/3 1/7/3
