# Blender 4.0.2
# www.blender.org
mtllib king.mtl
o Base
v 0.500000 -0.000000 -0.500000
v -0.500000 -0.000000 -0.500000
v -0.500000 0.187500 -0.500000
v 0.500000 0.187500 -0.500000
v -0.500000 0.000000 0.500000
v 0.500000 0.000000 0.500000
v 0.500000 0.187500 0.500000
v -0.500000 0.187500 0.500000
v -0.403602 0.669837 -0.291708
v 0.403602 0.669837 -0.291708
v 0.508688 0.669837 0.291929
v -0.508688 0.669837 0.291929
v -0.161058 1.192500 -0.166145
v 0.161058 1.192500 -0.166145
v 0.437984 1.192500 0.291929
v -0.437984 1.192500 0.291929
v -0.161058 1.608234 0.190507
v 0.161058 1.608234 0.190507
v 0.210219 1.608234 0.291929
v -0.210219 1.608234 0.291929
vn -0.0000 -0.0000 -1.0000
vn -0.0000 -0.0000 1.0000
vn -0.0000 0.3961 0.9182
vn -0.0000 -1.0000 -0.0000
vn 1.0000 -0.0000 -0.0000
vn -1.0000 -0.0000 -0.0000
vn 0.9937 0.0903 -0.0659
vn 0.9937 0.0904 -0.0659
vn -0.8935 0.3071 -0.3277
vn -0.9937 0.0903 -0.0659
vn -0.9937 0.0904 -0.0660
vn -0.9937 0.0904 -0.0659
vn -0.0000 0.3965 -0.9181
vn -0.7871 0.4124 -0.4587
vn -0.0000 0.6511 -0.7590
vn 0.8935 0.3071 -0.3277
vn -0.0000 0.2336 -0.9723
vn -0.0000 1.0000 -0.0000
vn 0.7871 0.4124 -0.4587
vt 0.250000 0.851563
vt 0.125000 0.875000
vt 0.125000 0.851563
vt 0.500000 0.851563
vt 0.375000 0.875000
vt 0.375000 0.851563
vt 0.500000 0.875000
vt 0.250000 1.000000
vt 0.250000 0.875000
vt 0.000000 0.875000
vt 0.000000 0.851563
vt 0.375000 1.000000
vt 0.125000 1.000000
s 0
f 2/1/1 4/2/1 1/3/1
f 6/4/2 8/5/2 5/6/2
f 7/7/3 11/7/3 12/5/3
f 5/5/4 1/8/4 6/9/4
f 1/3/5 7/10/5 6/11/5
f 5/6/6 3/9/6 2/1/6
f 2/1/1 3/9/1 4/2/1
f 6/4/2 7/7/2 8/5/2
f 4/2/7 10/2/8 11/10/8
f 5/5/4 2/12/4 1/8/4
f 1/3/5 4/2/5 7/10/5
f 5/6/6 8/5/6 3/9/6
f 11/7/2 15/7/2 16/5/2
f 12/5/9 16/5/9 13/9/9
f 8/5/10 12/5/11 9/9/12
f 3/9/13 9/9/13 10/2/13
f 16/5/14 20/5/14 17/9/14
f 13/9/15 17/9/15 18/2/15
f 10/2/16 14/2/16 15/10/16
f 9/9/17 13/9/17 14/2/17
f 17/9/18 19/13/18 18/2/18
f 17/9/18 20/8/18 19/13/18
f 15/7/2 19/7/2 20/5/2
f 14/2/19 18/2/19 19/10/19
f 11/10/16 10/2/16 15/10/16
f 10/2/17 9/9/17 14/2/17
f 9/9/9 12/5/9 13/9/9
f 12/5/2 11/7/2 16/5/2
f 8/5/3 7/7/3 12/5/3
f 3/9/12 8/5/12 9/9/12
f 4/2/13 3/9/13 10/2/13
f 7/10/8 4/2/8 11/10/8
f 15/10/19 14/2/19 19/10/19
f 16/5/2 15/7/2 20/5/2
f 13/9/14 16/5/14 17/9/14
f 14/2/15 13/9/15 18/2/15
