# Blender 4.0.2
# www.blender.org
mtllib knight.mtl
o Base
v 0.500000 -0.000000 -0.500000
v -0.500000 -0.000000 -0.500000
v -0.227478 1.600415 -0.233544
v 0.227478 1.600415 -0.233544
v -0.500000 0.000000 0.500000
v 0.500000 0.000000 0.500000
v 0.227478 0.858921 0.571631
v -0.227478 0.858921 0.571631
v -0.111151 1.812863 0.231851
v 0.111151 1.812863 0.231851
v 0.111151 1.812863 0.504063
v -0.111151 1.812863 0.504063
vn -0.0000 0.1642 -0.9864
vn -0.0000 -0.0831 0.9965
vn -0.9812 0.1597 0.1083
vn -0.9815 0.1592 0.1067
vn -0.9813 0.1596 0.1080
vn -0.0000 -1.0000 -0.0000
vn 0.9532 0.3024 -0.0000
vn -0.9162 0.2745 0.2919
vn -0.9174 0.2707 0.2917
vn -0.9858 0.1679 -0.0013
vn -0.0000 0.0707 0.9975
vn 0.9804 0.1448 0.1333
vn -0.0000 1.0000 -0.0000
vn -0.0000 0.9097 -0.4153
vn 0.9822 0.1511 0.1114
vn -0.9822 0.1511 0.1114
vn 0.9815 0.1592 0.1067
vn 0.9812 0.1597 0.1083
vn 0.9813 0.1596 0.1080
vn -0.9141 0.2944 0.2788
vn -0.9858 0.1677 -0.0114
vn -0.9852 0.1710 -0.0109
vt 0.250000 0.851563
vt 0.125000 0.875000
vt 0.125000 0.851563
vt 0.500000 0.851563
vt 0.375000 0.875000
vt 0.375000 0.851563
vt 0.250000 0.875000
vt 0.250000 1.000000
vt 0.000000 0.875000
vt 0.000000 0.851563
vt 0.500000 0.875000
vt 0.375000 1.000000
vt 0.125000 1.000000
s 0
f 2/1/1 4/2/1 1/3/1
f 6/4/2 8/5/2 5/6/2
f 3/7/3 8/5/4 12/5/5
f 5/5/6 1/8/6 6/7/6
f 1/3/7 7/9/7 6/10/7
f 5/6/8 8/5/9 2/1/10
f 2/1/1 3/7/1 4/2/1
f 6/4/2 7/11/2 8/5/2
f 7/11/11 12/5/11 8/5/11
f 5/5/6 2/12/6 1/8/6
f 1/3/12 4/2/12 7/9/12
f 9/7/13 11/13/13 10/2/13
f 9/7/13 12/8/13 11/13/13
f 3/7/14 10/2/14 4/2/14
f 4/2/15 10/2/15 11/9/15
f 9/7/16 3/7/16 12/5/16
f 7/9/17 4/2/18 11/9/19
f 7/11/11 11/11/11 12/5/11
f 3/7/14 9/7/14 10/2/14
f 8/5/20 3/7/21 2/1/22
