# Blender 4.0.2
# www.blender.org
mtllib pawn.mtl
o Base
v -0.500000 -0.000000 -0.500000
v 0.097632 1.334653 0.021707
v 0.500000 -0.000000 -0.500000
v 0.500000 0.000000 0.500000
v -0.097632 1.334653 0.216971
v -0.500000 0.000000 0.500000
v -0.097632 1.334653 0.021707
v 0.097632 1.334653 0.216971
vn -0.0000 0.3641 -0.9314
vn -0.0000 0.2074 0.9782
vn -0.0000 1.0000 -0.0000
vn -0.0000 -1.0000 -0.0000
vn 0.9574 0.2886 -0.0000
vn -0.9574 0.2886 -0.0000
vt 0.250000 0.210938
vt 0.125000 0.234375
vt 0.125000 0.210938
vt 0.500000 0.210938
vt 0.375000 0.234375
vt 0.375000 0.210938
vt 0.250000 0.234375
vt 0.125000 0.359375
vt 0.250000 0.359375
vt 0.000000 0.234375
vt 0.000000 0.210938
vt 0.500000 0.234375
vt 0.375000 0.359375
s 0
f 1/1/1 2/2/1 3/3/1
f 4/4/2 5/5/2 6/6/2
f 7/7/3 8/8/3 2/2/3
f 6/5/4 3/9/4 4/7/4
f 3/3/5 8/10/5 4/11/5
f 6/6/6 7/7/6 1/1/6
f 1/1/1 7/7/1 2/2/1
f 4/4/2 8/12/2 5/5/2
f 7/7/3 5/9/3 8/8/3
f 6/5/4 1/13/4 3/9/4
f 3/3/5 2/2/5 8/10/5
f 6/6/6 5/5/6 7/7/6
