# Blender 4.0.2
# www.blender.org
mtllib queen.mtl
o Base
v 0.500000 -0.000000 -0.500000
v -0.500000 -0.000000 -0.500000
v -0.269670 0.557558 -0.270045
v 0.269670 0.557558 -0.270045
v -0.500000 0.000000 0.500000
v 0.500000 0.000000 0.500000
v 0.269670 0.557558 0.269295
v -0.269670 0.557558 0.269295
v -0.202531 1.265487 -0.209504
v 0.081673 1.265487 -0.209504
v 0.081673 1.265487 0.074700
v -0.202531 1.265487 0.074700
vn -0.0000 0.3813 -0.9245
vn -0.0000 0.3823 0.9240
vn 0.9665 0.2567 -0.0000
vn -0.0000 -1.0000 -0.0000
vn 0.9242 0.3818 -0.0000
vn -0.9242 0.3818 -0.0000
vn -0.0000 0.0852 -0.9964
vn -0.0000 1.0000 -0.0000
vn -0.0000 0.2650 0.9642
vn -0.9955 0.0944 -0.0000
vt 0.250000 0.851563
vt 0.125000 0.875000
vt 0.125000 0.851563
vt 0.500000 0.851563
vt 0.375000 0.875000
vt 0.375000 0.851563
vt 0.000000 0.875000
vt 0.250000 1.000000
vt 0.250000 0.875000
vt 0.000000 0.851563
vt 0.500000 0.875000
vt 0.375000 1.000000
vt 0.125000 1.000000
s 0
f 2/1/1 4/2/1 1/3/1
f 6/4/2 8/5/2 5/6/2
f 4/2/3 11/7/3 7/7/3
f 5/5/4 1/8/4 6/9/4
f 1/3/5 7/7/5 6/10/5
f 5/6/6 3/9/6 2/1/6
f 2/1/1 3/9/1 4/2/1
f 6/4/2 7/11/2 8/5/2
f 3/9/7 10/2/7 4/2/7
f 5/5/4 2/12/4 1/8/4
f 1/3/5 4/2/5 7/7/5
f 5/6/6 8/5/6 3/9/6
f 9/9/8 11/13/8 10/2/8
f 9/9/8 12/8/8 11/13/8
f 8/5/9 11/11/9 12/5/9
f 3/9/10 12/5/10 9/9/10
f 4/2/3 10/2/3 11/7/3
f 3/9/7 9/9/7 10/2/7
f 8/5/9 7/11/9 11/11/9
f 3/9/10 8/5/10 12/5/10
