# Blender 4.0.2
# www.blender.org
mtllib rook.mtl
o Base
v 0.500000 -0.000000 -0.500000
v -0.500000 -0.000000 -0.500000
v -0.310903 1.366601 -0.421795
v 0.310903 1.366601 -0.421795
v -0.500000 0.000000 0.500000
v 0.500000 0.000000 0.500000
v 0.310903 1.366601 0.298589
v -0.310903 1.366601 0.298589
v 0.000000 2.204866 -0.147838
vn -0.0000 0.0571 -0.9984
vn -0.0000 0.1458 0.9893
vn -0.9997 -0.0222 0.0120
vn -0.9997 -0.0223 0.0068
vn -0.9993 -0.0212 0.0305
vn -0.0000 -1.0000 -0.0000
vn 0.9906 0.1371 -0.0000
vn -0.9906 0.1371 -0.0000
vn 0.0038 0.0587 0.9983
vn -0.0038 0.0587 0.9983
vn -0.0000 0.0587 0.9983
vn -0.0009 -0.1145 -0.9934
vn 0.0009 -0.1145 -0.9934
vn -0.0000 -0.1145 -0.9934
vn 0.9997 -0.0223 0.0068
vn 0.9997 -0.0222 0.0120
vn 0.9993 -0.0212 0.0305
vt 0.250000 0.210938
vt 0.125000 0.234375
vt 0.125000 0.210938
vt 0.500000 0.210938
vt 0.375000 0.234375
vt 0.375000 0.210938
vt 0.250000 0.234375
vt 0.250000 0.359375
vt 0.000000 0.234375
vt 0.000000 0.210938
vt 0.500000 0.234375
vt 0.375000 0.359375
s 0
f 2/1/1 4/2/1 1/3/1
f 6/4/2 8/5/2 5/6/2
f 3/7/3 8/5/4 9/7/5
f 5/5/6 1/8/6 6/7/6
f 1/3/7 7/9/7 6/10/7
f 5/6/8 3/7/8 2/1/8
f 2/1/1 3/7/1 4/2/1
f 6/4/2 7/11/2 8/5/2
f 8/5/9 7/11/10 9/5/11
f 5/5/6 2/12/6 1/8/6
f 1/3/7 4/2/7 7/9/7
f 5/6/8 8/5/8 3/7/8
f 4/2/12 3/7/13 9/2/14
f 7/9/15 4/2/16 9/9/17
